%TF.GenerationSoftware,KiCad,Pcbnew,9.0.6*%
%TF.CreationDate,2026-04-03T11:42:20-04:00*%
%TF.ProjectId,COGDisplayBreakout,434f4744-6973-4706-9c61-79427265616b,0.1*%
%TF.SameCoordinates,Original*%
%TF.FileFunction,Legend,Bot*%
%TF.FilePolarity,Positive*%
%FSLAX46Y46*%
G04 Gerber Fmt 4.6, Leading zero omitted, Abs format (unit mm)*
G04 Created by KiCad (PCBNEW 9.0.6) date 2026-04-03 11:42:20*
%MOMM*%
%LPD*%
G01*
G04 APERTURE LIST*
%ADD10C,0.100000*%
%ADD11C,0.150000*%
%ADD12C,0.120000*%
G04 APERTURE END LIST*
D10*
X144104687Y-90320895D02*
X144561830Y-90320895D01*
X144333258Y-90320895D02*
X144333258Y-89520895D01*
X144333258Y-89520895D02*
X144409449Y-89635180D01*
X144409449Y-89635180D02*
X144485639Y-89711371D01*
X144485639Y-89711371D02*
X144561830Y-89749466D01*
X143799925Y-89597085D02*
X143761829Y-89558990D01*
X143761829Y-89558990D02*
X143685639Y-89520895D01*
X143685639Y-89520895D02*
X143495163Y-89520895D01*
X143495163Y-89520895D02*
X143418972Y-89558990D01*
X143418972Y-89558990D02*
X143380877Y-89597085D01*
X143380877Y-89597085D02*
X143342782Y-89673276D01*
X143342782Y-89673276D02*
X143342782Y-89749466D01*
X143342782Y-89749466D02*
X143380877Y-89863752D01*
X143380877Y-89863752D02*
X143838020Y-90320895D01*
X143838020Y-90320895D02*
X143342782Y-90320895D01*
D11*
X141985809Y-102308819D02*
X142461999Y-102308819D01*
X142461999Y-102308819D02*
X142461999Y-101308819D01*
X141652475Y-101785009D02*
X141319142Y-101785009D01*
X141176285Y-102308819D02*
X141652475Y-102308819D01*
X141652475Y-102308819D02*
X141652475Y-101308819D01*
X141652475Y-101308819D02*
X141176285Y-101308819D01*
X140747713Y-102308819D02*
X140747713Y-101308819D01*
X140747713Y-101308819D02*
X140509618Y-101308819D01*
X140509618Y-101308819D02*
X140366761Y-101356438D01*
X140366761Y-101356438D02*
X140271523Y-101451676D01*
X140271523Y-101451676D02*
X140223904Y-101546914D01*
X140223904Y-101546914D02*
X140176285Y-101737390D01*
X140176285Y-101737390D02*
X140176285Y-101880247D01*
X140176285Y-101880247D02*
X140223904Y-102070723D01*
X140223904Y-102070723D02*
X140271523Y-102165961D01*
X140271523Y-102165961D02*
X140366761Y-102261200D01*
X140366761Y-102261200D02*
X140509618Y-102308819D01*
X140509618Y-102308819D02*
X140747713Y-102308819D01*
X139985809Y-102404057D02*
X139223904Y-102404057D01*
X138985808Y-102308819D02*
X138985808Y-101308819D01*
X138414380Y-102308819D02*
X138842951Y-101737390D01*
X138414380Y-101308819D02*
X138985808Y-101880247D01*
X156900381Y-102308819D02*
X157376571Y-102308819D01*
X157376571Y-102308819D02*
X157376571Y-101308819D01*
X156567047Y-101785009D02*
X156233714Y-101785009D01*
X156090857Y-102308819D02*
X156567047Y-102308819D01*
X156567047Y-102308819D02*
X156567047Y-101308819D01*
X156567047Y-101308819D02*
X156090857Y-101308819D01*
X155662285Y-102308819D02*
X155662285Y-101308819D01*
X155662285Y-101308819D02*
X155424190Y-101308819D01*
X155424190Y-101308819D02*
X155281333Y-101356438D01*
X155281333Y-101356438D02*
X155186095Y-101451676D01*
X155186095Y-101451676D02*
X155138476Y-101546914D01*
X155138476Y-101546914D02*
X155090857Y-101737390D01*
X155090857Y-101737390D02*
X155090857Y-101880247D01*
X155090857Y-101880247D02*
X155138476Y-102070723D01*
X155138476Y-102070723D02*
X155186095Y-102165961D01*
X155186095Y-102165961D02*
X155281333Y-102261200D01*
X155281333Y-102261200D02*
X155424190Y-102308819D01*
X155424190Y-102308819D02*
X155662285Y-102308819D01*
X154900381Y-102404057D02*
X154138476Y-102404057D01*
X153947999Y-102023104D02*
X153471809Y-102023104D01*
X154043237Y-102308819D02*
X153709904Y-101308819D01*
X153709904Y-101308819D02*
X153376571Y-102308819D01*
D10*
X151724687Y-90320895D02*
X152181830Y-90320895D01*
X151953258Y-90320895D02*
X151953258Y-89520895D01*
X151953258Y-89520895D02*
X152029449Y-89635180D01*
X152029449Y-89635180D02*
X152105639Y-89711371D01*
X152105639Y-89711371D02*
X152181830Y-89749466D01*
D11*
X148867714Y-99673009D02*
X149201047Y-99673009D01*
X149201047Y-100196819D02*
X149201047Y-99196819D01*
X149201047Y-99196819D02*
X148724857Y-99196819D01*
X148010571Y-99673009D02*
X148343904Y-99673009D01*
X148343904Y-100196819D02*
X148343904Y-99196819D01*
X148343904Y-99196819D02*
X147867714Y-99196819D01*
X146915333Y-100101580D02*
X146962952Y-100149200D01*
X146962952Y-100149200D02*
X147105809Y-100196819D01*
X147105809Y-100196819D02*
X147201047Y-100196819D01*
X147201047Y-100196819D02*
X147343904Y-100149200D01*
X147343904Y-100149200D02*
X147439142Y-100053961D01*
X147439142Y-100053961D02*
X147486761Y-99958723D01*
X147486761Y-99958723D02*
X147534380Y-99768247D01*
X147534380Y-99768247D02*
X147534380Y-99625390D01*
X147534380Y-99625390D02*
X147486761Y-99434914D01*
X147486761Y-99434914D02*
X147439142Y-99339676D01*
X147439142Y-99339676D02*
X147343904Y-99244438D01*
X147343904Y-99244438D02*
X147201047Y-99196819D01*
X147201047Y-99196819D02*
X147105809Y-99196819D01*
X147105809Y-99196819D02*
X146962952Y-99244438D01*
X146962952Y-99244438D02*
X146915333Y-99292057D01*
X156680819Y-92638666D02*
X157395104Y-92638666D01*
X157395104Y-92638666D02*
X157537961Y-92591047D01*
X157537961Y-92591047D02*
X157633200Y-92495809D01*
X157633200Y-92495809D02*
X157680819Y-92352952D01*
X157680819Y-92352952D02*
X157680819Y-92257714D01*
X157680819Y-93114857D02*
X156680819Y-93114857D01*
X156680819Y-93114857D02*
X156680819Y-93495809D01*
X156680819Y-93495809D02*
X156728438Y-93591047D01*
X156728438Y-93591047D02*
X156776057Y-93638666D01*
X156776057Y-93638666D02*
X156871295Y-93686285D01*
X156871295Y-93686285D02*
X157014152Y-93686285D01*
X157014152Y-93686285D02*
X157109390Y-93638666D01*
X157109390Y-93638666D02*
X157157009Y-93591047D01*
X157157009Y-93591047D02*
X157204628Y-93495809D01*
X157204628Y-93495809D02*
X157204628Y-93114857D01*
X157680819Y-94638666D02*
X157680819Y-94067238D01*
X157680819Y-94352952D02*
X156680819Y-94352952D01*
X156680819Y-94352952D02*
X156823676Y-94257714D01*
X156823676Y-94257714D02*
X156918914Y-94162476D01*
X156918914Y-94162476D02*
X156966533Y-94067238D01*
X153328666Y-85449580D02*
X153376285Y-85497200D01*
X153376285Y-85497200D02*
X153519142Y-85544819D01*
X153519142Y-85544819D02*
X153614380Y-85544819D01*
X153614380Y-85544819D02*
X153757237Y-85497200D01*
X153757237Y-85497200D02*
X153852475Y-85401961D01*
X153852475Y-85401961D02*
X153900094Y-85306723D01*
X153900094Y-85306723D02*
X153947713Y-85116247D01*
X153947713Y-85116247D02*
X153947713Y-84973390D01*
X153947713Y-84973390D02*
X153900094Y-84782914D01*
X153900094Y-84782914D02*
X153852475Y-84687676D01*
X153852475Y-84687676D02*
X153757237Y-84592438D01*
X153757237Y-84592438D02*
X153614380Y-84544819D01*
X153614380Y-84544819D02*
X153519142Y-84544819D01*
X153519142Y-84544819D02*
X153376285Y-84592438D01*
X153376285Y-84592438D02*
X153328666Y-84640057D01*
X152376285Y-85544819D02*
X152947713Y-85544819D01*
X152661999Y-85544819D02*
X152661999Y-84544819D01*
X152661999Y-84544819D02*
X152757237Y-84687676D01*
X152757237Y-84687676D02*
X152852475Y-84782914D01*
X152852475Y-84782914D02*
X152947713Y-84830533D01*
X135585580Y-94321333D02*
X135633200Y-94273714D01*
X135633200Y-94273714D02*
X135680819Y-94130857D01*
X135680819Y-94130857D02*
X135680819Y-94035619D01*
X135680819Y-94035619D02*
X135633200Y-93892762D01*
X135633200Y-93892762D02*
X135537961Y-93797524D01*
X135537961Y-93797524D02*
X135442723Y-93749905D01*
X135442723Y-93749905D02*
X135252247Y-93702286D01*
X135252247Y-93702286D02*
X135109390Y-93702286D01*
X135109390Y-93702286D02*
X134918914Y-93749905D01*
X134918914Y-93749905D02*
X134823676Y-93797524D01*
X134823676Y-93797524D02*
X134728438Y-93892762D01*
X134728438Y-93892762D02*
X134680819Y-94035619D01*
X134680819Y-94035619D02*
X134680819Y-94130857D01*
X134680819Y-94130857D02*
X134728438Y-94273714D01*
X134728438Y-94273714D02*
X134776057Y-94321333D01*
X135014152Y-95178476D02*
X135680819Y-95178476D01*
X134633200Y-94940381D02*
X135347485Y-94702286D01*
X135347485Y-94702286D02*
X135347485Y-95321333D01*
X158316819Y-98385333D02*
X157840628Y-98052000D01*
X158316819Y-97813905D02*
X157316819Y-97813905D01*
X157316819Y-97813905D02*
X157316819Y-98194857D01*
X157316819Y-98194857D02*
X157364438Y-98290095D01*
X157364438Y-98290095D02*
X157412057Y-98337714D01*
X157412057Y-98337714D02*
X157507295Y-98385333D01*
X157507295Y-98385333D02*
X157650152Y-98385333D01*
X157650152Y-98385333D02*
X157745390Y-98337714D01*
X157745390Y-98337714D02*
X157793009Y-98290095D01*
X157793009Y-98290095D02*
X157840628Y-98194857D01*
X157840628Y-98194857D02*
X157840628Y-97813905D01*
X158316819Y-99337714D02*
X158316819Y-98766286D01*
X158316819Y-99052000D02*
X157316819Y-99052000D01*
X157316819Y-99052000D02*
X157459676Y-98956762D01*
X157459676Y-98956762D02*
X157554914Y-98861524D01*
X157554914Y-98861524D02*
X157602533Y-98766286D01*
X153328666Y-87735580D02*
X153376285Y-87783200D01*
X153376285Y-87783200D02*
X153519142Y-87830819D01*
X153519142Y-87830819D02*
X153614380Y-87830819D01*
X153614380Y-87830819D02*
X153757237Y-87783200D01*
X153757237Y-87783200D02*
X153852475Y-87687961D01*
X153852475Y-87687961D02*
X153900094Y-87592723D01*
X153900094Y-87592723D02*
X153947713Y-87402247D01*
X153947713Y-87402247D02*
X153947713Y-87259390D01*
X153947713Y-87259390D02*
X153900094Y-87068914D01*
X153900094Y-87068914D02*
X153852475Y-86973676D01*
X153852475Y-86973676D02*
X153757237Y-86878438D01*
X153757237Y-86878438D02*
X153614380Y-86830819D01*
X153614380Y-86830819D02*
X153519142Y-86830819D01*
X153519142Y-86830819D02*
X153376285Y-86878438D01*
X153376285Y-86878438D02*
X153328666Y-86926057D01*
X152947713Y-86926057D02*
X152900094Y-86878438D01*
X152900094Y-86878438D02*
X152804856Y-86830819D01*
X152804856Y-86830819D02*
X152566761Y-86830819D01*
X152566761Y-86830819D02*
X152471523Y-86878438D01*
X152471523Y-86878438D02*
X152423904Y-86926057D01*
X152423904Y-86926057D02*
X152376285Y-87021295D01*
X152376285Y-87021295D02*
X152376285Y-87116533D01*
X152376285Y-87116533D02*
X152423904Y-87259390D01*
X152423904Y-87259390D02*
X152995332Y-87830819D01*
X152995332Y-87830819D02*
X152376285Y-87830819D01*
X135331580Y-89749333D02*
X135379200Y-89701714D01*
X135379200Y-89701714D02*
X135426819Y-89558857D01*
X135426819Y-89558857D02*
X135426819Y-89463619D01*
X135426819Y-89463619D02*
X135379200Y-89320762D01*
X135379200Y-89320762D02*
X135283961Y-89225524D01*
X135283961Y-89225524D02*
X135188723Y-89177905D01*
X135188723Y-89177905D02*
X134998247Y-89130286D01*
X134998247Y-89130286D02*
X134855390Y-89130286D01*
X134855390Y-89130286D02*
X134664914Y-89177905D01*
X134664914Y-89177905D02*
X134569676Y-89225524D01*
X134569676Y-89225524D02*
X134474438Y-89320762D01*
X134474438Y-89320762D02*
X134426819Y-89463619D01*
X134426819Y-89463619D02*
X134426819Y-89558857D01*
X134426819Y-89558857D02*
X134474438Y-89701714D01*
X134474438Y-89701714D02*
X134522057Y-89749333D01*
X134426819Y-90082667D02*
X134426819Y-90701714D01*
X134426819Y-90701714D02*
X134807771Y-90368381D01*
X134807771Y-90368381D02*
X134807771Y-90511238D01*
X134807771Y-90511238D02*
X134855390Y-90606476D01*
X134855390Y-90606476D02*
X134903009Y-90654095D01*
X134903009Y-90654095D02*
X134998247Y-90701714D01*
X134998247Y-90701714D02*
X135236342Y-90701714D01*
X135236342Y-90701714D02*
X135331580Y-90654095D01*
X135331580Y-90654095D02*
X135379200Y-90606476D01*
X135379200Y-90606476D02*
X135426819Y-90511238D01*
X135426819Y-90511238D02*
X135426819Y-90225524D01*
X135426819Y-90225524D02*
X135379200Y-90130286D01*
X135379200Y-90130286D02*
X135331580Y-90082667D01*
%TO.C,LCD1*%
D12*
X143832000Y-91192000D02*
X152332000Y-91192000D01*
X152332000Y-104492000D01*
X143832000Y-104492000D01*
X143832000Y-91192000D01*
%TO.C,JP1*%
X159212000Y-94872000D02*
X159812000Y-94872000D01*
X160512000Y-94172000D02*
X160512000Y-92772000D01*
X158512000Y-92772000D02*
X158512000Y-94172000D01*
X159812000Y-92072000D02*
X159212000Y-92072000D01*
X160512000Y-94172000D02*
G75*
G02*
X159812000Y-94872000I-699999J-1D01*
G01*
X159212000Y-94872000D02*
G75*
G02*
X158512000Y-94172000I-1J699999D01*
G01*
X159812000Y-92072000D02*
G75*
G02*
X160512000Y-92772000I0J-700000D01*
G01*
X158512000Y-92772000D02*
G75*
G02*
X159212000Y-92072000I700000J0D01*
G01*
%TO.C,C1*%
X155738748Y-84265000D02*
X156261252Y-84265000D01*
X155738748Y-85735000D02*
X156261252Y-85735000D01*
%TO.C,J2*%
X137777300Y-80307100D02*
X137777300Y-81687100D01*
X139157300Y-80307100D02*
X137777300Y-80307100D01*
X140427300Y-80307100D02*
X140427300Y-83067100D01*
X140427300Y-80307100D02*
X158317300Y-80307100D01*
X140427300Y-83067100D02*
X158317300Y-83067100D01*
X158317300Y-80307100D02*
X158317300Y-83067100D01*
%TO.C,C4*%
X136171000Y-94226748D02*
X136171000Y-94749252D01*
X137641000Y-94226748D02*
X137641000Y-94749252D01*
%TO.C,R1*%
X158777000Y-98324936D02*
X158777000Y-98779064D01*
X160247000Y-98324936D02*
X160247000Y-98779064D01*
%TO.C,C2*%
X155738748Y-86765000D02*
X156261252Y-86765000D01*
X155738748Y-88235000D02*
X156261252Y-88235000D01*
%TO.C,C3*%
X135917000Y-89654748D02*
X135917000Y-90177252D01*
X137387000Y-89654748D02*
X137387000Y-90177252D01*
%TD*%
M02*
