%TF.GenerationSoftware,KiCad,Pcbnew,9.0.6*%
%TF.CreationDate,2026-04-03T11:42:21-04:00*%
%TF.ProjectId,COGDisplayBreakout,434f4744-6973-4706-9c61-79427265616b,0.1*%
%TF.SameCoordinates,Original*%
%TF.FileFunction,Other,User*%
%FSLAX46Y46*%
G04 Gerber Fmt 4.6, Leading zero omitted, Abs format (unit mm)*
G04 Created by KiCad (PCBNEW 9.0.6) date 2026-04-03 11:42:21*
%MOMM*%
%LPD*%
G01*
G04 APERTURE LIST*
%ADD10C,0.050000*%
G04 APERTURE END LIST*
%TO.C,LCD1*%
D10*
X143832000Y-91192000D02*
X152332000Y-91192000D01*
X152332000Y-106692000D01*
X143832000Y-106692000D01*
X143832000Y-91192000D01*
%TO.C,JP1*%
X160762000Y-95122000D02*
X158262000Y-95122000D01*
X160762000Y-95122000D02*
X160762000Y-91822000D01*
X158262000Y-91822000D02*
X158262000Y-95122000D01*
X158262000Y-91822000D02*
X160762000Y-91822000D01*
%TO.C,C1*%
X154300000Y-84020000D02*
X154300000Y-85980000D01*
X154300000Y-85980000D02*
X157700000Y-85980000D01*
X157700000Y-84020000D02*
X154300000Y-84020000D01*
X157700000Y-85980000D02*
X157700000Y-84020000D01*
%TO.C,FID1*%
X161000000Y-87500000D02*
G75*
G02*
X159000000Y-87500000I-1000000J0D01*
G01*
X159000000Y-87500000D02*
G75*
G02*
X161000000Y-87500000I1000000J0D01*
G01*
%TO.C,FID2*%
X137000000Y-103500000D02*
G75*
G02*
X135000000Y-103500000I-1000000J0D01*
G01*
X135000000Y-103500000D02*
G75*
G02*
X137000000Y-103500000I1000000J0D01*
G01*
%TO.C,J2*%
X137387300Y-79917100D02*
X158707300Y-79917100D01*
X137387300Y-83457100D02*
X137387300Y-79917100D01*
X158707300Y-79917100D02*
X158707300Y-83457100D01*
X158707300Y-83457100D02*
X137387300Y-83457100D01*
%TO.C,C4*%
X135926000Y-92788000D02*
X135926000Y-96188000D01*
X135926000Y-96188000D02*
X137886000Y-96188000D01*
X137886000Y-92788000D02*
X135926000Y-92788000D01*
X137886000Y-96188000D02*
X137886000Y-92788000D01*
%TO.C,R1*%
X158562000Y-96872000D02*
X158562000Y-100232000D01*
X158562000Y-100232000D02*
X160462000Y-100232000D01*
X160462000Y-96872000D02*
X158562000Y-96872000D01*
X160462000Y-100232000D02*
X160462000Y-96872000D01*
%TO.C,C2*%
X154300000Y-86520000D02*
X154300000Y-88480000D01*
X154300000Y-88480000D02*
X157700000Y-88480000D01*
X157700000Y-86520000D02*
X154300000Y-86520000D01*
X157700000Y-88480000D02*
X157700000Y-86520000D01*
%TO.C,C3*%
X135672000Y-88216000D02*
X135672000Y-91616000D01*
X135672000Y-91616000D02*
X137632000Y-91616000D01*
X137632000Y-88216000D02*
X135672000Y-88216000D01*
X137632000Y-91616000D02*
X137632000Y-88216000D01*
%TD*%
M02*
