%TF.GenerationSoftware,KiCad,Pcbnew,9.0.6*%
%TF.CreationDate,2026-04-03T11:42:21-04:00*%
%TF.ProjectId,COGDisplayBreakout,434f4744-6973-4706-9c61-79427265616b,0.1*%
%TF.SameCoordinates,Original*%
%TF.FileFunction,AssemblyDrawing,Bot*%
%FSLAX46Y46*%
G04 Gerber Fmt 4.6, Leading zero omitted, Abs format (unit mm)*
G04 Created by KiCad (PCBNEW 9.0.6) date 2026-04-03 11:42:21*
%MOMM*%
%LPD*%
G01*
G04 APERTURE LIST*
%ADD10C,0.150000*%
%ADD11C,0.080000*%
%ADD12C,0.060000*%
%ADD13C,0.100000*%
G04 APERTURE END LIST*
D10*
X158019200Y-85495808D02*
X158066819Y-85638665D01*
X158066819Y-85638665D02*
X158066819Y-85876760D01*
X158066819Y-85876760D02*
X158019200Y-85971998D01*
X158019200Y-85971998D02*
X157971580Y-86019617D01*
X157971580Y-86019617D02*
X157876342Y-86067236D01*
X157876342Y-86067236D02*
X157781104Y-86067236D01*
X157781104Y-86067236D02*
X157685866Y-86019617D01*
X157685866Y-86019617D02*
X157638247Y-85971998D01*
X157638247Y-85971998D02*
X157590628Y-85876760D01*
X157590628Y-85876760D02*
X157543009Y-85686284D01*
X157543009Y-85686284D02*
X157495390Y-85591046D01*
X157495390Y-85591046D02*
X157447771Y-85543427D01*
X157447771Y-85543427D02*
X157352533Y-85495808D01*
X157352533Y-85495808D02*
X157257295Y-85495808D01*
X157257295Y-85495808D02*
X157162057Y-85543427D01*
X157162057Y-85543427D02*
X157114438Y-85591046D01*
X157114438Y-85591046D02*
X157066819Y-85686284D01*
X157066819Y-85686284D02*
X157066819Y-85924379D01*
X157066819Y-85924379D02*
X157114438Y-86067236D01*
X158066819Y-86638665D02*
X158019200Y-86543427D01*
X158019200Y-86543427D02*
X157971580Y-86495808D01*
X157971580Y-86495808D02*
X157876342Y-86448189D01*
X157876342Y-86448189D02*
X157590628Y-86448189D01*
X157590628Y-86448189D02*
X157495390Y-86495808D01*
X157495390Y-86495808D02*
X157447771Y-86543427D01*
X157447771Y-86543427D02*
X157400152Y-86638665D01*
X157400152Y-86638665D02*
X157400152Y-86781522D01*
X157400152Y-86781522D02*
X157447771Y-86876760D01*
X157447771Y-86876760D02*
X157495390Y-86924379D01*
X157495390Y-86924379D02*
X157590628Y-86971998D01*
X157590628Y-86971998D02*
X157876342Y-86971998D01*
X157876342Y-86971998D02*
X157971580Y-86924379D01*
X157971580Y-86924379D02*
X158019200Y-86876760D01*
X158019200Y-86876760D02*
X158066819Y-86781522D01*
X158066819Y-86781522D02*
X158066819Y-86638665D01*
X158066819Y-87543427D02*
X158019200Y-87448189D01*
X158019200Y-87448189D02*
X157923961Y-87400570D01*
X157923961Y-87400570D02*
X157066819Y-87400570D01*
X158066819Y-88352951D02*
X157066819Y-88352951D01*
X158019200Y-88352951D02*
X158066819Y-88257713D01*
X158066819Y-88257713D02*
X158066819Y-88067237D01*
X158066819Y-88067237D02*
X158019200Y-87971999D01*
X158019200Y-87971999D02*
X157971580Y-87924380D01*
X157971580Y-87924380D02*
X157876342Y-87876761D01*
X157876342Y-87876761D02*
X157590628Y-87876761D01*
X157590628Y-87876761D02*
X157495390Y-87924380D01*
X157495390Y-87924380D02*
X157447771Y-87971999D01*
X157447771Y-87971999D02*
X157400152Y-88067237D01*
X157400152Y-88067237D02*
X157400152Y-88257713D01*
X157400152Y-88257713D02*
X157447771Y-88352951D01*
X158019200Y-89210094D02*
X158066819Y-89114856D01*
X158066819Y-89114856D02*
X158066819Y-88924380D01*
X158066819Y-88924380D02*
X158019200Y-88829142D01*
X158019200Y-88829142D02*
X157923961Y-88781523D01*
X157923961Y-88781523D02*
X157543009Y-88781523D01*
X157543009Y-88781523D02*
X157447771Y-88829142D01*
X157447771Y-88829142D02*
X157400152Y-88924380D01*
X157400152Y-88924380D02*
X157400152Y-89114856D01*
X157400152Y-89114856D02*
X157447771Y-89210094D01*
X157447771Y-89210094D02*
X157543009Y-89257713D01*
X157543009Y-89257713D02*
X157638247Y-89257713D01*
X157638247Y-89257713D02*
X157733485Y-88781523D01*
X158066819Y-89686285D02*
X157400152Y-89686285D01*
X157590628Y-89686285D02*
X157495390Y-89733904D01*
X157495390Y-89733904D02*
X157447771Y-89781523D01*
X157447771Y-89781523D02*
X157400152Y-89876761D01*
X157400152Y-89876761D02*
X157400152Y-89971999D01*
X157066819Y-90591047D02*
X157781104Y-90591047D01*
X157781104Y-90591047D02*
X157923961Y-90543428D01*
X157923961Y-90543428D02*
X158019200Y-90448190D01*
X158019200Y-90448190D02*
X158066819Y-90305333D01*
X158066819Y-90305333D02*
X158066819Y-90210095D01*
X157400152Y-91495809D02*
X158066819Y-91495809D01*
X157400152Y-91067238D02*
X157923961Y-91067238D01*
X157923961Y-91067238D02*
X158019200Y-91114857D01*
X158019200Y-91114857D02*
X158066819Y-91210095D01*
X158066819Y-91210095D02*
X158066819Y-91352952D01*
X158066819Y-91352952D02*
X158019200Y-91448190D01*
X158019200Y-91448190D02*
X157971580Y-91495809D01*
X158066819Y-91972000D02*
X157400152Y-91972000D01*
X157495390Y-91972000D02*
X157447771Y-92019619D01*
X157447771Y-92019619D02*
X157400152Y-92114857D01*
X157400152Y-92114857D02*
X157400152Y-92257714D01*
X157400152Y-92257714D02*
X157447771Y-92352952D01*
X157447771Y-92352952D02*
X157543009Y-92400571D01*
X157543009Y-92400571D02*
X158066819Y-92400571D01*
X157543009Y-92400571D02*
X157447771Y-92448190D01*
X157447771Y-92448190D02*
X157400152Y-92543428D01*
X157400152Y-92543428D02*
X157400152Y-92686285D01*
X157400152Y-92686285D02*
X157447771Y-92781524D01*
X157447771Y-92781524D02*
X157543009Y-92829143D01*
X157543009Y-92829143D02*
X158066819Y-92829143D01*
X157400152Y-93305333D02*
X158400152Y-93305333D01*
X157447771Y-93305333D02*
X157400152Y-93400571D01*
X157400152Y-93400571D02*
X157400152Y-93591047D01*
X157400152Y-93591047D02*
X157447771Y-93686285D01*
X157447771Y-93686285D02*
X157495390Y-93733904D01*
X157495390Y-93733904D02*
X157590628Y-93781523D01*
X157590628Y-93781523D02*
X157876342Y-93781523D01*
X157876342Y-93781523D02*
X157971580Y-93733904D01*
X157971580Y-93733904D02*
X158019200Y-93686285D01*
X158019200Y-93686285D02*
X158066819Y-93591047D01*
X158066819Y-93591047D02*
X158066819Y-93400571D01*
X158066819Y-93400571D02*
X158019200Y-93305333D01*
X158019200Y-94591047D02*
X158066819Y-94495809D01*
X158066819Y-94495809D02*
X158066819Y-94305333D01*
X158066819Y-94305333D02*
X158019200Y-94210095D01*
X158019200Y-94210095D02*
X157923961Y-94162476D01*
X157923961Y-94162476D02*
X157543009Y-94162476D01*
X157543009Y-94162476D02*
X157447771Y-94210095D01*
X157447771Y-94210095D02*
X157400152Y-94305333D01*
X157400152Y-94305333D02*
X157400152Y-94495809D01*
X157400152Y-94495809D02*
X157447771Y-94591047D01*
X157447771Y-94591047D02*
X157543009Y-94638666D01*
X157543009Y-94638666D02*
X157638247Y-94638666D01*
X157638247Y-94638666D02*
X157733485Y-94162476D01*
X158066819Y-95067238D02*
X157400152Y-95067238D01*
X157590628Y-95067238D02*
X157495390Y-95114857D01*
X157495390Y-95114857D02*
X157447771Y-95162476D01*
X157447771Y-95162476D02*
X157400152Y-95257714D01*
X157400152Y-95257714D02*
X157400152Y-95352952D01*
X158162057Y-95448191D02*
X158162057Y-96210095D01*
X157162057Y-96400572D02*
X157114438Y-96448191D01*
X157114438Y-96448191D02*
X157066819Y-96543429D01*
X157066819Y-96543429D02*
X157066819Y-96781524D01*
X157066819Y-96781524D02*
X157114438Y-96876762D01*
X157114438Y-96876762D02*
X157162057Y-96924381D01*
X157162057Y-96924381D02*
X157257295Y-96972000D01*
X157257295Y-96972000D02*
X157352533Y-96972000D01*
X157352533Y-96972000D02*
X157495390Y-96924381D01*
X157495390Y-96924381D02*
X158066819Y-96352953D01*
X158066819Y-96352953D02*
X158066819Y-96972000D01*
X158162057Y-97162477D02*
X158162057Y-97924381D01*
X157066819Y-98352953D02*
X157066819Y-98543429D01*
X157066819Y-98543429D02*
X157114438Y-98638667D01*
X157114438Y-98638667D02*
X157209676Y-98733905D01*
X157209676Y-98733905D02*
X157400152Y-98781524D01*
X157400152Y-98781524D02*
X157733485Y-98781524D01*
X157733485Y-98781524D02*
X157923961Y-98733905D01*
X157923961Y-98733905D02*
X158019200Y-98638667D01*
X158019200Y-98638667D02*
X158066819Y-98543429D01*
X158066819Y-98543429D02*
X158066819Y-98352953D01*
X158066819Y-98352953D02*
X158019200Y-98257715D01*
X158019200Y-98257715D02*
X157923961Y-98162477D01*
X157923961Y-98162477D02*
X157733485Y-98114858D01*
X157733485Y-98114858D02*
X157400152Y-98114858D01*
X157400152Y-98114858D02*
X157209676Y-98162477D01*
X157209676Y-98162477D02*
X157114438Y-98257715D01*
X157114438Y-98257715D02*
X157066819Y-98352953D01*
X157400152Y-99210096D02*
X158400152Y-99210096D01*
X157447771Y-99210096D02*
X157400152Y-99305334D01*
X157400152Y-99305334D02*
X157400152Y-99495810D01*
X157400152Y-99495810D02*
X157447771Y-99591048D01*
X157447771Y-99591048D02*
X157495390Y-99638667D01*
X157495390Y-99638667D02*
X157590628Y-99686286D01*
X157590628Y-99686286D02*
X157876342Y-99686286D01*
X157876342Y-99686286D02*
X157971580Y-99638667D01*
X157971580Y-99638667D02*
X158019200Y-99591048D01*
X158019200Y-99591048D02*
X158066819Y-99495810D01*
X158066819Y-99495810D02*
X158066819Y-99305334D01*
X158066819Y-99305334D02*
X158019200Y-99210096D01*
X158019200Y-100495810D02*
X158066819Y-100400572D01*
X158066819Y-100400572D02*
X158066819Y-100210096D01*
X158066819Y-100210096D02*
X158019200Y-100114858D01*
X158019200Y-100114858D02*
X157923961Y-100067239D01*
X157923961Y-100067239D02*
X157543009Y-100067239D01*
X157543009Y-100067239D02*
X157447771Y-100114858D01*
X157447771Y-100114858D02*
X157400152Y-100210096D01*
X157400152Y-100210096D02*
X157400152Y-100400572D01*
X157400152Y-100400572D02*
X157447771Y-100495810D01*
X157447771Y-100495810D02*
X157543009Y-100543429D01*
X157543009Y-100543429D02*
X157638247Y-100543429D01*
X157638247Y-100543429D02*
X157733485Y-100067239D01*
X157400152Y-100972001D02*
X158066819Y-100972001D01*
X157495390Y-100972001D02*
X157447771Y-101019620D01*
X157447771Y-101019620D02*
X157400152Y-101114858D01*
X157400152Y-101114858D02*
X157400152Y-101257715D01*
X157400152Y-101257715D02*
X157447771Y-101352953D01*
X157447771Y-101352953D02*
X157543009Y-101400572D01*
X157543009Y-101400572D02*
X158066819Y-101400572D01*
X157071428Y-83774819D02*
X157642856Y-83774819D01*
X157357142Y-83774819D02*
X157357142Y-82774819D01*
X157357142Y-82774819D02*
X157452380Y-82917676D01*
X157452380Y-82917676D02*
X157547618Y-83012914D01*
X157547618Y-83012914D02*
X157642856Y-83060533D01*
X156452380Y-82774819D02*
X156357142Y-82774819D01*
X156357142Y-82774819D02*
X156261904Y-82822438D01*
X156261904Y-82822438D02*
X156214285Y-82870057D01*
X156214285Y-82870057D02*
X156166666Y-82965295D01*
X156166666Y-82965295D02*
X156119047Y-83155771D01*
X156119047Y-83155771D02*
X156119047Y-83393866D01*
X156119047Y-83393866D02*
X156166666Y-83584342D01*
X156166666Y-83584342D02*
X156214285Y-83679580D01*
X156214285Y-83679580D02*
X156261904Y-83727200D01*
X156261904Y-83727200D02*
X156357142Y-83774819D01*
X156357142Y-83774819D02*
X156452380Y-83774819D01*
X156452380Y-83774819D02*
X156547618Y-83727200D01*
X156547618Y-83727200D02*
X156595237Y-83679580D01*
X156595237Y-83679580D02*
X156642856Y-83584342D01*
X156642856Y-83584342D02*
X156690475Y-83393866D01*
X156690475Y-83393866D02*
X156690475Y-83155771D01*
X156690475Y-83155771D02*
X156642856Y-82965295D01*
X156642856Y-82965295D02*
X156595237Y-82870057D01*
X156595237Y-82870057D02*
X156547618Y-82822438D01*
X156547618Y-82822438D02*
X156452380Y-82774819D01*
X155261904Y-83108152D02*
X155261904Y-83774819D01*
X155690475Y-83108152D02*
X155690475Y-83631961D01*
X155690475Y-83631961D02*
X155642856Y-83727200D01*
X155642856Y-83727200D02*
X155547618Y-83774819D01*
X155547618Y-83774819D02*
X155404761Y-83774819D01*
X155404761Y-83774819D02*
X155309523Y-83727200D01*
X155309523Y-83727200D02*
X155261904Y-83679580D01*
X154452380Y-83251009D02*
X154785713Y-83251009D01*
X154785713Y-83774819D02*
X154785713Y-82774819D01*
X154785713Y-82774819D02*
X154309523Y-82774819D01*
D11*
X156083333Y-85179530D02*
X156107142Y-85203340D01*
X156107142Y-85203340D02*
X156178571Y-85227149D01*
X156178571Y-85227149D02*
X156226190Y-85227149D01*
X156226190Y-85227149D02*
X156297618Y-85203340D01*
X156297618Y-85203340D02*
X156345237Y-85155720D01*
X156345237Y-85155720D02*
X156369047Y-85108101D01*
X156369047Y-85108101D02*
X156392856Y-85012863D01*
X156392856Y-85012863D02*
X156392856Y-84941435D01*
X156392856Y-84941435D02*
X156369047Y-84846197D01*
X156369047Y-84846197D02*
X156345237Y-84798578D01*
X156345237Y-84798578D02*
X156297618Y-84750959D01*
X156297618Y-84750959D02*
X156226190Y-84727149D01*
X156226190Y-84727149D02*
X156178571Y-84727149D01*
X156178571Y-84727149D02*
X156107142Y-84750959D01*
X156107142Y-84750959D02*
X156083333Y-84774768D01*
X155607142Y-85227149D02*
X155892856Y-85227149D01*
X155749999Y-85227149D02*
X155749999Y-84727149D01*
X155749999Y-84727149D02*
X155797618Y-84798578D01*
X155797618Y-84798578D02*
X155845237Y-84846197D01*
X155845237Y-84846197D02*
X155892856Y-84870006D01*
D10*
X163452380Y-89131009D02*
X163785713Y-89131009D01*
X163785713Y-89654819D02*
X163785713Y-88654819D01*
X163785713Y-88654819D02*
X163309523Y-88654819D01*
X162928570Y-89654819D02*
X162928570Y-88654819D01*
X162452380Y-89654819D02*
X162452380Y-88654819D01*
X162452380Y-88654819D02*
X162214285Y-88654819D01*
X162214285Y-88654819D02*
X162071428Y-88702438D01*
X162071428Y-88702438D02*
X161976190Y-88797676D01*
X161976190Y-88797676D02*
X161928571Y-88892914D01*
X161928571Y-88892914D02*
X161880952Y-89083390D01*
X161880952Y-89083390D02*
X161880952Y-89226247D01*
X161880952Y-89226247D02*
X161928571Y-89416723D01*
X161928571Y-89416723D02*
X161976190Y-89511961D01*
X161976190Y-89511961D02*
X162071428Y-89607200D01*
X162071428Y-89607200D02*
X162214285Y-89654819D01*
X162214285Y-89654819D02*
X162452380Y-89654819D01*
X161452380Y-88654819D02*
X161452380Y-89464342D01*
X161452380Y-89464342D02*
X161404761Y-89559580D01*
X161404761Y-89559580D02*
X161357142Y-89607200D01*
X161357142Y-89607200D02*
X161261904Y-89654819D01*
X161261904Y-89654819D02*
X161071428Y-89654819D01*
X161071428Y-89654819D02*
X160976190Y-89607200D01*
X160976190Y-89607200D02*
X160928571Y-89559580D01*
X160928571Y-89559580D02*
X160880952Y-89464342D01*
X160880952Y-89464342D02*
X160880952Y-88654819D01*
X159833333Y-89559580D02*
X159880952Y-89607200D01*
X159880952Y-89607200D02*
X160023809Y-89654819D01*
X160023809Y-89654819D02*
X160119047Y-89654819D01*
X160119047Y-89654819D02*
X160261904Y-89607200D01*
X160261904Y-89607200D02*
X160357142Y-89511961D01*
X160357142Y-89511961D02*
X160404761Y-89416723D01*
X160404761Y-89416723D02*
X160452380Y-89226247D01*
X160452380Y-89226247D02*
X160452380Y-89083390D01*
X160452380Y-89083390D02*
X160404761Y-88892914D01*
X160404761Y-88892914D02*
X160357142Y-88797676D01*
X160357142Y-88797676D02*
X160261904Y-88702438D01*
X160261904Y-88702438D02*
X160119047Y-88654819D01*
X160119047Y-88654819D02*
X160023809Y-88654819D01*
X160023809Y-88654819D02*
X159880952Y-88702438D01*
X159880952Y-88702438D02*
X159833333Y-88750057D01*
X159404761Y-89654819D02*
X159404761Y-88654819D01*
X158976190Y-89369104D02*
X158500000Y-89369104D01*
X159071428Y-89654819D02*
X158738095Y-88654819D01*
X158738095Y-88654819D02*
X158404762Y-89654819D01*
X157595238Y-89654819D02*
X158071428Y-89654819D01*
X158071428Y-89654819D02*
X158071428Y-88654819D01*
X157309523Y-88654819D02*
X157309523Y-88845295D01*
X156928571Y-88654819D02*
X156928571Y-88845295D01*
X156547618Y-88654819D02*
X156547618Y-88845295D01*
X156166666Y-88654819D02*
X156166666Y-88845295D01*
D12*
X160407142Y-87473627D02*
X160533808Y-87473627D01*
X160533808Y-87672675D02*
X160533808Y-87292675D01*
X160533808Y-87292675D02*
X160352856Y-87292675D01*
X160208094Y-87672675D02*
X160208094Y-87292675D01*
X160027142Y-87672675D02*
X160027142Y-87292675D01*
X160027142Y-87292675D02*
X159936666Y-87292675D01*
X159936666Y-87292675D02*
X159882380Y-87310770D01*
X159882380Y-87310770D02*
X159846190Y-87346960D01*
X159846190Y-87346960D02*
X159828095Y-87383151D01*
X159828095Y-87383151D02*
X159809999Y-87455532D01*
X159809999Y-87455532D02*
X159809999Y-87509818D01*
X159809999Y-87509818D02*
X159828095Y-87582199D01*
X159828095Y-87582199D02*
X159846190Y-87618389D01*
X159846190Y-87618389D02*
X159882380Y-87654580D01*
X159882380Y-87654580D02*
X159936666Y-87672675D01*
X159936666Y-87672675D02*
X160027142Y-87672675D01*
X159448095Y-87672675D02*
X159665238Y-87672675D01*
X159556666Y-87672675D02*
X159556666Y-87292675D01*
X159556666Y-87292675D02*
X159592857Y-87346960D01*
X159592857Y-87346960D02*
X159629047Y-87383151D01*
X159629047Y-87383151D02*
X159665238Y-87401246D01*
D10*
X139452380Y-105131009D02*
X139785713Y-105131009D01*
X139785713Y-105654819D02*
X139785713Y-104654819D01*
X139785713Y-104654819D02*
X139309523Y-104654819D01*
X138928570Y-105654819D02*
X138928570Y-104654819D01*
X138452380Y-105654819D02*
X138452380Y-104654819D01*
X138452380Y-104654819D02*
X138214285Y-104654819D01*
X138214285Y-104654819D02*
X138071428Y-104702438D01*
X138071428Y-104702438D02*
X137976190Y-104797676D01*
X137976190Y-104797676D02*
X137928571Y-104892914D01*
X137928571Y-104892914D02*
X137880952Y-105083390D01*
X137880952Y-105083390D02*
X137880952Y-105226247D01*
X137880952Y-105226247D02*
X137928571Y-105416723D01*
X137928571Y-105416723D02*
X137976190Y-105511961D01*
X137976190Y-105511961D02*
X138071428Y-105607200D01*
X138071428Y-105607200D02*
X138214285Y-105654819D01*
X138214285Y-105654819D02*
X138452380Y-105654819D01*
X137452380Y-104654819D02*
X137452380Y-105464342D01*
X137452380Y-105464342D02*
X137404761Y-105559580D01*
X137404761Y-105559580D02*
X137357142Y-105607200D01*
X137357142Y-105607200D02*
X137261904Y-105654819D01*
X137261904Y-105654819D02*
X137071428Y-105654819D01*
X137071428Y-105654819D02*
X136976190Y-105607200D01*
X136976190Y-105607200D02*
X136928571Y-105559580D01*
X136928571Y-105559580D02*
X136880952Y-105464342D01*
X136880952Y-105464342D02*
X136880952Y-104654819D01*
X135833333Y-105559580D02*
X135880952Y-105607200D01*
X135880952Y-105607200D02*
X136023809Y-105654819D01*
X136023809Y-105654819D02*
X136119047Y-105654819D01*
X136119047Y-105654819D02*
X136261904Y-105607200D01*
X136261904Y-105607200D02*
X136357142Y-105511961D01*
X136357142Y-105511961D02*
X136404761Y-105416723D01*
X136404761Y-105416723D02*
X136452380Y-105226247D01*
X136452380Y-105226247D02*
X136452380Y-105083390D01*
X136452380Y-105083390D02*
X136404761Y-104892914D01*
X136404761Y-104892914D02*
X136357142Y-104797676D01*
X136357142Y-104797676D02*
X136261904Y-104702438D01*
X136261904Y-104702438D02*
X136119047Y-104654819D01*
X136119047Y-104654819D02*
X136023809Y-104654819D01*
X136023809Y-104654819D02*
X135880952Y-104702438D01*
X135880952Y-104702438D02*
X135833333Y-104750057D01*
X135404761Y-105654819D02*
X135404761Y-104654819D01*
X134976190Y-105369104D02*
X134500000Y-105369104D01*
X135071428Y-105654819D02*
X134738095Y-104654819D01*
X134738095Y-104654819D02*
X134404762Y-105654819D01*
X133595238Y-105654819D02*
X134071428Y-105654819D01*
X134071428Y-105654819D02*
X134071428Y-104654819D01*
X133309523Y-104654819D02*
X133309523Y-104845295D01*
X132928571Y-104654819D02*
X132928571Y-104845295D01*
X132547618Y-104654819D02*
X132547618Y-104845295D01*
X132166666Y-104654819D02*
X132166666Y-104845295D01*
D12*
X136407142Y-103473627D02*
X136533808Y-103473627D01*
X136533808Y-103672675D02*
X136533808Y-103292675D01*
X136533808Y-103292675D02*
X136352856Y-103292675D01*
X136208094Y-103672675D02*
X136208094Y-103292675D01*
X136027142Y-103672675D02*
X136027142Y-103292675D01*
X136027142Y-103292675D02*
X135936666Y-103292675D01*
X135936666Y-103292675D02*
X135882380Y-103310770D01*
X135882380Y-103310770D02*
X135846190Y-103346960D01*
X135846190Y-103346960D02*
X135828095Y-103383151D01*
X135828095Y-103383151D02*
X135809999Y-103455532D01*
X135809999Y-103455532D02*
X135809999Y-103509818D01*
X135809999Y-103509818D02*
X135828095Y-103582199D01*
X135828095Y-103582199D02*
X135846190Y-103618389D01*
X135846190Y-103618389D02*
X135882380Y-103654580D01*
X135882380Y-103654580D02*
X135936666Y-103672675D01*
X135936666Y-103672675D02*
X136027142Y-103672675D01*
X135665238Y-103328865D02*
X135647142Y-103310770D01*
X135647142Y-103310770D02*
X135610952Y-103292675D01*
X135610952Y-103292675D02*
X135520476Y-103292675D01*
X135520476Y-103292675D02*
X135484285Y-103310770D01*
X135484285Y-103310770D02*
X135466190Y-103328865D01*
X135466190Y-103328865D02*
X135448095Y-103365056D01*
X135448095Y-103365056D02*
X135448095Y-103401246D01*
X135448095Y-103401246D02*
X135466190Y-103455532D01*
X135466190Y-103455532D02*
X135683333Y-103672675D01*
X135683333Y-103672675D02*
X135448095Y-103672675D01*
D10*
X159724500Y-77687100D02*
X159772119Y-77829957D01*
X159772119Y-77829957D02*
X159772119Y-78068052D01*
X159772119Y-78068052D02*
X159724500Y-78163290D01*
X159724500Y-78163290D02*
X159676880Y-78210909D01*
X159676880Y-78210909D02*
X159581642Y-78258528D01*
X159581642Y-78258528D02*
X159486404Y-78258528D01*
X159486404Y-78258528D02*
X159391166Y-78210909D01*
X159391166Y-78210909D02*
X159343547Y-78163290D01*
X159343547Y-78163290D02*
X159295928Y-78068052D01*
X159295928Y-78068052D02*
X159248309Y-77877576D01*
X159248309Y-77877576D02*
X159200690Y-77782338D01*
X159200690Y-77782338D02*
X159153071Y-77734719D01*
X159153071Y-77734719D02*
X159057833Y-77687100D01*
X159057833Y-77687100D02*
X158962595Y-77687100D01*
X158962595Y-77687100D02*
X158867357Y-77734719D01*
X158867357Y-77734719D02*
X158819738Y-77782338D01*
X158819738Y-77782338D02*
X158772119Y-77877576D01*
X158772119Y-77877576D02*
X158772119Y-78115671D01*
X158772119Y-78115671D02*
X158819738Y-78258528D01*
X159772119Y-78687100D02*
X158772119Y-78687100D01*
X158772119Y-78687100D02*
X158772119Y-79068052D01*
X158772119Y-79068052D02*
X158819738Y-79163290D01*
X158819738Y-79163290D02*
X158867357Y-79210909D01*
X158867357Y-79210909D02*
X158962595Y-79258528D01*
X158962595Y-79258528D02*
X159105452Y-79258528D01*
X159105452Y-79258528D02*
X159200690Y-79210909D01*
X159200690Y-79210909D02*
X159248309Y-79163290D01*
X159248309Y-79163290D02*
X159295928Y-79068052D01*
X159295928Y-79068052D02*
X159295928Y-78687100D01*
X159772119Y-79687100D02*
X158772119Y-79687100D01*
X159867357Y-79925195D02*
X159867357Y-80687099D01*
X159772119Y-80925195D02*
X158772119Y-80925195D01*
X159248309Y-80925195D02*
X159248309Y-81496623D01*
X159772119Y-81496623D02*
X158772119Y-81496623D01*
X159724500Y-82353766D02*
X159772119Y-82258528D01*
X159772119Y-82258528D02*
X159772119Y-82068052D01*
X159772119Y-82068052D02*
X159724500Y-81972814D01*
X159724500Y-81972814D02*
X159629261Y-81925195D01*
X159629261Y-81925195D02*
X159248309Y-81925195D01*
X159248309Y-81925195D02*
X159153071Y-81972814D01*
X159153071Y-81972814D02*
X159105452Y-82068052D01*
X159105452Y-82068052D02*
X159105452Y-82258528D01*
X159105452Y-82258528D02*
X159153071Y-82353766D01*
X159153071Y-82353766D02*
X159248309Y-82401385D01*
X159248309Y-82401385D02*
X159343547Y-82401385D01*
X159343547Y-82401385D02*
X159438785Y-81925195D01*
X159772119Y-83258528D02*
X159248309Y-83258528D01*
X159248309Y-83258528D02*
X159153071Y-83210909D01*
X159153071Y-83210909D02*
X159105452Y-83115671D01*
X159105452Y-83115671D02*
X159105452Y-82925195D01*
X159105452Y-82925195D02*
X159153071Y-82829957D01*
X159724500Y-83258528D02*
X159772119Y-83163290D01*
X159772119Y-83163290D02*
X159772119Y-82925195D01*
X159772119Y-82925195D02*
X159724500Y-82829957D01*
X159724500Y-82829957D02*
X159629261Y-82782338D01*
X159629261Y-82782338D02*
X159534023Y-82782338D01*
X159534023Y-82782338D02*
X159438785Y-82829957D01*
X159438785Y-82829957D02*
X159391166Y-82925195D01*
X159391166Y-82925195D02*
X159391166Y-83163290D01*
X159391166Y-83163290D02*
X159343547Y-83258528D01*
X159772119Y-84163290D02*
X158772119Y-84163290D01*
X159724500Y-84163290D02*
X159772119Y-84068052D01*
X159772119Y-84068052D02*
X159772119Y-83877576D01*
X159772119Y-83877576D02*
X159724500Y-83782338D01*
X159724500Y-83782338D02*
X159676880Y-83734719D01*
X159676880Y-83734719D02*
X159581642Y-83687100D01*
X159581642Y-83687100D02*
X159295928Y-83687100D01*
X159295928Y-83687100D02*
X159200690Y-83734719D01*
X159200690Y-83734719D02*
X159153071Y-83782338D01*
X159153071Y-83782338D02*
X159105452Y-83877576D01*
X159105452Y-83877576D02*
X159105452Y-84068052D01*
X159105452Y-84068052D02*
X159153071Y-84163290D01*
X159724500Y-85020433D02*
X159772119Y-84925195D01*
X159772119Y-84925195D02*
X159772119Y-84734719D01*
X159772119Y-84734719D02*
X159724500Y-84639481D01*
X159724500Y-84639481D02*
X159629261Y-84591862D01*
X159629261Y-84591862D02*
X159248309Y-84591862D01*
X159248309Y-84591862D02*
X159153071Y-84639481D01*
X159153071Y-84639481D02*
X159105452Y-84734719D01*
X159105452Y-84734719D02*
X159105452Y-84925195D01*
X159105452Y-84925195D02*
X159153071Y-85020433D01*
X159153071Y-85020433D02*
X159248309Y-85068052D01*
X159248309Y-85068052D02*
X159343547Y-85068052D01*
X159343547Y-85068052D02*
X159438785Y-84591862D01*
X159772119Y-85496624D02*
X159105452Y-85496624D01*
X159295928Y-85496624D02*
X159200690Y-85544243D01*
X159200690Y-85544243D02*
X159153071Y-85591862D01*
X159153071Y-85591862D02*
X159105452Y-85687100D01*
X159105452Y-85687100D02*
X159105452Y-85782338D01*
X148380633Y-81141919D02*
X148380633Y-81856204D01*
X148380633Y-81856204D02*
X148428252Y-81999061D01*
X148428252Y-81999061D02*
X148523490Y-82094300D01*
X148523490Y-82094300D02*
X148666347Y-82141919D01*
X148666347Y-82141919D02*
X148761585Y-82141919D01*
X147952061Y-81237157D02*
X147904442Y-81189538D01*
X147904442Y-81189538D02*
X147809204Y-81141919D01*
X147809204Y-81141919D02*
X147571109Y-81141919D01*
X147571109Y-81141919D02*
X147475871Y-81189538D01*
X147475871Y-81189538D02*
X147428252Y-81237157D01*
X147428252Y-81237157D02*
X147380633Y-81332395D01*
X147380633Y-81332395D02*
X147380633Y-81427633D01*
X147380633Y-81427633D02*
X147428252Y-81570490D01*
X147428252Y-81570490D02*
X147999680Y-82141919D01*
X147999680Y-82141919D02*
X147380633Y-82141919D01*
X139040819Y-93892761D02*
X139040819Y-93321333D01*
X139040819Y-93607047D02*
X138040819Y-93607047D01*
X138040819Y-93607047D02*
X138183676Y-93511809D01*
X138183676Y-93511809D02*
X138278914Y-93416571D01*
X138278914Y-93416571D02*
X138326533Y-93321333D01*
X138374152Y-94749904D02*
X139040819Y-94749904D01*
X138374152Y-94321333D02*
X138897961Y-94321333D01*
X138897961Y-94321333D02*
X138993200Y-94368952D01*
X138993200Y-94368952D02*
X139040819Y-94464190D01*
X139040819Y-94464190D02*
X139040819Y-94607047D01*
X139040819Y-94607047D02*
X138993200Y-94702285D01*
X138993200Y-94702285D02*
X138945580Y-94749904D01*
X138517009Y-95559428D02*
X138517009Y-95226095D01*
X139040819Y-95226095D02*
X138040819Y-95226095D01*
X138040819Y-95226095D02*
X138040819Y-95702285D01*
D11*
X137085530Y-94404666D02*
X137109340Y-94380857D01*
X137109340Y-94380857D02*
X137133149Y-94309428D01*
X137133149Y-94309428D02*
X137133149Y-94261809D01*
X137133149Y-94261809D02*
X137109340Y-94190381D01*
X137109340Y-94190381D02*
X137061720Y-94142762D01*
X137061720Y-94142762D02*
X137014101Y-94118952D01*
X137014101Y-94118952D02*
X136918863Y-94095143D01*
X136918863Y-94095143D02*
X136847435Y-94095143D01*
X136847435Y-94095143D02*
X136752197Y-94118952D01*
X136752197Y-94118952D02*
X136704578Y-94142762D01*
X136704578Y-94142762D02*
X136656959Y-94190381D01*
X136656959Y-94190381D02*
X136633149Y-94261809D01*
X136633149Y-94261809D02*
X136633149Y-94309428D01*
X136633149Y-94309428D02*
X136656959Y-94380857D01*
X136656959Y-94380857D02*
X136680768Y-94404666D01*
X136799816Y-94833238D02*
X137133149Y-94833238D01*
X136609340Y-94714190D02*
X136966482Y-94595143D01*
X136966482Y-94595143D02*
X136966482Y-94904666D01*
D10*
X160712057Y-97290095D02*
X160664438Y-97337714D01*
X160664438Y-97337714D02*
X160616819Y-97432952D01*
X160616819Y-97432952D02*
X160616819Y-97671047D01*
X160616819Y-97671047D02*
X160664438Y-97766285D01*
X160664438Y-97766285D02*
X160712057Y-97813904D01*
X160712057Y-97813904D02*
X160807295Y-97861523D01*
X160807295Y-97861523D02*
X160902533Y-97861523D01*
X160902533Y-97861523D02*
X161045390Y-97813904D01*
X161045390Y-97813904D02*
X161616819Y-97242476D01*
X161616819Y-97242476D02*
X161616819Y-97861523D01*
X160616819Y-98480571D02*
X160616819Y-98575809D01*
X160616819Y-98575809D02*
X160664438Y-98671047D01*
X160664438Y-98671047D02*
X160712057Y-98718666D01*
X160712057Y-98718666D02*
X160807295Y-98766285D01*
X160807295Y-98766285D02*
X160997771Y-98813904D01*
X160997771Y-98813904D02*
X161235866Y-98813904D01*
X161235866Y-98813904D02*
X161426342Y-98766285D01*
X161426342Y-98766285D02*
X161521580Y-98718666D01*
X161521580Y-98718666D02*
X161569200Y-98671047D01*
X161569200Y-98671047D02*
X161616819Y-98575809D01*
X161616819Y-98575809D02*
X161616819Y-98480571D01*
X161616819Y-98480571D02*
X161569200Y-98385333D01*
X161569200Y-98385333D02*
X161521580Y-98337714D01*
X161521580Y-98337714D02*
X161426342Y-98290095D01*
X161426342Y-98290095D02*
X161235866Y-98242476D01*
X161235866Y-98242476D02*
X160997771Y-98242476D01*
X160997771Y-98242476D02*
X160807295Y-98290095D01*
X160807295Y-98290095D02*
X160712057Y-98337714D01*
X160712057Y-98337714D02*
X160664438Y-98385333D01*
X160664438Y-98385333D02*
X160616819Y-98480571D01*
X161616819Y-99813904D02*
X161140628Y-99480571D01*
X161616819Y-99242476D02*
X160616819Y-99242476D01*
X160616819Y-99242476D02*
X160616819Y-99623428D01*
X160616819Y-99623428D02*
X160664438Y-99718666D01*
X160664438Y-99718666D02*
X160712057Y-99766285D01*
X160712057Y-99766285D02*
X160807295Y-99813904D01*
X160807295Y-99813904D02*
X160950152Y-99813904D01*
X160950152Y-99813904D02*
X161045390Y-99766285D01*
X161045390Y-99766285D02*
X161093009Y-99718666D01*
X161093009Y-99718666D02*
X161140628Y-99623428D01*
X161140628Y-99623428D02*
X161140628Y-99242476D01*
D11*
X159739149Y-98468666D02*
X159501054Y-98302000D01*
X159739149Y-98182952D02*
X159239149Y-98182952D01*
X159239149Y-98182952D02*
X159239149Y-98373428D01*
X159239149Y-98373428D02*
X159262959Y-98421047D01*
X159262959Y-98421047D02*
X159286768Y-98444857D01*
X159286768Y-98444857D02*
X159334387Y-98468666D01*
X159334387Y-98468666D02*
X159405816Y-98468666D01*
X159405816Y-98468666D02*
X159453435Y-98444857D01*
X159453435Y-98444857D02*
X159477244Y-98421047D01*
X159477244Y-98421047D02*
X159501054Y-98373428D01*
X159501054Y-98373428D02*
X159501054Y-98182952D01*
X159739149Y-98944857D02*
X159739149Y-98659143D01*
X159739149Y-98802000D02*
X159239149Y-98802000D01*
X159239149Y-98802000D02*
X159310578Y-98754381D01*
X159310578Y-98754381D02*
X159358197Y-98706762D01*
X159358197Y-98706762D02*
X159382006Y-98659143D01*
D10*
X157547619Y-86274819D02*
X158119047Y-86274819D01*
X157833333Y-86274819D02*
X157833333Y-85274819D01*
X157833333Y-85274819D02*
X157928571Y-85417676D01*
X157928571Y-85417676D02*
X158023809Y-85512914D01*
X158023809Y-85512914D02*
X158119047Y-85560533D01*
X156928571Y-85274819D02*
X156833333Y-85274819D01*
X156833333Y-85274819D02*
X156738095Y-85322438D01*
X156738095Y-85322438D02*
X156690476Y-85370057D01*
X156690476Y-85370057D02*
X156642857Y-85465295D01*
X156642857Y-85465295D02*
X156595238Y-85655771D01*
X156595238Y-85655771D02*
X156595238Y-85893866D01*
X156595238Y-85893866D02*
X156642857Y-86084342D01*
X156642857Y-86084342D02*
X156690476Y-86179580D01*
X156690476Y-86179580D02*
X156738095Y-86227200D01*
X156738095Y-86227200D02*
X156833333Y-86274819D01*
X156833333Y-86274819D02*
X156928571Y-86274819D01*
X156928571Y-86274819D02*
X157023809Y-86227200D01*
X157023809Y-86227200D02*
X157071428Y-86179580D01*
X157071428Y-86179580D02*
X157119047Y-86084342D01*
X157119047Y-86084342D02*
X157166666Y-85893866D01*
X157166666Y-85893866D02*
X157166666Y-85655771D01*
X157166666Y-85655771D02*
X157119047Y-85465295D01*
X157119047Y-85465295D02*
X157071428Y-85370057D01*
X157071428Y-85370057D02*
X157023809Y-85322438D01*
X157023809Y-85322438D02*
X156928571Y-85274819D01*
X155976190Y-85274819D02*
X155880952Y-85274819D01*
X155880952Y-85274819D02*
X155785714Y-85322438D01*
X155785714Y-85322438D02*
X155738095Y-85370057D01*
X155738095Y-85370057D02*
X155690476Y-85465295D01*
X155690476Y-85465295D02*
X155642857Y-85655771D01*
X155642857Y-85655771D02*
X155642857Y-85893866D01*
X155642857Y-85893866D02*
X155690476Y-86084342D01*
X155690476Y-86084342D02*
X155738095Y-86179580D01*
X155738095Y-86179580D02*
X155785714Y-86227200D01*
X155785714Y-86227200D02*
X155880952Y-86274819D01*
X155880952Y-86274819D02*
X155976190Y-86274819D01*
X155976190Y-86274819D02*
X156071428Y-86227200D01*
X156071428Y-86227200D02*
X156119047Y-86179580D01*
X156119047Y-86179580D02*
X156166666Y-86084342D01*
X156166666Y-86084342D02*
X156214285Y-85893866D01*
X156214285Y-85893866D02*
X156214285Y-85655771D01*
X156214285Y-85655771D02*
X156166666Y-85465295D01*
X156166666Y-85465295D02*
X156119047Y-85370057D01*
X156119047Y-85370057D02*
X156071428Y-85322438D01*
X156071428Y-85322438D02*
X155976190Y-85274819D01*
X155214285Y-85608152D02*
X155214285Y-86274819D01*
X155214285Y-85703390D02*
X155166666Y-85655771D01*
X155166666Y-85655771D02*
X155071428Y-85608152D01*
X155071428Y-85608152D02*
X154928571Y-85608152D01*
X154928571Y-85608152D02*
X154833333Y-85655771D01*
X154833333Y-85655771D02*
X154785714Y-85751009D01*
X154785714Y-85751009D02*
X154785714Y-86274819D01*
X153976190Y-85751009D02*
X154309523Y-85751009D01*
X154309523Y-86274819D02*
X154309523Y-85274819D01*
X154309523Y-85274819D02*
X153833333Y-85274819D01*
D11*
X156083333Y-87679530D02*
X156107142Y-87703340D01*
X156107142Y-87703340D02*
X156178571Y-87727149D01*
X156178571Y-87727149D02*
X156226190Y-87727149D01*
X156226190Y-87727149D02*
X156297618Y-87703340D01*
X156297618Y-87703340D02*
X156345237Y-87655720D01*
X156345237Y-87655720D02*
X156369047Y-87608101D01*
X156369047Y-87608101D02*
X156392856Y-87512863D01*
X156392856Y-87512863D02*
X156392856Y-87441435D01*
X156392856Y-87441435D02*
X156369047Y-87346197D01*
X156369047Y-87346197D02*
X156345237Y-87298578D01*
X156345237Y-87298578D02*
X156297618Y-87250959D01*
X156297618Y-87250959D02*
X156226190Y-87227149D01*
X156226190Y-87227149D02*
X156178571Y-87227149D01*
X156178571Y-87227149D02*
X156107142Y-87250959D01*
X156107142Y-87250959D02*
X156083333Y-87274768D01*
X155892856Y-87274768D02*
X155869047Y-87250959D01*
X155869047Y-87250959D02*
X155821428Y-87227149D01*
X155821428Y-87227149D02*
X155702380Y-87227149D01*
X155702380Y-87227149D02*
X155654761Y-87250959D01*
X155654761Y-87250959D02*
X155630952Y-87274768D01*
X155630952Y-87274768D02*
X155607142Y-87322387D01*
X155607142Y-87322387D02*
X155607142Y-87370006D01*
X155607142Y-87370006D02*
X155630952Y-87441435D01*
X155630952Y-87441435D02*
X155916666Y-87727149D01*
X155916666Y-87727149D02*
X155607142Y-87727149D01*
D10*
X138786819Y-89320761D02*
X138786819Y-88749333D01*
X138786819Y-89035047D02*
X137786819Y-89035047D01*
X137786819Y-89035047D02*
X137929676Y-88939809D01*
X137929676Y-88939809D02*
X138024914Y-88844571D01*
X138024914Y-88844571D02*
X138072533Y-88749333D01*
X138120152Y-90177904D02*
X138786819Y-90177904D01*
X138120152Y-89749333D02*
X138643961Y-89749333D01*
X138643961Y-89749333D02*
X138739200Y-89796952D01*
X138739200Y-89796952D02*
X138786819Y-89892190D01*
X138786819Y-89892190D02*
X138786819Y-90035047D01*
X138786819Y-90035047D02*
X138739200Y-90130285D01*
X138739200Y-90130285D02*
X138691580Y-90177904D01*
X138263009Y-90987428D02*
X138263009Y-90654095D01*
X138786819Y-90654095D02*
X137786819Y-90654095D01*
X137786819Y-90654095D02*
X137786819Y-91130285D01*
D11*
X136831530Y-89832666D02*
X136855340Y-89808857D01*
X136855340Y-89808857D02*
X136879149Y-89737428D01*
X136879149Y-89737428D02*
X136879149Y-89689809D01*
X136879149Y-89689809D02*
X136855340Y-89618381D01*
X136855340Y-89618381D02*
X136807720Y-89570762D01*
X136807720Y-89570762D02*
X136760101Y-89546952D01*
X136760101Y-89546952D02*
X136664863Y-89523143D01*
X136664863Y-89523143D02*
X136593435Y-89523143D01*
X136593435Y-89523143D02*
X136498197Y-89546952D01*
X136498197Y-89546952D02*
X136450578Y-89570762D01*
X136450578Y-89570762D02*
X136402959Y-89618381D01*
X136402959Y-89618381D02*
X136379149Y-89689809D01*
X136379149Y-89689809D02*
X136379149Y-89737428D01*
X136379149Y-89737428D02*
X136402959Y-89808857D01*
X136402959Y-89808857D02*
X136426768Y-89832666D01*
X136379149Y-89999333D02*
X136379149Y-90308857D01*
X136379149Y-90308857D02*
X136569625Y-90142190D01*
X136569625Y-90142190D02*
X136569625Y-90213619D01*
X136569625Y-90213619D02*
X136593435Y-90261238D01*
X136593435Y-90261238D02*
X136617244Y-90285047D01*
X136617244Y-90285047D02*
X136664863Y-90308857D01*
X136664863Y-90308857D02*
X136783911Y-90308857D01*
X136783911Y-90308857D02*
X136831530Y-90285047D01*
X136831530Y-90285047D02*
X136855340Y-90261238D01*
X136855340Y-90261238D02*
X136879149Y-90213619D01*
X136879149Y-90213619D02*
X136879149Y-90070762D01*
X136879149Y-90070762D02*
X136855340Y-90023143D01*
X136855340Y-90023143D02*
X136831530Y-89999333D01*
D13*
%TO.C,C1*%
X155000000Y-84375000D02*
X155000000Y-85625000D01*
X155000000Y-85625000D02*
X157000000Y-85625000D01*
X157000000Y-84375000D02*
X155000000Y-84375000D01*
X157000000Y-85625000D02*
X157000000Y-84375000D01*
%TO.C,FID1*%
X160750000Y-87500000D02*
G75*
G02*
X159250000Y-87500000I-750000J0D01*
G01*
X159250000Y-87500000D02*
G75*
G02*
X160750000Y-87500000I750000J0D01*
G01*
%TO.C,FID2*%
X136750000Y-103500000D02*
G75*
G02*
X135250000Y-103500000I-750000J0D01*
G01*
X135250000Y-103500000D02*
G75*
G02*
X136750000Y-103500000I750000J0D01*
G01*
%TO.C,J2*%
X137887300Y-81052100D02*
X137887300Y-82957100D01*
X137887300Y-82957100D02*
X158207300Y-82957100D01*
X138522300Y-80417100D02*
X137887300Y-81052100D01*
X158207300Y-80417100D02*
X138522300Y-80417100D01*
X158207300Y-82957100D02*
X158207300Y-80417100D01*
%TO.C,C4*%
X136281000Y-93488000D02*
X136281000Y-95488000D01*
X136281000Y-95488000D02*
X137531000Y-95488000D01*
X137531000Y-93488000D02*
X136281000Y-93488000D01*
X137531000Y-95488000D02*
X137531000Y-93488000D01*
%TO.C,R1*%
X158887000Y-97552000D02*
X158887000Y-99552000D01*
X158887000Y-99552000D02*
X160137000Y-99552000D01*
X160137000Y-97552000D02*
X158887000Y-97552000D01*
X160137000Y-99552000D02*
X160137000Y-97552000D01*
%TO.C,C2*%
X155000000Y-86875000D02*
X155000000Y-88125000D01*
X155000000Y-88125000D02*
X157000000Y-88125000D01*
X157000000Y-86875000D02*
X155000000Y-86875000D01*
X157000000Y-88125000D02*
X157000000Y-86875000D01*
%TO.C,C3*%
X136027000Y-88916000D02*
X136027000Y-90916000D01*
X136027000Y-90916000D02*
X137277000Y-90916000D01*
X137277000Y-88916000D02*
X136027000Y-88916000D01*
X137277000Y-90916000D02*
X137277000Y-88916000D01*
%TD*%
M02*
