%TF.GenerationSoftware,KiCad,Pcbnew,9.0.6*%
%TF.CreationDate,2026-04-03T11:42:20-04:00*%
%TF.ProjectId,COGDisplayBreakout,434f4744-6973-4706-9c61-79427265616b,0.1*%
%TF.SameCoordinates,Original*%
%TF.FileFunction,Soldermask,Bot*%
%TF.FilePolarity,Negative*%
%FSLAX46Y46*%
G04 Gerber Fmt 4.6, Leading zero omitted, Abs format (unit mm)*
G04 Created by KiCad (PCBNEW 9.0.6) date 2026-04-03 11:42:20*
%MOMM*%
%LPD*%
G01*
G04 APERTURE LIST*
G04 Aperture macros list*
%AMRoundRect*
0 Rectangle with rounded corners*
0 $1 Rounding radius*
0 $2 $3 $4 $5 $6 $7 $8 $9 X,Y pos of 4 corners*
0 Add a 4 corners polygon primitive as box body*
4,1,4,$2,$3,$4,$5,$6,$7,$8,$9,$2,$3,0*
0 Add four circle primitives for the rounded corners*
1,1,$1+$1,$2,$3*
1,1,$1+$1,$4,$5*
1,1,$1+$1,$6,$7*
1,1,$1+$1,$8,$9*
0 Add four rect primitives between the rounded corners*
20,1,$1+$1,$2,$3,$4,$5,0*
20,1,$1+$1,$4,$5,$6,$7,0*
20,1,$1+$1,$6,$7,$8,$9,0*
20,1,$1+$1,$8,$9,$2,$3,0*%
%AMFreePoly0*
4,1,23,0.500000,-0.750000,0.000000,-0.750000,0.000000,-0.745722,-0.065263,-0.745722,-0.191342,-0.711940,-0.304381,-0.646677,-0.396677,-0.554381,-0.461940,-0.441342,-0.495722,-0.315263,-0.495722,-0.250000,-0.500000,-0.250000,-0.500000,0.250000,-0.495722,0.250000,-0.495722,0.315263,-0.461940,0.441342,-0.396677,0.554381,-0.304381,0.646677,-0.191342,0.711940,-0.065263,0.745722,0.000000,0.745722,
0.000000,0.750000,0.500000,0.750000,0.500000,-0.750000,0.500000,-0.750000,$1*%
%AMFreePoly1*
4,1,23,0.000000,0.745722,0.065263,0.745722,0.191342,0.711940,0.304381,0.646677,0.396677,0.554381,0.461940,0.441342,0.495722,0.315263,0.495722,0.250000,0.500000,0.250000,0.500000,-0.250000,0.495722,-0.250000,0.495722,-0.315263,0.461940,-0.441342,0.396677,-0.554381,0.304381,-0.646677,0.191342,-0.711940,0.065263,-0.745722,0.000000,-0.745722,0.000000,-0.750000,-0.500000,-0.750000,
-0.500000,0.750000,0.000000,0.750000,0.000000,0.745722,0.000000,0.745722,$1*%
G04 Aperture macros list end*
%ADD10C,2.100000*%
%ADD11O,8.500000X1.200000*%
%ADD12R,0.300000X1.800000*%
%ADD13O,2.800000X1.600000*%
%ADD14FreePoly0,90.000000*%
%ADD15FreePoly1,90.000000*%
%ADD16C,2.500000*%
%ADD17RoundRect,0.250000X-0.250000X-0.475000X0.250000X-0.475000X0.250000X0.475000X-0.250000X0.475000X0*%
%ADD18C,1.500000*%
%ADD19C,1.700000*%
%ADD20RoundRect,0.250000X-0.475000X0.250000X-0.475000X-0.250000X0.475000X-0.250000X0.475000X0.250000X0*%
%ADD21RoundRect,0.250000X-0.450000X0.262500X-0.450000X-0.262500X0.450000X-0.262500X0.450000X0.262500X0*%
G04 APERTURE END LIST*
%TO.C,JP1*%
G36*
X160262000Y-93622000D02*
G01*
X158762000Y-93622000D01*
X158762000Y-93322000D01*
X160262000Y-93322000D01*
X160262000Y-93622000D01*
G37*
%TD*%
D10*
%TO.C,LCD1*%
X135482000Y-85042000D03*
D11*
X148082000Y-107692000D03*
D10*
X160682000Y-85042000D03*
D12*
X151382000Y-92392000D03*
X150782000Y-92392000D03*
X150182000Y-92392000D03*
X149582000Y-92392000D03*
X148982000Y-92392000D03*
X148382000Y-92392000D03*
X147782000Y-92392000D03*
X147182000Y-92392000D03*
X146582000Y-92392000D03*
X145982000Y-92392000D03*
X145382000Y-92392000D03*
X144782000Y-92392000D03*
D13*
X155532000Y-104292000D03*
X140632000Y-104292000D03*
%TD*%
D14*
%TO.C,JP1*%
X159512000Y-94122000D03*
D15*
X159512000Y-92822000D03*
%TD*%
D16*
%TO.C,H3*%
X160000000Y-108500000D03*
%TD*%
%TO.C,H2*%
X159992700Y-81632200D03*
%TD*%
%TO.C,H1*%
X135992700Y-81632200D03*
%TD*%
%TO.C,H4*%
X136000000Y-108500000D03*
%TD*%
D17*
%TO.C,C1*%
X155050000Y-85000000D03*
X156950000Y-85000000D03*
%TD*%
D18*
%TO.C,FID1*%
X160000000Y-87500000D03*
%TD*%
%TO.C,FID2*%
X136000000Y-103500000D03*
%TD*%
D19*
%TO.C,J2*%
X139157300Y-81687100D03*
X141697300Y-81687100D03*
X144237300Y-81687100D03*
X146777300Y-81687100D03*
X149317300Y-81687100D03*
X151857300Y-81687100D03*
X154397300Y-81687100D03*
X156937300Y-81687100D03*
%TD*%
D20*
%TO.C,C4*%
X136906000Y-93538000D03*
X136906000Y-95438000D03*
%TD*%
D21*
%TO.C,R1*%
X159512000Y-97639500D03*
X159512000Y-99464500D03*
%TD*%
D17*
%TO.C,C2*%
X155050000Y-87500000D03*
X156950000Y-87500000D03*
%TD*%
D20*
%TO.C,C3*%
X136652000Y-88966000D03*
X136652000Y-90866000D03*
%TD*%
M02*
