%TF.GenerationSoftware,KiCad,Pcbnew,9.0.6*%
%TF.CreationDate,2026-03-23T15:58:30-04:00*%
%TF.ProjectId,COGDisplayBreakout,434f4744-6973-4706-9c61-79427265616b,0.1*%
%TF.SameCoordinates,Original*%
%TF.FileFunction,Soldermask,Bot*%
%TF.FilePolarity,Negative*%
%FSLAX46Y46*%
G04 Gerber Fmt 4.6, Leading zero omitted, Abs format (unit mm)*
G04 Created by KiCad (PCBNEW 9.0.6) date 2026-03-23 15:58:30*
%MOMM*%
%LPD*%
G01*
G04 APERTURE LIST*
G04 Aperture macros list*
%AMRoundRect*
0 Rectangle with rounded corners*
0 $1 Rounding radius*
0 $2 $3 $4 $5 $6 $7 $8 $9 X,Y pos of 4 corners*
0 Add a 4 corners polygon primitive as box body*
4,1,4,$2,$3,$4,$5,$6,$7,$8,$9,$2,$3,0*
0 Add four circle primitives for the rounded corners*
1,1,$1+$1,$2,$3*
1,1,$1+$1,$4,$5*
1,1,$1+$1,$6,$7*
1,1,$1+$1,$8,$9*
0 Add four rect primitives between the rounded corners*
20,1,$1+$1,$2,$3,$4,$5,0*
20,1,$1+$1,$4,$5,$6,$7,0*
20,1,$1+$1,$6,$7,$8,$9,0*
20,1,$1+$1,$8,$9,$2,$3,0*%
G04 Aperture macros list end*
%ADD10R,0.300000X1.800000*%
%ADD11R,1.400000X2.200000*%
%ADD12RoundRect,0.800000X0.500000X0.100000X-0.500000X0.100000X-0.500000X-0.100000X0.500000X-0.100000X0*%
%ADD13C,1.700000*%
%ADD14C,2.500000*%
%ADD15RoundRect,0.250000X-0.250000X-0.475000X0.250000X-0.475000X0.250000X0.475000X-0.250000X0.475000X0*%
%ADD16C,1.500000*%
%ADD17RoundRect,0.250000X-0.475000X0.250000X-0.475000X-0.250000X0.475000X-0.250000X0.475000X0.250000X0*%
%ADD18RoundRect,0.250000X-0.450000X0.262500X-0.450000X-0.262500X0.450000X-0.262500X0.450000X0.262500X0*%
G04 APERTURE END LIST*
D10*
%TO.C,J1*%
X151350000Y-91700000D03*
X150750000Y-91700000D03*
X150150000Y-91700000D03*
X149550000Y-91700000D03*
X148950000Y-91700000D03*
X148350000Y-91700000D03*
X147750000Y-91700000D03*
X147150000Y-91700000D03*
X146550000Y-91700000D03*
X145950000Y-91700000D03*
X145350000Y-91700000D03*
X144750000Y-91700000D03*
D11*
X153200000Y-94950000D03*
X143000000Y-94950000D03*
%TD*%
D12*
%TO.C,J4*%
X140490500Y-103965100D03*
%TD*%
D13*
%TO.C,J2*%
X156937300Y-81687100D03*
X154397300Y-81687100D03*
X151857300Y-81687100D03*
X149317300Y-81687100D03*
X146777300Y-81687100D03*
X144237300Y-81687100D03*
X141697300Y-81687100D03*
X139157300Y-81687100D03*
%TD*%
D12*
%TO.C,J5*%
X155517100Y-103998700D03*
%TD*%
D14*
%TO.C,H3*%
X160000000Y-108500000D03*
%TD*%
%TO.C,H2*%
X159992700Y-81632200D03*
%TD*%
%TO.C,H1*%
X135992700Y-81632200D03*
%TD*%
%TO.C,H4*%
X136000000Y-108500000D03*
%TD*%
D15*
%TO.C,C1*%
X155050000Y-85000000D03*
X156950000Y-85000000D03*
%TD*%
D16*
%TO.C,FID1*%
X160000000Y-87500000D03*
%TD*%
%TO.C,FID2*%
X136000000Y-103500000D03*
%TD*%
D17*
%TO.C,C4*%
X137000000Y-93550000D03*
X137000000Y-95450000D03*
%TD*%
D18*
%TO.C,R1*%
X136953700Y-97768000D03*
X136953700Y-99593000D03*
%TD*%
D15*
%TO.C,C2*%
X155050000Y-87500000D03*
X156950000Y-87500000D03*
%TD*%
D17*
%TO.C,C3*%
X137000000Y-89050000D03*
X137000000Y-90950000D03*
%TD*%
M02*
