%TF.GenerationSoftware,KiCad,Pcbnew,9.0.6*%
%TF.CreationDate,2026-03-23T15:58:30-04:00*%
%TF.ProjectId,COGDisplayBreakout,434f4744-6973-4706-9c61-79427265616b,0.1*%
%TF.SameCoordinates,Original*%
%TF.FileFunction,AssemblyDrawing,Bot*%
%FSLAX46Y46*%
G04 Gerber Fmt 4.6, Leading zero omitted, Abs format (unit mm)*
G04 Created by KiCad (PCBNEW 9.0.6) date 2026-03-23 15:58:30*
%MOMM*%
%LPD*%
G01*
G04 APERTURE LIST*
%ADD10C,0.150000*%
%ADD11C,0.080000*%
%ADD12C,0.060000*%
%ADD13C,0.100000*%
G04 APERTURE END LIST*
D10*
X151833333Y-99281009D02*
X152166666Y-99281009D01*
X152166666Y-99804819D02*
X152166666Y-98804819D01*
X152166666Y-98804819D02*
X151690476Y-98804819D01*
X151309523Y-99804819D02*
X151309523Y-98804819D01*
X151309523Y-98804819D02*
X150928571Y-98804819D01*
X150928571Y-98804819D02*
X150833333Y-98852438D01*
X150833333Y-98852438D02*
X150785714Y-98900057D01*
X150785714Y-98900057D02*
X150738095Y-98995295D01*
X150738095Y-98995295D02*
X150738095Y-99138152D01*
X150738095Y-99138152D02*
X150785714Y-99233390D01*
X150785714Y-99233390D02*
X150833333Y-99281009D01*
X150833333Y-99281009D02*
X150928571Y-99328628D01*
X150928571Y-99328628D02*
X151309523Y-99328628D01*
X149738095Y-99709580D02*
X149785714Y-99757200D01*
X149785714Y-99757200D02*
X149928571Y-99804819D01*
X149928571Y-99804819D02*
X150023809Y-99804819D01*
X150023809Y-99804819D02*
X150166666Y-99757200D01*
X150166666Y-99757200D02*
X150261904Y-99661961D01*
X150261904Y-99661961D02*
X150309523Y-99566723D01*
X150309523Y-99566723D02*
X150357142Y-99376247D01*
X150357142Y-99376247D02*
X150357142Y-99233390D01*
X150357142Y-99233390D02*
X150309523Y-99042914D01*
X150309523Y-99042914D02*
X150261904Y-98947676D01*
X150261904Y-98947676D02*
X150166666Y-98852438D01*
X150166666Y-98852438D02*
X150023809Y-98804819D01*
X150023809Y-98804819D02*
X149928571Y-98804819D01*
X149928571Y-98804819D02*
X149785714Y-98852438D01*
X149785714Y-98852438D02*
X149738095Y-98900057D01*
X149547619Y-99900057D02*
X148785714Y-99900057D01*
X148023809Y-99804819D02*
X148595237Y-99804819D01*
X148309523Y-99804819D02*
X148309523Y-98804819D01*
X148309523Y-98804819D02*
X148404761Y-98947676D01*
X148404761Y-98947676D02*
X148499999Y-99042914D01*
X148499999Y-99042914D02*
X148595237Y-99090533D01*
X147642856Y-98900057D02*
X147595237Y-98852438D01*
X147595237Y-98852438D02*
X147499999Y-98804819D01*
X147499999Y-98804819D02*
X147261904Y-98804819D01*
X147261904Y-98804819D02*
X147166666Y-98852438D01*
X147166666Y-98852438D02*
X147119047Y-98900057D01*
X147119047Y-98900057D02*
X147071428Y-98995295D01*
X147071428Y-98995295D02*
X147071428Y-99090533D01*
X147071428Y-99090533D02*
X147119047Y-99233390D01*
X147119047Y-99233390D02*
X147690475Y-99804819D01*
X147690475Y-99804819D02*
X147071428Y-99804819D01*
X146642856Y-99138152D02*
X146642856Y-100138152D01*
X146642856Y-99185771D02*
X146547618Y-99138152D01*
X146547618Y-99138152D02*
X146357142Y-99138152D01*
X146357142Y-99138152D02*
X146261904Y-99185771D01*
X146261904Y-99185771D02*
X146214285Y-99233390D01*
X146214285Y-99233390D02*
X146166666Y-99328628D01*
X146166666Y-99328628D02*
X146166666Y-99614342D01*
X146166666Y-99614342D02*
X146214285Y-99709580D01*
X146214285Y-99709580D02*
X146261904Y-99757200D01*
X146261904Y-99757200D02*
X146357142Y-99804819D01*
X146357142Y-99804819D02*
X146547618Y-99804819D01*
X146547618Y-99804819D02*
X146642856Y-99757200D01*
X145738094Y-99804819D02*
X145738094Y-99138152D01*
X145738094Y-98804819D02*
X145785713Y-98852438D01*
X145785713Y-98852438D02*
X145738094Y-98900057D01*
X145738094Y-98900057D02*
X145690475Y-98852438D01*
X145690475Y-98852438D02*
X145738094Y-98804819D01*
X145738094Y-98804819D02*
X145738094Y-98900057D01*
X145261904Y-99138152D02*
X145261904Y-99804819D01*
X145261904Y-99233390D02*
X145214285Y-99185771D01*
X145214285Y-99185771D02*
X145119047Y-99138152D01*
X145119047Y-99138152D02*
X144976190Y-99138152D01*
X144976190Y-99138152D02*
X144880952Y-99185771D01*
X144880952Y-99185771D02*
X144833333Y-99281009D01*
X144833333Y-99281009D02*
X144833333Y-99804819D01*
X148843333Y-96504819D02*
X148843333Y-97219104D01*
X148843333Y-97219104D02*
X148890952Y-97361961D01*
X148890952Y-97361961D02*
X148986190Y-97457200D01*
X148986190Y-97457200D02*
X149129047Y-97504819D01*
X149129047Y-97504819D02*
X149224285Y-97504819D01*
X147843333Y-97504819D02*
X148414761Y-97504819D01*
X148129047Y-97504819D02*
X148129047Y-96504819D01*
X148129047Y-96504819D02*
X148224285Y-96647676D01*
X148224285Y-96647676D02*
X148319523Y-96742914D01*
X148319523Y-96742914D02*
X148414761Y-96790533D01*
X144228595Y-106704680D02*
X144276214Y-106752300D01*
X144276214Y-106752300D02*
X144419071Y-106799919D01*
X144419071Y-106799919D02*
X144514309Y-106799919D01*
X144514309Y-106799919D02*
X144657166Y-106752300D01*
X144657166Y-106752300D02*
X144752404Y-106657061D01*
X144752404Y-106657061D02*
X144800023Y-106561823D01*
X144800023Y-106561823D02*
X144847642Y-106371347D01*
X144847642Y-106371347D02*
X144847642Y-106228490D01*
X144847642Y-106228490D02*
X144800023Y-106038014D01*
X144800023Y-106038014D02*
X144752404Y-105942776D01*
X144752404Y-105942776D02*
X144657166Y-105847538D01*
X144657166Y-105847538D02*
X144514309Y-105799919D01*
X144514309Y-105799919D02*
X144419071Y-105799919D01*
X144419071Y-105799919D02*
X144276214Y-105847538D01*
X144276214Y-105847538D02*
X144228595Y-105895157D01*
X143657166Y-106799919D02*
X143752404Y-106752300D01*
X143752404Y-106752300D02*
X143800023Y-106704680D01*
X143800023Y-106704680D02*
X143847642Y-106609442D01*
X143847642Y-106609442D02*
X143847642Y-106323728D01*
X143847642Y-106323728D02*
X143800023Y-106228490D01*
X143800023Y-106228490D02*
X143752404Y-106180871D01*
X143752404Y-106180871D02*
X143657166Y-106133252D01*
X143657166Y-106133252D02*
X143514309Y-106133252D01*
X143514309Y-106133252D02*
X143419071Y-106180871D01*
X143419071Y-106180871D02*
X143371452Y-106228490D01*
X143371452Y-106228490D02*
X143323833Y-106323728D01*
X143323833Y-106323728D02*
X143323833Y-106609442D01*
X143323833Y-106609442D02*
X143371452Y-106704680D01*
X143371452Y-106704680D02*
X143419071Y-106752300D01*
X143419071Y-106752300D02*
X143514309Y-106799919D01*
X143514309Y-106799919D02*
X143657166Y-106799919D01*
X142895261Y-106133252D02*
X142895261Y-106799919D01*
X142895261Y-106228490D02*
X142847642Y-106180871D01*
X142847642Y-106180871D02*
X142752404Y-106133252D01*
X142752404Y-106133252D02*
X142609547Y-106133252D01*
X142609547Y-106133252D02*
X142514309Y-106180871D01*
X142514309Y-106180871D02*
X142466690Y-106276109D01*
X142466690Y-106276109D02*
X142466690Y-106799919D01*
X141990499Y-106133252D02*
X141990499Y-106799919D01*
X141990499Y-106228490D02*
X141942880Y-106180871D01*
X141942880Y-106180871D02*
X141847642Y-106133252D01*
X141847642Y-106133252D02*
X141704785Y-106133252D01*
X141704785Y-106133252D02*
X141609547Y-106180871D01*
X141609547Y-106180871D02*
X141561928Y-106276109D01*
X141561928Y-106276109D02*
X141561928Y-106799919D01*
X141323833Y-106895157D02*
X140561928Y-106895157D01*
X140133356Y-105799919D02*
X140038118Y-105799919D01*
X140038118Y-105799919D02*
X139942880Y-105847538D01*
X139942880Y-105847538D02*
X139895261Y-105895157D01*
X139895261Y-105895157D02*
X139847642Y-105990395D01*
X139847642Y-105990395D02*
X139800023Y-106180871D01*
X139800023Y-106180871D02*
X139800023Y-106418966D01*
X139800023Y-106418966D02*
X139847642Y-106609442D01*
X139847642Y-106609442D02*
X139895261Y-106704680D01*
X139895261Y-106704680D02*
X139942880Y-106752300D01*
X139942880Y-106752300D02*
X140038118Y-106799919D01*
X140038118Y-106799919D02*
X140133356Y-106799919D01*
X140133356Y-106799919D02*
X140228594Y-106752300D01*
X140228594Y-106752300D02*
X140276213Y-106704680D01*
X140276213Y-106704680D02*
X140323832Y-106609442D01*
X140323832Y-106609442D02*
X140371451Y-106418966D01*
X140371451Y-106418966D02*
X140371451Y-106180871D01*
X140371451Y-106180871D02*
X140323832Y-105990395D01*
X140323832Y-105990395D02*
X140276213Y-105895157D01*
X140276213Y-105895157D02*
X140228594Y-105847538D01*
X140228594Y-105847538D02*
X140133356Y-105799919D01*
X138847642Y-106799919D02*
X139419070Y-106799919D01*
X139133356Y-106799919D02*
X139133356Y-105799919D01*
X139133356Y-105799919D02*
X139228594Y-105942776D01*
X139228594Y-105942776D02*
X139323832Y-106038014D01*
X139323832Y-106038014D02*
X139419070Y-106085633D01*
X138514308Y-106799919D02*
X137990499Y-106133252D01*
X138514308Y-106133252D02*
X137990499Y-106799919D01*
X137419070Y-105799919D02*
X137323832Y-105799919D01*
X137323832Y-105799919D02*
X137228594Y-105847538D01*
X137228594Y-105847538D02*
X137180975Y-105895157D01*
X137180975Y-105895157D02*
X137133356Y-105990395D01*
X137133356Y-105990395D02*
X137085737Y-106180871D01*
X137085737Y-106180871D02*
X137085737Y-106418966D01*
X137085737Y-106418966D02*
X137133356Y-106609442D01*
X137133356Y-106609442D02*
X137180975Y-106704680D01*
X137180975Y-106704680D02*
X137228594Y-106752300D01*
X137228594Y-106752300D02*
X137323832Y-106799919D01*
X137323832Y-106799919D02*
X137419070Y-106799919D01*
X137419070Y-106799919D02*
X137514308Y-106752300D01*
X137514308Y-106752300D02*
X137561927Y-106704680D01*
X137561927Y-106704680D02*
X137609546Y-106609442D01*
X137609546Y-106609442D02*
X137657165Y-106418966D01*
X137657165Y-106418966D02*
X137657165Y-106180871D01*
X137657165Y-106180871D02*
X137609546Y-105990395D01*
X137609546Y-105990395D02*
X137561927Y-105895157D01*
X137561927Y-105895157D02*
X137514308Y-105847538D01*
X137514308Y-105847538D02*
X137419070Y-105799919D01*
X136133356Y-106799919D02*
X136704784Y-106799919D01*
X136419070Y-106799919D02*
X136419070Y-105799919D01*
X136419070Y-105799919D02*
X136514308Y-105942776D01*
X136514308Y-105942776D02*
X136609546Y-106038014D01*
X136609546Y-106038014D02*
X136704784Y-106085633D01*
X139945319Y-103631766D02*
X140659604Y-103631766D01*
X140659604Y-103631766D02*
X140802461Y-103584147D01*
X140802461Y-103584147D02*
X140897700Y-103488909D01*
X140897700Y-103488909D02*
X140945319Y-103346052D01*
X140945319Y-103346052D02*
X140945319Y-103250814D01*
X140278652Y-104536528D02*
X140945319Y-104536528D01*
X139897700Y-104298433D02*
X140611985Y-104060338D01*
X140611985Y-104060338D02*
X140611985Y-104679385D01*
X159724500Y-77687100D02*
X159772119Y-77829957D01*
X159772119Y-77829957D02*
X159772119Y-78068052D01*
X159772119Y-78068052D02*
X159724500Y-78163290D01*
X159724500Y-78163290D02*
X159676880Y-78210909D01*
X159676880Y-78210909D02*
X159581642Y-78258528D01*
X159581642Y-78258528D02*
X159486404Y-78258528D01*
X159486404Y-78258528D02*
X159391166Y-78210909D01*
X159391166Y-78210909D02*
X159343547Y-78163290D01*
X159343547Y-78163290D02*
X159295928Y-78068052D01*
X159295928Y-78068052D02*
X159248309Y-77877576D01*
X159248309Y-77877576D02*
X159200690Y-77782338D01*
X159200690Y-77782338D02*
X159153071Y-77734719D01*
X159153071Y-77734719D02*
X159057833Y-77687100D01*
X159057833Y-77687100D02*
X158962595Y-77687100D01*
X158962595Y-77687100D02*
X158867357Y-77734719D01*
X158867357Y-77734719D02*
X158819738Y-77782338D01*
X158819738Y-77782338D02*
X158772119Y-77877576D01*
X158772119Y-77877576D02*
X158772119Y-78115671D01*
X158772119Y-78115671D02*
X158819738Y-78258528D01*
X159772119Y-78687100D02*
X158772119Y-78687100D01*
X158772119Y-78687100D02*
X158772119Y-79068052D01*
X158772119Y-79068052D02*
X158819738Y-79163290D01*
X158819738Y-79163290D02*
X158867357Y-79210909D01*
X158867357Y-79210909D02*
X158962595Y-79258528D01*
X158962595Y-79258528D02*
X159105452Y-79258528D01*
X159105452Y-79258528D02*
X159200690Y-79210909D01*
X159200690Y-79210909D02*
X159248309Y-79163290D01*
X159248309Y-79163290D02*
X159295928Y-79068052D01*
X159295928Y-79068052D02*
X159295928Y-78687100D01*
X159772119Y-79687100D02*
X158772119Y-79687100D01*
X159867357Y-79925195D02*
X159867357Y-80687099D01*
X159772119Y-80925195D02*
X158772119Y-80925195D01*
X159248309Y-80925195D02*
X159248309Y-81496623D01*
X159772119Y-81496623D02*
X158772119Y-81496623D01*
X159724500Y-82353766D02*
X159772119Y-82258528D01*
X159772119Y-82258528D02*
X159772119Y-82068052D01*
X159772119Y-82068052D02*
X159724500Y-81972814D01*
X159724500Y-81972814D02*
X159629261Y-81925195D01*
X159629261Y-81925195D02*
X159248309Y-81925195D01*
X159248309Y-81925195D02*
X159153071Y-81972814D01*
X159153071Y-81972814D02*
X159105452Y-82068052D01*
X159105452Y-82068052D02*
X159105452Y-82258528D01*
X159105452Y-82258528D02*
X159153071Y-82353766D01*
X159153071Y-82353766D02*
X159248309Y-82401385D01*
X159248309Y-82401385D02*
X159343547Y-82401385D01*
X159343547Y-82401385D02*
X159438785Y-81925195D01*
X159772119Y-83258528D02*
X159248309Y-83258528D01*
X159248309Y-83258528D02*
X159153071Y-83210909D01*
X159153071Y-83210909D02*
X159105452Y-83115671D01*
X159105452Y-83115671D02*
X159105452Y-82925195D01*
X159105452Y-82925195D02*
X159153071Y-82829957D01*
X159724500Y-83258528D02*
X159772119Y-83163290D01*
X159772119Y-83163290D02*
X159772119Y-82925195D01*
X159772119Y-82925195D02*
X159724500Y-82829957D01*
X159724500Y-82829957D02*
X159629261Y-82782338D01*
X159629261Y-82782338D02*
X159534023Y-82782338D01*
X159534023Y-82782338D02*
X159438785Y-82829957D01*
X159438785Y-82829957D02*
X159391166Y-82925195D01*
X159391166Y-82925195D02*
X159391166Y-83163290D01*
X159391166Y-83163290D02*
X159343547Y-83258528D01*
X159772119Y-84163290D02*
X158772119Y-84163290D01*
X159724500Y-84163290D02*
X159772119Y-84068052D01*
X159772119Y-84068052D02*
X159772119Y-83877576D01*
X159772119Y-83877576D02*
X159724500Y-83782338D01*
X159724500Y-83782338D02*
X159676880Y-83734719D01*
X159676880Y-83734719D02*
X159581642Y-83687100D01*
X159581642Y-83687100D02*
X159295928Y-83687100D01*
X159295928Y-83687100D02*
X159200690Y-83734719D01*
X159200690Y-83734719D02*
X159153071Y-83782338D01*
X159153071Y-83782338D02*
X159105452Y-83877576D01*
X159105452Y-83877576D02*
X159105452Y-84068052D01*
X159105452Y-84068052D02*
X159153071Y-84163290D01*
X159724500Y-85020433D02*
X159772119Y-84925195D01*
X159772119Y-84925195D02*
X159772119Y-84734719D01*
X159772119Y-84734719D02*
X159724500Y-84639481D01*
X159724500Y-84639481D02*
X159629261Y-84591862D01*
X159629261Y-84591862D02*
X159248309Y-84591862D01*
X159248309Y-84591862D02*
X159153071Y-84639481D01*
X159153071Y-84639481D02*
X159105452Y-84734719D01*
X159105452Y-84734719D02*
X159105452Y-84925195D01*
X159105452Y-84925195D02*
X159153071Y-85020433D01*
X159153071Y-85020433D02*
X159248309Y-85068052D01*
X159248309Y-85068052D02*
X159343547Y-85068052D01*
X159343547Y-85068052D02*
X159438785Y-84591862D01*
X159772119Y-85496624D02*
X159105452Y-85496624D01*
X159295928Y-85496624D02*
X159200690Y-85544243D01*
X159200690Y-85544243D02*
X159153071Y-85591862D01*
X159153071Y-85591862D02*
X159105452Y-85687100D01*
X159105452Y-85687100D02*
X159105452Y-85782338D01*
X148380633Y-81141919D02*
X148380633Y-81856204D01*
X148380633Y-81856204D02*
X148428252Y-81999061D01*
X148428252Y-81999061D02*
X148523490Y-82094300D01*
X148523490Y-82094300D02*
X148666347Y-82141919D01*
X148666347Y-82141919D02*
X148761585Y-82141919D01*
X147952061Y-81237157D02*
X147904442Y-81189538D01*
X147904442Y-81189538D02*
X147809204Y-81141919D01*
X147809204Y-81141919D02*
X147571109Y-81141919D01*
X147571109Y-81141919D02*
X147475871Y-81189538D01*
X147475871Y-81189538D02*
X147428252Y-81237157D01*
X147428252Y-81237157D02*
X147380633Y-81332395D01*
X147380633Y-81332395D02*
X147380633Y-81427633D01*
X147380633Y-81427633D02*
X147428252Y-81570490D01*
X147428252Y-81570490D02*
X147999680Y-82141919D01*
X147999680Y-82141919D02*
X147380633Y-82141919D01*
X159255195Y-106738280D02*
X159302814Y-106785900D01*
X159302814Y-106785900D02*
X159445671Y-106833519D01*
X159445671Y-106833519D02*
X159540909Y-106833519D01*
X159540909Y-106833519D02*
X159683766Y-106785900D01*
X159683766Y-106785900D02*
X159779004Y-106690661D01*
X159779004Y-106690661D02*
X159826623Y-106595423D01*
X159826623Y-106595423D02*
X159874242Y-106404947D01*
X159874242Y-106404947D02*
X159874242Y-106262090D01*
X159874242Y-106262090D02*
X159826623Y-106071614D01*
X159826623Y-106071614D02*
X159779004Y-105976376D01*
X159779004Y-105976376D02*
X159683766Y-105881138D01*
X159683766Y-105881138D02*
X159540909Y-105833519D01*
X159540909Y-105833519D02*
X159445671Y-105833519D01*
X159445671Y-105833519D02*
X159302814Y-105881138D01*
X159302814Y-105881138D02*
X159255195Y-105928757D01*
X158683766Y-106833519D02*
X158779004Y-106785900D01*
X158779004Y-106785900D02*
X158826623Y-106738280D01*
X158826623Y-106738280D02*
X158874242Y-106643042D01*
X158874242Y-106643042D02*
X158874242Y-106357328D01*
X158874242Y-106357328D02*
X158826623Y-106262090D01*
X158826623Y-106262090D02*
X158779004Y-106214471D01*
X158779004Y-106214471D02*
X158683766Y-106166852D01*
X158683766Y-106166852D02*
X158540909Y-106166852D01*
X158540909Y-106166852D02*
X158445671Y-106214471D01*
X158445671Y-106214471D02*
X158398052Y-106262090D01*
X158398052Y-106262090D02*
X158350433Y-106357328D01*
X158350433Y-106357328D02*
X158350433Y-106643042D01*
X158350433Y-106643042D02*
X158398052Y-106738280D01*
X158398052Y-106738280D02*
X158445671Y-106785900D01*
X158445671Y-106785900D02*
X158540909Y-106833519D01*
X158540909Y-106833519D02*
X158683766Y-106833519D01*
X157921861Y-106166852D02*
X157921861Y-106833519D01*
X157921861Y-106262090D02*
X157874242Y-106214471D01*
X157874242Y-106214471D02*
X157779004Y-106166852D01*
X157779004Y-106166852D02*
X157636147Y-106166852D01*
X157636147Y-106166852D02*
X157540909Y-106214471D01*
X157540909Y-106214471D02*
X157493290Y-106309709D01*
X157493290Y-106309709D02*
X157493290Y-106833519D01*
X157017099Y-106166852D02*
X157017099Y-106833519D01*
X157017099Y-106262090D02*
X156969480Y-106214471D01*
X156969480Y-106214471D02*
X156874242Y-106166852D01*
X156874242Y-106166852D02*
X156731385Y-106166852D01*
X156731385Y-106166852D02*
X156636147Y-106214471D01*
X156636147Y-106214471D02*
X156588528Y-106309709D01*
X156588528Y-106309709D02*
X156588528Y-106833519D01*
X156350433Y-106928757D02*
X155588528Y-106928757D01*
X155159956Y-105833519D02*
X155064718Y-105833519D01*
X155064718Y-105833519D02*
X154969480Y-105881138D01*
X154969480Y-105881138D02*
X154921861Y-105928757D01*
X154921861Y-105928757D02*
X154874242Y-106023995D01*
X154874242Y-106023995D02*
X154826623Y-106214471D01*
X154826623Y-106214471D02*
X154826623Y-106452566D01*
X154826623Y-106452566D02*
X154874242Y-106643042D01*
X154874242Y-106643042D02*
X154921861Y-106738280D01*
X154921861Y-106738280D02*
X154969480Y-106785900D01*
X154969480Y-106785900D02*
X155064718Y-106833519D01*
X155064718Y-106833519D02*
X155159956Y-106833519D01*
X155159956Y-106833519D02*
X155255194Y-106785900D01*
X155255194Y-106785900D02*
X155302813Y-106738280D01*
X155302813Y-106738280D02*
X155350432Y-106643042D01*
X155350432Y-106643042D02*
X155398051Y-106452566D01*
X155398051Y-106452566D02*
X155398051Y-106214471D01*
X155398051Y-106214471D02*
X155350432Y-106023995D01*
X155350432Y-106023995D02*
X155302813Y-105928757D01*
X155302813Y-105928757D02*
X155255194Y-105881138D01*
X155255194Y-105881138D02*
X155159956Y-105833519D01*
X153874242Y-106833519D02*
X154445670Y-106833519D01*
X154159956Y-106833519D02*
X154159956Y-105833519D01*
X154159956Y-105833519D02*
X154255194Y-105976376D01*
X154255194Y-105976376D02*
X154350432Y-106071614D01*
X154350432Y-106071614D02*
X154445670Y-106119233D01*
X153540908Y-106833519D02*
X153017099Y-106166852D01*
X153540908Y-106166852D02*
X153017099Y-106833519D01*
X152445670Y-105833519D02*
X152350432Y-105833519D01*
X152350432Y-105833519D02*
X152255194Y-105881138D01*
X152255194Y-105881138D02*
X152207575Y-105928757D01*
X152207575Y-105928757D02*
X152159956Y-106023995D01*
X152159956Y-106023995D02*
X152112337Y-106214471D01*
X152112337Y-106214471D02*
X152112337Y-106452566D01*
X152112337Y-106452566D02*
X152159956Y-106643042D01*
X152159956Y-106643042D02*
X152207575Y-106738280D01*
X152207575Y-106738280D02*
X152255194Y-106785900D01*
X152255194Y-106785900D02*
X152350432Y-106833519D01*
X152350432Y-106833519D02*
X152445670Y-106833519D01*
X152445670Y-106833519D02*
X152540908Y-106785900D01*
X152540908Y-106785900D02*
X152588527Y-106738280D01*
X152588527Y-106738280D02*
X152636146Y-106643042D01*
X152636146Y-106643042D02*
X152683765Y-106452566D01*
X152683765Y-106452566D02*
X152683765Y-106214471D01*
X152683765Y-106214471D02*
X152636146Y-106023995D01*
X152636146Y-106023995D02*
X152588527Y-105928757D01*
X152588527Y-105928757D02*
X152540908Y-105881138D01*
X152540908Y-105881138D02*
X152445670Y-105833519D01*
X151159956Y-106833519D02*
X151731384Y-106833519D01*
X151445670Y-106833519D02*
X151445670Y-105833519D01*
X151445670Y-105833519D02*
X151540908Y-105976376D01*
X151540908Y-105976376D02*
X151636146Y-106071614D01*
X151636146Y-106071614D02*
X151731384Y-106119233D01*
X154971919Y-103665366D02*
X155686204Y-103665366D01*
X155686204Y-103665366D02*
X155829061Y-103617747D01*
X155829061Y-103617747D02*
X155924300Y-103522509D01*
X155924300Y-103522509D02*
X155971919Y-103379652D01*
X155971919Y-103379652D02*
X155971919Y-103284414D01*
X154971919Y-104617747D02*
X154971919Y-104141557D01*
X154971919Y-104141557D02*
X155448109Y-104093938D01*
X155448109Y-104093938D02*
X155400490Y-104141557D01*
X155400490Y-104141557D02*
X155352871Y-104236795D01*
X155352871Y-104236795D02*
X155352871Y-104474890D01*
X155352871Y-104474890D02*
X155400490Y-104570128D01*
X155400490Y-104570128D02*
X155448109Y-104617747D01*
X155448109Y-104617747D02*
X155543347Y-104665366D01*
X155543347Y-104665366D02*
X155781442Y-104665366D01*
X155781442Y-104665366D02*
X155876680Y-104617747D01*
X155876680Y-104617747D02*
X155924300Y-104570128D01*
X155924300Y-104570128D02*
X155971919Y-104474890D01*
X155971919Y-104474890D02*
X155971919Y-104236795D01*
X155971919Y-104236795D02*
X155924300Y-104141557D01*
X155924300Y-104141557D02*
X155876680Y-104093938D01*
X157071428Y-83774819D02*
X157642856Y-83774819D01*
X157357142Y-83774819D02*
X157357142Y-82774819D01*
X157357142Y-82774819D02*
X157452380Y-82917676D01*
X157452380Y-82917676D02*
X157547618Y-83012914D01*
X157547618Y-83012914D02*
X157642856Y-83060533D01*
X156452380Y-82774819D02*
X156357142Y-82774819D01*
X156357142Y-82774819D02*
X156261904Y-82822438D01*
X156261904Y-82822438D02*
X156214285Y-82870057D01*
X156214285Y-82870057D02*
X156166666Y-82965295D01*
X156166666Y-82965295D02*
X156119047Y-83155771D01*
X156119047Y-83155771D02*
X156119047Y-83393866D01*
X156119047Y-83393866D02*
X156166666Y-83584342D01*
X156166666Y-83584342D02*
X156214285Y-83679580D01*
X156214285Y-83679580D02*
X156261904Y-83727200D01*
X156261904Y-83727200D02*
X156357142Y-83774819D01*
X156357142Y-83774819D02*
X156452380Y-83774819D01*
X156452380Y-83774819D02*
X156547618Y-83727200D01*
X156547618Y-83727200D02*
X156595237Y-83679580D01*
X156595237Y-83679580D02*
X156642856Y-83584342D01*
X156642856Y-83584342D02*
X156690475Y-83393866D01*
X156690475Y-83393866D02*
X156690475Y-83155771D01*
X156690475Y-83155771D02*
X156642856Y-82965295D01*
X156642856Y-82965295D02*
X156595237Y-82870057D01*
X156595237Y-82870057D02*
X156547618Y-82822438D01*
X156547618Y-82822438D02*
X156452380Y-82774819D01*
X155261904Y-83108152D02*
X155261904Y-83774819D01*
X155690475Y-83108152D02*
X155690475Y-83631961D01*
X155690475Y-83631961D02*
X155642856Y-83727200D01*
X155642856Y-83727200D02*
X155547618Y-83774819D01*
X155547618Y-83774819D02*
X155404761Y-83774819D01*
X155404761Y-83774819D02*
X155309523Y-83727200D01*
X155309523Y-83727200D02*
X155261904Y-83679580D01*
X154452380Y-83251009D02*
X154785713Y-83251009D01*
X154785713Y-83774819D02*
X154785713Y-82774819D01*
X154785713Y-82774819D02*
X154309523Y-82774819D01*
D11*
X156083333Y-85179530D02*
X156107142Y-85203340D01*
X156107142Y-85203340D02*
X156178571Y-85227149D01*
X156178571Y-85227149D02*
X156226190Y-85227149D01*
X156226190Y-85227149D02*
X156297618Y-85203340D01*
X156297618Y-85203340D02*
X156345237Y-85155720D01*
X156345237Y-85155720D02*
X156369047Y-85108101D01*
X156369047Y-85108101D02*
X156392856Y-85012863D01*
X156392856Y-85012863D02*
X156392856Y-84941435D01*
X156392856Y-84941435D02*
X156369047Y-84846197D01*
X156369047Y-84846197D02*
X156345237Y-84798578D01*
X156345237Y-84798578D02*
X156297618Y-84750959D01*
X156297618Y-84750959D02*
X156226190Y-84727149D01*
X156226190Y-84727149D02*
X156178571Y-84727149D01*
X156178571Y-84727149D02*
X156107142Y-84750959D01*
X156107142Y-84750959D02*
X156083333Y-84774768D01*
X155607142Y-85227149D02*
X155892856Y-85227149D01*
X155749999Y-85227149D02*
X155749999Y-84727149D01*
X155749999Y-84727149D02*
X155797618Y-84798578D01*
X155797618Y-84798578D02*
X155845237Y-84846197D01*
X155845237Y-84846197D02*
X155892856Y-84870006D01*
D10*
X163452380Y-89131009D02*
X163785713Y-89131009D01*
X163785713Y-89654819D02*
X163785713Y-88654819D01*
X163785713Y-88654819D02*
X163309523Y-88654819D01*
X162928570Y-89654819D02*
X162928570Y-88654819D01*
X162452380Y-89654819D02*
X162452380Y-88654819D01*
X162452380Y-88654819D02*
X162214285Y-88654819D01*
X162214285Y-88654819D02*
X162071428Y-88702438D01*
X162071428Y-88702438D02*
X161976190Y-88797676D01*
X161976190Y-88797676D02*
X161928571Y-88892914D01*
X161928571Y-88892914D02*
X161880952Y-89083390D01*
X161880952Y-89083390D02*
X161880952Y-89226247D01*
X161880952Y-89226247D02*
X161928571Y-89416723D01*
X161928571Y-89416723D02*
X161976190Y-89511961D01*
X161976190Y-89511961D02*
X162071428Y-89607200D01*
X162071428Y-89607200D02*
X162214285Y-89654819D01*
X162214285Y-89654819D02*
X162452380Y-89654819D01*
X161452380Y-88654819D02*
X161452380Y-89464342D01*
X161452380Y-89464342D02*
X161404761Y-89559580D01*
X161404761Y-89559580D02*
X161357142Y-89607200D01*
X161357142Y-89607200D02*
X161261904Y-89654819D01*
X161261904Y-89654819D02*
X161071428Y-89654819D01*
X161071428Y-89654819D02*
X160976190Y-89607200D01*
X160976190Y-89607200D02*
X160928571Y-89559580D01*
X160928571Y-89559580D02*
X160880952Y-89464342D01*
X160880952Y-89464342D02*
X160880952Y-88654819D01*
X159833333Y-89559580D02*
X159880952Y-89607200D01*
X159880952Y-89607200D02*
X160023809Y-89654819D01*
X160023809Y-89654819D02*
X160119047Y-89654819D01*
X160119047Y-89654819D02*
X160261904Y-89607200D01*
X160261904Y-89607200D02*
X160357142Y-89511961D01*
X160357142Y-89511961D02*
X160404761Y-89416723D01*
X160404761Y-89416723D02*
X160452380Y-89226247D01*
X160452380Y-89226247D02*
X160452380Y-89083390D01*
X160452380Y-89083390D02*
X160404761Y-88892914D01*
X160404761Y-88892914D02*
X160357142Y-88797676D01*
X160357142Y-88797676D02*
X160261904Y-88702438D01*
X160261904Y-88702438D02*
X160119047Y-88654819D01*
X160119047Y-88654819D02*
X160023809Y-88654819D01*
X160023809Y-88654819D02*
X159880952Y-88702438D01*
X159880952Y-88702438D02*
X159833333Y-88750057D01*
X159404761Y-89654819D02*
X159404761Y-88654819D01*
X158976190Y-89369104D02*
X158500000Y-89369104D01*
X159071428Y-89654819D02*
X158738095Y-88654819D01*
X158738095Y-88654819D02*
X158404762Y-89654819D01*
X157595238Y-89654819D02*
X158071428Y-89654819D01*
X158071428Y-89654819D02*
X158071428Y-88654819D01*
X157309523Y-88654819D02*
X157309523Y-88845295D01*
X156928571Y-88654819D02*
X156928571Y-88845295D01*
X156547618Y-88654819D02*
X156547618Y-88845295D01*
X156166666Y-88654819D02*
X156166666Y-88845295D01*
D12*
X160407142Y-87473627D02*
X160533808Y-87473627D01*
X160533808Y-87672675D02*
X160533808Y-87292675D01*
X160533808Y-87292675D02*
X160352856Y-87292675D01*
X160208094Y-87672675D02*
X160208094Y-87292675D01*
X160027142Y-87672675D02*
X160027142Y-87292675D01*
X160027142Y-87292675D02*
X159936666Y-87292675D01*
X159936666Y-87292675D02*
X159882380Y-87310770D01*
X159882380Y-87310770D02*
X159846190Y-87346960D01*
X159846190Y-87346960D02*
X159828095Y-87383151D01*
X159828095Y-87383151D02*
X159809999Y-87455532D01*
X159809999Y-87455532D02*
X159809999Y-87509818D01*
X159809999Y-87509818D02*
X159828095Y-87582199D01*
X159828095Y-87582199D02*
X159846190Y-87618389D01*
X159846190Y-87618389D02*
X159882380Y-87654580D01*
X159882380Y-87654580D02*
X159936666Y-87672675D01*
X159936666Y-87672675D02*
X160027142Y-87672675D01*
X159448095Y-87672675D02*
X159665238Y-87672675D01*
X159556666Y-87672675D02*
X159556666Y-87292675D01*
X159556666Y-87292675D02*
X159592857Y-87346960D01*
X159592857Y-87346960D02*
X159629047Y-87383151D01*
X159629047Y-87383151D02*
X159665238Y-87401246D01*
D10*
X139452380Y-105131009D02*
X139785713Y-105131009D01*
X139785713Y-105654819D02*
X139785713Y-104654819D01*
X139785713Y-104654819D02*
X139309523Y-104654819D01*
X138928570Y-105654819D02*
X138928570Y-104654819D01*
X138452380Y-105654819D02*
X138452380Y-104654819D01*
X138452380Y-104654819D02*
X138214285Y-104654819D01*
X138214285Y-104654819D02*
X138071428Y-104702438D01*
X138071428Y-104702438D02*
X137976190Y-104797676D01*
X137976190Y-104797676D02*
X137928571Y-104892914D01*
X137928571Y-104892914D02*
X137880952Y-105083390D01*
X137880952Y-105083390D02*
X137880952Y-105226247D01*
X137880952Y-105226247D02*
X137928571Y-105416723D01*
X137928571Y-105416723D02*
X137976190Y-105511961D01*
X137976190Y-105511961D02*
X138071428Y-105607200D01*
X138071428Y-105607200D02*
X138214285Y-105654819D01*
X138214285Y-105654819D02*
X138452380Y-105654819D01*
X137452380Y-104654819D02*
X137452380Y-105464342D01*
X137452380Y-105464342D02*
X137404761Y-105559580D01*
X137404761Y-105559580D02*
X137357142Y-105607200D01*
X137357142Y-105607200D02*
X137261904Y-105654819D01*
X137261904Y-105654819D02*
X137071428Y-105654819D01*
X137071428Y-105654819D02*
X136976190Y-105607200D01*
X136976190Y-105607200D02*
X136928571Y-105559580D01*
X136928571Y-105559580D02*
X136880952Y-105464342D01*
X136880952Y-105464342D02*
X136880952Y-104654819D01*
X135833333Y-105559580D02*
X135880952Y-105607200D01*
X135880952Y-105607200D02*
X136023809Y-105654819D01*
X136023809Y-105654819D02*
X136119047Y-105654819D01*
X136119047Y-105654819D02*
X136261904Y-105607200D01*
X136261904Y-105607200D02*
X136357142Y-105511961D01*
X136357142Y-105511961D02*
X136404761Y-105416723D01*
X136404761Y-105416723D02*
X136452380Y-105226247D01*
X136452380Y-105226247D02*
X136452380Y-105083390D01*
X136452380Y-105083390D02*
X136404761Y-104892914D01*
X136404761Y-104892914D02*
X136357142Y-104797676D01*
X136357142Y-104797676D02*
X136261904Y-104702438D01*
X136261904Y-104702438D02*
X136119047Y-104654819D01*
X136119047Y-104654819D02*
X136023809Y-104654819D01*
X136023809Y-104654819D02*
X135880952Y-104702438D01*
X135880952Y-104702438D02*
X135833333Y-104750057D01*
X135404761Y-105654819D02*
X135404761Y-104654819D01*
X134976190Y-105369104D02*
X134500000Y-105369104D01*
X135071428Y-105654819D02*
X134738095Y-104654819D01*
X134738095Y-104654819D02*
X134404762Y-105654819D01*
X133595238Y-105654819D02*
X134071428Y-105654819D01*
X134071428Y-105654819D02*
X134071428Y-104654819D01*
X133309523Y-104654819D02*
X133309523Y-104845295D01*
X132928571Y-104654819D02*
X132928571Y-104845295D01*
X132547618Y-104654819D02*
X132547618Y-104845295D01*
X132166666Y-104654819D02*
X132166666Y-104845295D01*
D12*
X136407142Y-103473627D02*
X136533808Y-103473627D01*
X136533808Y-103672675D02*
X136533808Y-103292675D01*
X136533808Y-103292675D02*
X136352856Y-103292675D01*
X136208094Y-103672675D02*
X136208094Y-103292675D01*
X136027142Y-103672675D02*
X136027142Y-103292675D01*
X136027142Y-103292675D02*
X135936666Y-103292675D01*
X135936666Y-103292675D02*
X135882380Y-103310770D01*
X135882380Y-103310770D02*
X135846190Y-103346960D01*
X135846190Y-103346960D02*
X135828095Y-103383151D01*
X135828095Y-103383151D02*
X135809999Y-103455532D01*
X135809999Y-103455532D02*
X135809999Y-103509818D01*
X135809999Y-103509818D02*
X135828095Y-103582199D01*
X135828095Y-103582199D02*
X135846190Y-103618389D01*
X135846190Y-103618389D02*
X135882380Y-103654580D01*
X135882380Y-103654580D02*
X135936666Y-103672675D01*
X135936666Y-103672675D02*
X136027142Y-103672675D01*
X135665238Y-103328865D02*
X135647142Y-103310770D01*
X135647142Y-103310770D02*
X135610952Y-103292675D01*
X135610952Y-103292675D02*
X135520476Y-103292675D01*
X135520476Y-103292675D02*
X135484285Y-103310770D01*
X135484285Y-103310770D02*
X135466190Y-103328865D01*
X135466190Y-103328865D02*
X135448095Y-103365056D01*
X135448095Y-103365056D02*
X135448095Y-103401246D01*
X135448095Y-103401246D02*
X135466190Y-103455532D01*
X135466190Y-103455532D02*
X135683333Y-103672675D01*
X135683333Y-103672675D02*
X135448095Y-103672675D01*
D10*
X139134819Y-93904761D02*
X139134819Y-93333333D01*
X139134819Y-93619047D02*
X138134819Y-93619047D01*
X138134819Y-93619047D02*
X138277676Y-93523809D01*
X138277676Y-93523809D02*
X138372914Y-93428571D01*
X138372914Y-93428571D02*
X138420533Y-93333333D01*
X138468152Y-94761904D02*
X139134819Y-94761904D01*
X138468152Y-94333333D02*
X138991961Y-94333333D01*
X138991961Y-94333333D02*
X139087200Y-94380952D01*
X139087200Y-94380952D02*
X139134819Y-94476190D01*
X139134819Y-94476190D02*
X139134819Y-94619047D01*
X139134819Y-94619047D02*
X139087200Y-94714285D01*
X139087200Y-94714285D02*
X139039580Y-94761904D01*
X138611009Y-95571428D02*
X138611009Y-95238095D01*
X139134819Y-95238095D02*
X138134819Y-95238095D01*
X138134819Y-95238095D02*
X138134819Y-95714285D01*
D11*
X137179530Y-94416666D02*
X137203340Y-94392857D01*
X137203340Y-94392857D02*
X137227149Y-94321428D01*
X137227149Y-94321428D02*
X137227149Y-94273809D01*
X137227149Y-94273809D02*
X137203340Y-94202381D01*
X137203340Y-94202381D02*
X137155720Y-94154762D01*
X137155720Y-94154762D02*
X137108101Y-94130952D01*
X137108101Y-94130952D02*
X137012863Y-94107143D01*
X137012863Y-94107143D02*
X136941435Y-94107143D01*
X136941435Y-94107143D02*
X136846197Y-94130952D01*
X136846197Y-94130952D02*
X136798578Y-94154762D01*
X136798578Y-94154762D02*
X136750959Y-94202381D01*
X136750959Y-94202381D02*
X136727149Y-94273809D01*
X136727149Y-94273809D02*
X136727149Y-94321428D01*
X136727149Y-94321428D02*
X136750959Y-94392857D01*
X136750959Y-94392857D02*
X136774768Y-94416666D01*
X136893816Y-94845238D02*
X137227149Y-94845238D01*
X136703340Y-94726190D02*
X137060482Y-94607143D01*
X137060482Y-94607143D02*
X137060482Y-94916666D01*
D10*
X138153757Y-97418595D02*
X138106138Y-97466214D01*
X138106138Y-97466214D02*
X138058519Y-97561452D01*
X138058519Y-97561452D02*
X138058519Y-97799547D01*
X138058519Y-97799547D02*
X138106138Y-97894785D01*
X138106138Y-97894785D02*
X138153757Y-97942404D01*
X138153757Y-97942404D02*
X138248995Y-97990023D01*
X138248995Y-97990023D02*
X138344233Y-97990023D01*
X138344233Y-97990023D02*
X138487090Y-97942404D01*
X138487090Y-97942404D02*
X139058519Y-97370976D01*
X139058519Y-97370976D02*
X139058519Y-97990023D01*
X138058519Y-98609071D02*
X138058519Y-98704309D01*
X138058519Y-98704309D02*
X138106138Y-98799547D01*
X138106138Y-98799547D02*
X138153757Y-98847166D01*
X138153757Y-98847166D02*
X138248995Y-98894785D01*
X138248995Y-98894785D02*
X138439471Y-98942404D01*
X138439471Y-98942404D02*
X138677566Y-98942404D01*
X138677566Y-98942404D02*
X138868042Y-98894785D01*
X138868042Y-98894785D02*
X138963280Y-98847166D01*
X138963280Y-98847166D02*
X139010900Y-98799547D01*
X139010900Y-98799547D02*
X139058519Y-98704309D01*
X139058519Y-98704309D02*
X139058519Y-98609071D01*
X139058519Y-98609071D02*
X139010900Y-98513833D01*
X139010900Y-98513833D02*
X138963280Y-98466214D01*
X138963280Y-98466214D02*
X138868042Y-98418595D01*
X138868042Y-98418595D02*
X138677566Y-98370976D01*
X138677566Y-98370976D02*
X138439471Y-98370976D01*
X138439471Y-98370976D02*
X138248995Y-98418595D01*
X138248995Y-98418595D02*
X138153757Y-98466214D01*
X138153757Y-98466214D02*
X138106138Y-98513833D01*
X138106138Y-98513833D02*
X138058519Y-98609071D01*
X139058519Y-99942404D02*
X138582328Y-99609071D01*
X139058519Y-99370976D02*
X138058519Y-99370976D01*
X138058519Y-99370976D02*
X138058519Y-99751928D01*
X138058519Y-99751928D02*
X138106138Y-99847166D01*
X138106138Y-99847166D02*
X138153757Y-99894785D01*
X138153757Y-99894785D02*
X138248995Y-99942404D01*
X138248995Y-99942404D02*
X138391852Y-99942404D01*
X138391852Y-99942404D02*
X138487090Y-99894785D01*
X138487090Y-99894785D02*
X138534709Y-99847166D01*
X138534709Y-99847166D02*
X138582328Y-99751928D01*
X138582328Y-99751928D02*
X138582328Y-99370976D01*
D11*
X137180849Y-98597166D02*
X136942754Y-98430500D01*
X137180849Y-98311452D02*
X136680849Y-98311452D01*
X136680849Y-98311452D02*
X136680849Y-98501928D01*
X136680849Y-98501928D02*
X136704659Y-98549547D01*
X136704659Y-98549547D02*
X136728468Y-98573357D01*
X136728468Y-98573357D02*
X136776087Y-98597166D01*
X136776087Y-98597166D02*
X136847516Y-98597166D01*
X136847516Y-98597166D02*
X136895135Y-98573357D01*
X136895135Y-98573357D02*
X136918944Y-98549547D01*
X136918944Y-98549547D02*
X136942754Y-98501928D01*
X136942754Y-98501928D02*
X136942754Y-98311452D01*
X137180849Y-99073357D02*
X137180849Y-98787643D01*
X137180849Y-98930500D02*
X136680849Y-98930500D01*
X136680849Y-98930500D02*
X136752278Y-98882881D01*
X136752278Y-98882881D02*
X136799897Y-98835262D01*
X136799897Y-98835262D02*
X136823706Y-98787643D01*
D10*
X157547619Y-86274819D02*
X158119047Y-86274819D01*
X157833333Y-86274819D02*
X157833333Y-85274819D01*
X157833333Y-85274819D02*
X157928571Y-85417676D01*
X157928571Y-85417676D02*
X158023809Y-85512914D01*
X158023809Y-85512914D02*
X158119047Y-85560533D01*
X156928571Y-85274819D02*
X156833333Y-85274819D01*
X156833333Y-85274819D02*
X156738095Y-85322438D01*
X156738095Y-85322438D02*
X156690476Y-85370057D01*
X156690476Y-85370057D02*
X156642857Y-85465295D01*
X156642857Y-85465295D02*
X156595238Y-85655771D01*
X156595238Y-85655771D02*
X156595238Y-85893866D01*
X156595238Y-85893866D02*
X156642857Y-86084342D01*
X156642857Y-86084342D02*
X156690476Y-86179580D01*
X156690476Y-86179580D02*
X156738095Y-86227200D01*
X156738095Y-86227200D02*
X156833333Y-86274819D01*
X156833333Y-86274819D02*
X156928571Y-86274819D01*
X156928571Y-86274819D02*
X157023809Y-86227200D01*
X157023809Y-86227200D02*
X157071428Y-86179580D01*
X157071428Y-86179580D02*
X157119047Y-86084342D01*
X157119047Y-86084342D02*
X157166666Y-85893866D01*
X157166666Y-85893866D02*
X157166666Y-85655771D01*
X157166666Y-85655771D02*
X157119047Y-85465295D01*
X157119047Y-85465295D02*
X157071428Y-85370057D01*
X157071428Y-85370057D02*
X157023809Y-85322438D01*
X157023809Y-85322438D02*
X156928571Y-85274819D01*
X155976190Y-85274819D02*
X155880952Y-85274819D01*
X155880952Y-85274819D02*
X155785714Y-85322438D01*
X155785714Y-85322438D02*
X155738095Y-85370057D01*
X155738095Y-85370057D02*
X155690476Y-85465295D01*
X155690476Y-85465295D02*
X155642857Y-85655771D01*
X155642857Y-85655771D02*
X155642857Y-85893866D01*
X155642857Y-85893866D02*
X155690476Y-86084342D01*
X155690476Y-86084342D02*
X155738095Y-86179580D01*
X155738095Y-86179580D02*
X155785714Y-86227200D01*
X155785714Y-86227200D02*
X155880952Y-86274819D01*
X155880952Y-86274819D02*
X155976190Y-86274819D01*
X155976190Y-86274819D02*
X156071428Y-86227200D01*
X156071428Y-86227200D02*
X156119047Y-86179580D01*
X156119047Y-86179580D02*
X156166666Y-86084342D01*
X156166666Y-86084342D02*
X156214285Y-85893866D01*
X156214285Y-85893866D02*
X156214285Y-85655771D01*
X156214285Y-85655771D02*
X156166666Y-85465295D01*
X156166666Y-85465295D02*
X156119047Y-85370057D01*
X156119047Y-85370057D02*
X156071428Y-85322438D01*
X156071428Y-85322438D02*
X155976190Y-85274819D01*
X155214285Y-85608152D02*
X155214285Y-86274819D01*
X155214285Y-85703390D02*
X155166666Y-85655771D01*
X155166666Y-85655771D02*
X155071428Y-85608152D01*
X155071428Y-85608152D02*
X154928571Y-85608152D01*
X154928571Y-85608152D02*
X154833333Y-85655771D01*
X154833333Y-85655771D02*
X154785714Y-85751009D01*
X154785714Y-85751009D02*
X154785714Y-86274819D01*
X153976190Y-85751009D02*
X154309523Y-85751009D01*
X154309523Y-86274819D02*
X154309523Y-85274819D01*
X154309523Y-85274819D02*
X153833333Y-85274819D01*
D11*
X156083333Y-87679530D02*
X156107142Y-87703340D01*
X156107142Y-87703340D02*
X156178571Y-87727149D01*
X156178571Y-87727149D02*
X156226190Y-87727149D01*
X156226190Y-87727149D02*
X156297618Y-87703340D01*
X156297618Y-87703340D02*
X156345237Y-87655720D01*
X156345237Y-87655720D02*
X156369047Y-87608101D01*
X156369047Y-87608101D02*
X156392856Y-87512863D01*
X156392856Y-87512863D02*
X156392856Y-87441435D01*
X156392856Y-87441435D02*
X156369047Y-87346197D01*
X156369047Y-87346197D02*
X156345237Y-87298578D01*
X156345237Y-87298578D02*
X156297618Y-87250959D01*
X156297618Y-87250959D02*
X156226190Y-87227149D01*
X156226190Y-87227149D02*
X156178571Y-87227149D01*
X156178571Y-87227149D02*
X156107142Y-87250959D01*
X156107142Y-87250959D02*
X156083333Y-87274768D01*
X155892856Y-87274768D02*
X155869047Y-87250959D01*
X155869047Y-87250959D02*
X155821428Y-87227149D01*
X155821428Y-87227149D02*
X155702380Y-87227149D01*
X155702380Y-87227149D02*
X155654761Y-87250959D01*
X155654761Y-87250959D02*
X155630952Y-87274768D01*
X155630952Y-87274768D02*
X155607142Y-87322387D01*
X155607142Y-87322387D02*
X155607142Y-87370006D01*
X155607142Y-87370006D02*
X155630952Y-87441435D01*
X155630952Y-87441435D02*
X155916666Y-87727149D01*
X155916666Y-87727149D02*
X155607142Y-87727149D01*
D10*
X139134819Y-89404761D02*
X139134819Y-88833333D01*
X139134819Y-89119047D02*
X138134819Y-89119047D01*
X138134819Y-89119047D02*
X138277676Y-89023809D01*
X138277676Y-89023809D02*
X138372914Y-88928571D01*
X138372914Y-88928571D02*
X138420533Y-88833333D01*
X138468152Y-90261904D02*
X139134819Y-90261904D01*
X138468152Y-89833333D02*
X138991961Y-89833333D01*
X138991961Y-89833333D02*
X139087200Y-89880952D01*
X139087200Y-89880952D02*
X139134819Y-89976190D01*
X139134819Y-89976190D02*
X139134819Y-90119047D01*
X139134819Y-90119047D02*
X139087200Y-90214285D01*
X139087200Y-90214285D02*
X139039580Y-90261904D01*
X138611009Y-91071428D02*
X138611009Y-90738095D01*
X139134819Y-90738095D02*
X138134819Y-90738095D01*
X138134819Y-90738095D02*
X138134819Y-91214285D01*
D11*
X137179530Y-89916666D02*
X137203340Y-89892857D01*
X137203340Y-89892857D02*
X137227149Y-89821428D01*
X137227149Y-89821428D02*
X137227149Y-89773809D01*
X137227149Y-89773809D02*
X137203340Y-89702381D01*
X137203340Y-89702381D02*
X137155720Y-89654762D01*
X137155720Y-89654762D02*
X137108101Y-89630952D01*
X137108101Y-89630952D02*
X137012863Y-89607143D01*
X137012863Y-89607143D02*
X136941435Y-89607143D01*
X136941435Y-89607143D02*
X136846197Y-89630952D01*
X136846197Y-89630952D02*
X136798578Y-89654762D01*
X136798578Y-89654762D02*
X136750959Y-89702381D01*
X136750959Y-89702381D02*
X136727149Y-89773809D01*
X136727149Y-89773809D02*
X136727149Y-89821428D01*
X136727149Y-89821428D02*
X136750959Y-89892857D01*
X136750959Y-89892857D02*
X136774768Y-89916666D01*
X136727149Y-90083333D02*
X136727149Y-90392857D01*
X136727149Y-90392857D02*
X136917625Y-90226190D01*
X136917625Y-90226190D02*
X136917625Y-90297619D01*
X136917625Y-90297619D02*
X136941435Y-90345238D01*
X136941435Y-90345238D02*
X136965244Y-90369047D01*
X136965244Y-90369047D02*
X137012863Y-90392857D01*
X137012863Y-90392857D02*
X137131911Y-90392857D01*
X137131911Y-90392857D02*
X137179530Y-90369047D01*
X137179530Y-90369047D02*
X137203340Y-90345238D01*
X137203340Y-90345238D02*
X137227149Y-90297619D01*
X137227149Y-90297619D02*
X137227149Y-90154762D01*
X137227149Y-90154762D02*
X137203340Y-90107143D01*
X137203340Y-90107143D02*
X137179530Y-90083333D01*
D13*
%TO.C,J1*%
X153060000Y-92350000D02*
X153060000Y-96950000D01*
X153060000Y-96950000D02*
X152460000Y-96950000D01*
X152960000Y-97250000D02*
X152960000Y-97950000D01*
X152960000Y-97950000D02*
X148510000Y-97950000D01*
X152460000Y-96950000D02*
X152460000Y-97250000D01*
X152460000Y-97250000D02*
X152960000Y-97250000D01*
X151850000Y-92350000D02*
X151350000Y-93057107D01*
X151350000Y-93057107D02*
X150850000Y-92350000D01*
X148510000Y-92350000D02*
X153060000Y-92350000D01*
X148510000Y-92350000D02*
X143110000Y-92350000D01*
X143710000Y-96950000D02*
X143710000Y-97250000D01*
X143710000Y-97250000D02*
X143210000Y-97250000D01*
X143210000Y-97250000D02*
X143210000Y-97950000D01*
X143210000Y-97950000D02*
X148510000Y-97950000D01*
X143110000Y-92350000D02*
X143110000Y-96950000D01*
X143110000Y-96950000D02*
X143710000Y-96950000D01*
%TO.C,J2*%
X158207300Y-82957100D02*
X158207300Y-80417100D01*
X158207300Y-80417100D02*
X138522300Y-80417100D01*
X138522300Y-80417100D02*
X137887300Y-81052100D01*
X137887300Y-82957100D02*
X158207300Y-82957100D01*
X137887300Y-81052100D02*
X137887300Y-82957100D01*
%TO.C,C1*%
X155000000Y-84375000D02*
X155000000Y-85625000D01*
X155000000Y-85625000D02*
X157000000Y-85625000D01*
X157000000Y-84375000D02*
X155000000Y-84375000D01*
X157000000Y-85625000D02*
X157000000Y-84375000D01*
%TO.C,FID1*%
X160750000Y-87500000D02*
G75*
G02*
X159250000Y-87500000I-750000J0D01*
G01*
X159250000Y-87500000D02*
G75*
G02*
X160750000Y-87500000I750000J0D01*
G01*
%TO.C,FID2*%
X136750000Y-103500000D02*
G75*
G02*
X135250000Y-103500000I-750000J0D01*
G01*
X135250000Y-103500000D02*
G75*
G02*
X136750000Y-103500000I750000J0D01*
G01*
%TO.C,C4*%
X136375000Y-93500000D02*
X136375000Y-95500000D01*
X136375000Y-95500000D02*
X137625000Y-95500000D01*
X137625000Y-93500000D02*
X136375000Y-93500000D01*
X137625000Y-95500000D02*
X137625000Y-93500000D01*
%TO.C,R1*%
X136328700Y-97680500D02*
X136328700Y-99680500D01*
X136328700Y-99680500D02*
X137578700Y-99680500D01*
X137578700Y-97680500D02*
X136328700Y-97680500D01*
X137578700Y-99680500D02*
X137578700Y-97680500D01*
%TO.C,C2*%
X155000000Y-86875000D02*
X155000000Y-88125000D01*
X155000000Y-88125000D02*
X157000000Y-88125000D01*
X157000000Y-86875000D02*
X155000000Y-86875000D01*
X157000000Y-88125000D02*
X157000000Y-86875000D01*
%TO.C,C3*%
X136375000Y-89000000D02*
X136375000Y-91000000D01*
X136375000Y-91000000D02*
X137625000Y-91000000D01*
X137625000Y-89000000D02*
X136375000Y-89000000D01*
X137625000Y-91000000D02*
X137625000Y-89000000D01*
%TD*%
M02*
