%TF.GenerationSoftware,KiCad,Pcbnew,9.0.6*%
%TF.CreationDate,2026-03-23T15:58:29-04:00*%
%TF.ProjectId,COGDisplayBreakout,434f4744-6973-4706-9c61-79427265616b,0.1*%
%TF.SameCoordinates,Original*%
%TF.FileFunction,Copper,L2,Bot*%
%TF.FilePolarity,Positive*%
%FSLAX46Y46*%
G04 Gerber Fmt 4.6, Leading zero omitted, Abs format (unit mm)*
G04 Created by KiCad (PCBNEW 9.0.6) date 2026-03-23 15:58:29*
%MOMM*%
%LPD*%
G01*
G04 APERTURE LIST*
G04 Aperture macros list*
%AMRoundRect*
0 Rectangle with rounded corners*
0 $1 Rounding radius*
0 $2 $3 $4 $5 $6 $7 $8 $9 X,Y pos of 4 corners*
0 Add a 4 corners polygon primitive as box body*
4,1,4,$2,$3,$4,$5,$6,$7,$8,$9,$2,$3,0*
0 Add four circle primitives for the rounded corners*
1,1,$1+$1,$2,$3*
1,1,$1+$1,$4,$5*
1,1,$1+$1,$6,$7*
1,1,$1+$1,$8,$9*
0 Add four rect primitives between the rounded corners*
20,1,$1+$1,$2,$3,$4,$5,0*
20,1,$1+$1,$4,$5,$6,$7,0*
20,1,$1+$1,$6,$7,$8,$9,0*
20,1,$1+$1,$8,$9,$2,$3,0*%
G04 Aperture macros list end*
%TA.AperFunction,SMDPad,CuDef*%
%ADD10R,0.300000X1.800000*%
%TD*%
%TA.AperFunction,SMDPad,CuDef*%
%ADD11R,1.400000X2.200000*%
%TD*%
%TA.AperFunction,ComponentPad*%
%ADD12RoundRect,0.800000X0.500000X0.100000X-0.500000X0.100000X-0.500000X-0.100000X0.500000X-0.100000X0*%
%TD*%
%TA.AperFunction,ComponentPad*%
%ADD13C,1.700000*%
%TD*%
%TA.AperFunction,SMDPad,CuDef*%
%ADD14RoundRect,0.250000X-0.250000X-0.475000X0.250000X-0.475000X0.250000X0.475000X-0.250000X0.475000X0*%
%TD*%
%TA.AperFunction,SMDPad,CuDef*%
%ADD15C,0.500000*%
%TD*%
%TA.AperFunction,SMDPad,CuDef*%
%ADD16RoundRect,0.250000X-0.475000X0.250000X-0.475000X-0.250000X0.475000X-0.250000X0.475000X0.250000X0*%
%TD*%
%TA.AperFunction,SMDPad,CuDef*%
%ADD17RoundRect,0.250000X-0.450000X0.262500X-0.450000X-0.262500X0.450000X-0.262500X0.450000X0.262500X0*%
%TD*%
%TA.AperFunction,ViaPad*%
%ADD18C,0.600000*%
%TD*%
%TA.AperFunction,Conductor*%
%ADD19C,0.200000*%
%TD*%
%TA.AperFunction,Conductor*%
%ADD20C,0.300000*%
%TD*%
%TA.AperFunction,Conductor*%
%ADD21C,0.500000*%
%TD*%
%TA.AperFunction,Conductor*%
%ADD22C,0.400000*%
%TD*%
G04 APERTURE END LIST*
D10*
%TO.P,J1,1,Pin_1*%
%TO.N,/{slash}CS*%
X151350000Y-91700000D03*
%TO.P,J1,2,Pin_2*%
%TO.N,/{slash}RST*%
X150750000Y-91700000D03*
%TO.P,J1,3,Pin_3*%
%TO.N,/A0*%
X150150000Y-91700000D03*
%TO.P,J1,4,Pin_4*%
%TO.N,/SCL*%
X149550000Y-91700000D03*
%TO.P,J1,5,Pin_5*%
%TO.N,/SDA*%
X148950000Y-91700000D03*
%TO.P,J1,6,Pin_6*%
%TO.N,+3V3*%
X148350000Y-91700000D03*
%TO.P,J1,7,Pin_7*%
%TO.N,GND*%
X147750000Y-91700000D03*
%TO.P,J1,8,Pin_8*%
%TO.N,/V0*%
X147150000Y-91700000D03*
%TO.P,J1,9,Pin_9*%
%TO.N,/XV0*%
X146550000Y-91700000D03*
%TO.P,J1,10,Pin_10*%
%TO.N,unconnected-(J1-Pin_10-Pad10)*%
X145950000Y-91700000D03*
%TO.P,J1,11,Pin_11*%
%TO.N,unconnected-(J1-Pin_11-Pad11)*%
X145350000Y-91700000D03*
%TO.P,J1,12,Pin_12*%
%TO.N,/VG*%
X144750000Y-91700000D03*
D11*
%TO.P,J1,MP*%
%TO.N,N/C*%
X153200000Y-94950000D03*
X143000000Y-94950000D03*
%TD*%
D12*
%TO.P,J4,1,Pin_1*%
%TO.N,/LED_A*%
X140490500Y-103965100D03*
%TD*%
D13*
%TO.P,J2,8,Pin_8*%
%TO.N,GND*%
X156937300Y-81687100D03*
%TO.P,J2,7,Pin_7*%
%TO.N,+3V3*%
X154397300Y-81687100D03*
%TO.P,J2,6,Pin_6*%
%TO.N,unconnected-(J2-Pin_6-Pad6)*%
X151857300Y-81687100D03*
%TO.P,J2,5,Pin_5*%
%TO.N,/{slash}CS*%
X149317300Y-81687100D03*
%TO.P,J2,4,Pin_4*%
%TO.N,/{slash}RST*%
X146777300Y-81687100D03*
%TO.P,J2,3,Pin_3*%
%TO.N,/A0*%
X144237300Y-81687100D03*
%TO.P,J2,2,Pin_2*%
%TO.N,/SCL*%
X141697300Y-81687100D03*
%TO.P,J2,1,Pin_1*%
%TO.N,/SDA*%
X139157300Y-81687100D03*
%TD*%
D12*
%TO.P,J5,1,Pin_1*%
%TO.N,GND*%
X155517100Y-103998700D03*
%TD*%
D14*
%TO.P,C1,1*%
%TO.N,+3V3*%
X155050000Y-85000000D03*
%TO.P,C1,2*%
%TO.N,GND*%
X156950000Y-85000000D03*
%TD*%
D15*
%TO.P,FID1,*%
%TO.N,*%
X160000000Y-87500000D03*
%TD*%
%TO.P,FID2,*%
%TO.N,*%
X136000000Y-103500000D03*
%TD*%
D16*
%TO.P,C4,1*%
%TO.N,/VG*%
X137000000Y-93550000D03*
%TO.P,C4,2*%
%TO.N,GND*%
X137000000Y-95450000D03*
%TD*%
D17*
%TO.P,R1,1*%
%TO.N,+3V3*%
X136953700Y-97768000D03*
%TO.P,R1,2*%
%TO.N,/LED_A*%
X136953700Y-99593000D03*
%TD*%
D14*
%TO.P,C2,1*%
%TO.N,+3V3*%
X155050000Y-87500000D03*
%TO.P,C2,2*%
%TO.N,GND*%
X156950000Y-87500000D03*
%TD*%
D16*
%TO.P,C3,1*%
%TO.N,/V0*%
X137000000Y-89050000D03*
%TO.P,C3,2*%
%TO.N,/XV0*%
X137000000Y-90950000D03*
%TD*%
D18*
%TO.N,GND*%
X138320400Y-95643000D03*
X146011600Y-94500000D03*
%TD*%
D19*
%TO.N,/SDA*%
X148800000Y-89700000D02*
X143400000Y-84300000D01*
X148950000Y-89850000D02*
X148950000Y-91700000D01*
X148800000Y-89700000D02*
X148950000Y-89850000D01*
%TO.N,/SCL*%
X149550000Y-88650000D02*
X149550000Y-91700000D01*
X144200000Y-83300000D02*
X149550000Y-88650000D01*
X142987100Y-83300000D02*
X144200000Y-83300000D01*
X141697300Y-81687100D02*
X141697300Y-82010200D01*
X141697300Y-82010200D02*
X142987100Y-83300000D01*
%TO.N,/A0*%
X150150000Y-87599800D02*
X150150000Y-91700000D01*
X144237300Y-81687100D02*
X150150000Y-87599800D01*
%TO.N,/{slash}RST*%
X146777300Y-81977300D02*
X146777300Y-81687100D01*
X150750000Y-85950000D02*
X146777300Y-81977300D01*
X150750000Y-91700000D02*
X150750000Y-85950000D01*
%TO.N,/{slash}CS*%
X151350000Y-83719800D02*
X151350000Y-91700000D01*
X149317300Y-81687100D02*
X151350000Y-83719800D01*
%TO.N,+3V3*%
X148350000Y-93477200D02*
X148386400Y-93513600D01*
D20*
X148350000Y-91700000D02*
X148350000Y-93477200D01*
%TO.N,GND*%
X147750000Y-92761600D02*
X146011600Y-94500000D01*
X147750000Y-91700000D02*
X147750000Y-92761600D01*
D19*
%TO.N,/V0*%
X146150000Y-89050000D02*
X137000000Y-89050000D01*
X147150000Y-90050000D02*
X146150000Y-89050000D01*
X147150000Y-91700000D02*
X147150000Y-90050000D01*
%TO.N,/XV0*%
X146200000Y-90100000D02*
X137850000Y-90100000D01*
X146550000Y-90450000D02*
X146200000Y-90100000D01*
X137850000Y-90100000D02*
X137000000Y-90950000D01*
X146550000Y-91700000D02*
X146550000Y-90450000D01*
%TO.N,/VG*%
X137648300Y-92901700D02*
X137000000Y-93550000D01*
X144598300Y-92901700D02*
X137648300Y-92901700D01*
X144750000Y-91700000D02*
X144750000Y-92750000D01*
X144750000Y-92750000D02*
X144598300Y-92901700D01*
%TO.N,/SDA*%
X139157300Y-82163860D02*
X139157300Y-81687100D01*
X139163860Y-82163860D02*
X139157300Y-82163860D01*
X141300000Y-84300000D02*
X139163860Y-82163860D01*
X143400000Y-84300000D02*
X141300000Y-84300000D01*
D21*
%TO.N,+3V3*%
X155050000Y-90050000D02*
X155050000Y-87500000D01*
X151586400Y-93513600D02*
X155050000Y-90050000D01*
X148386400Y-93513600D02*
X151586400Y-93513600D01*
X144132000Y-97768000D02*
X148386400Y-93513600D01*
X136953700Y-97768000D02*
X144132000Y-97768000D01*
%TO.N,GND*%
X156950000Y-81699800D02*
X156950000Y-85000000D01*
D19*
X156937300Y-81687100D02*
X156950000Y-81699800D01*
D21*
X156950000Y-85000000D02*
X156950000Y-87500000D01*
%TO.N,/LED_A*%
X136953700Y-100428300D02*
X136953700Y-99593000D01*
X140490500Y-103965100D02*
X136953700Y-100428300D01*
%TO.N,+3V3*%
X155050000Y-85000000D02*
X155050000Y-87500000D01*
X154397300Y-84347300D02*
X154397300Y-81687100D01*
X155050000Y-85000000D02*
X154397300Y-84347300D01*
D19*
%TO.N,GND*%
X137193000Y-95643000D02*
X137000000Y-95450000D01*
D22*
X138320400Y-95643000D02*
X137193000Y-95643000D01*
%TD*%
M02*
