%TF.GenerationSoftware,KiCad,Pcbnew,9.0.6*%
%TF.CreationDate,2026-03-23T15:58:29-04:00*%
%TF.ProjectId,COGDisplayBreakout,434f4744-6973-4706-9c61-79427265616b,0.1*%
%TF.SameCoordinates,Original*%
%TF.FileFunction,Copper,L1,Top*%
%TF.FilePolarity,Positive*%
%FSLAX46Y46*%
G04 Gerber Fmt 4.6, Leading zero omitted, Abs format (unit mm)*
G04 Created by KiCad (PCBNEW 9.0.6) date 2026-03-23 15:58:29*
%MOMM*%
%LPD*%
G01*
G04 APERTURE LIST*
G04 Aperture macros list*
%AMRoundRect*
0 Rectangle with rounded corners*
0 $1 Rounding radius*
0 $2 $3 $4 $5 $6 $7 $8 $9 X,Y pos of 4 corners*
0 Add a 4 corners polygon primitive as box body*
4,1,4,$2,$3,$4,$5,$6,$7,$8,$9,$2,$3,0*
0 Add four circle primitives for the rounded corners*
1,1,$1+$1,$2,$3*
1,1,$1+$1,$4,$5*
1,1,$1+$1,$6,$7*
1,1,$1+$1,$8,$9*
0 Add four rect primitives between the rounded corners*
20,1,$1+$1,$2,$3,$4,$5,0*
20,1,$1+$1,$4,$5,$6,$7,0*
20,1,$1+$1,$6,$7,$8,$9,0*
20,1,$1+$1,$8,$9,$2,$3,0*%
G04 Aperture macros list end*
%TA.AperFunction,ComponentPad*%
%ADD10RoundRect,0.800000X0.500000X0.100000X-0.500000X0.100000X-0.500000X-0.100000X0.500000X-0.100000X0*%
%TD*%
%TA.AperFunction,ComponentPad*%
%ADD11C,1.700000*%
%TD*%
%TA.AperFunction,ViaPad*%
%ADD12C,0.600000*%
%TD*%
G04 APERTURE END LIST*
D10*
%TO.P,J4,1,Pin_1*%
%TO.N,/LED_A*%
X140490500Y-103965100D03*
%TD*%
D11*
%TO.P,J2,8,Pin_8*%
%TO.N,GND*%
X156937300Y-81687100D03*
%TO.P,J2,7,Pin_7*%
%TO.N,+3V3*%
X154397300Y-81687100D03*
%TO.P,J2,6,Pin_6*%
%TO.N,unconnected-(J2-Pin_6-Pad6)*%
X151857300Y-81687100D03*
%TO.P,J2,5,Pin_5*%
%TO.N,/{slash}CS*%
X149317300Y-81687100D03*
%TO.P,J2,4,Pin_4*%
%TO.N,/{slash}RST*%
X146777300Y-81687100D03*
%TO.P,J2,3,Pin_3*%
%TO.N,/A0*%
X144237300Y-81687100D03*
%TO.P,J2,2,Pin_2*%
%TO.N,/SCL*%
X141697300Y-81687100D03*
%TO.P,J2,1,Pin_1*%
%TO.N,/SDA*%
X139157300Y-81687100D03*
%TD*%
D10*
%TO.P,J5,1,Pin_1*%
%TO.N,GND*%
X155517100Y-103998700D03*
%TD*%
D12*
%TO.N,GND*%
X138320400Y-95643000D03*
X146011600Y-94500000D03*
%TD*%
%TA.AperFunction,Conductor*%
%TO.N,GND*%
G36*
X160069042Y-79625765D02*
G01*
X160091774Y-79627254D01*
X160323114Y-79642417D01*
X160339172Y-79644532D01*
X160584888Y-79693408D01*
X160600554Y-79697606D01*
X160751736Y-79748925D01*
X160837788Y-79778136D01*
X160852765Y-79784339D01*
X161070336Y-79891633D01*
X161077460Y-79895146D01*
X161091508Y-79903256D01*
X161299815Y-80042443D01*
X161312679Y-80052314D01*
X161501033Y-80217497D01*
X161512502Y-80228966D01*
X161677685Y-80417320D01*
X161687559Y-80430188D01*
X161826743Y-80638492D01*
X161834853Y-80652539D01*
X161945657Y-80877227D01*
X161951864Y-80892213D01*
X162032393Y-81129445D01*
X162036591Y-81145111D01*
X162085465Y-81390813D01*
X162087583Y-81406895D01*
X162104235Y-81660956D01*
X162104500Y-81669066D01*
X162104500Y-83565106D01*
X162084815Y-83632145D01*
X162032011Y-83677900D01*
X161962853Y-83687844D01*
X161899297Y-83658819D01*
X161892819Y-83652787D01*
X161730028Y-83489996D01*
X161730023Y-83489992D01*
X161532589Y-83346549D01*
X161532588Y-83346548D01*
X161532586Y-83346547D01*
X161315132Y-83235749D01*
X161083023Y-83160332D01*
X161083021Y-83160331D01*
X161083019Y-83160331D01*
X160852579Y-83123832D01*
X160789444Y-83093902D01*
X160752513Y-83034591D01*
X160753511Y-82964728D01*
X160792121Y-82906496D01*
X160799076Y-82901053D01*
X160970210Y-82776717D01*
X161137217Y-82609710D01*
X161276043Y-82418633D01*
X161383268Y-82208192D01*
X161456253Y-81983568D01*
X161472642Y-81880093D01*
X161493200Y-81750297D01*
X161493200Y-81514102D01*
X161456253Y-81280831D01*
X161383266Y-81056203D01*
X161295787Y-80884517D01*
X161276043Y-80845767D01*
X161137217Y-80654690D01*
X160970210Y-80487683D01*
X160779133Y-80348857D01*
X160756059Y-80337100D01*
X160568696Y-80241633D01*
X160344068Y-80168646D01*
X160110797Y-80131700D01*
X160110792Y-80131700D01*
X159874608Y-80131700D01*
X159874603Y-80131700D01*
X159641331Y-80168646D01*
X159416703Y-80241633D01*
X159206266Y-80348857D01*
X159112036Y-80417320D01*
X159015190Y-80487683D01*
X159015188Y-80487685D01*
X159015187Y-80487685D01*
X158848185Y-80654687D01*
X158848185Y-80654688D01*
X158848183Y-80654690D01*
X158846512Y-80656990D01*
X158709357Y-80845766D01*
X158602133Y-81056203D01*
X158529147Y-81280830D01*
X158506936Y-81421059D01*
X158477006Y-81484193D01*
X158417694Y-81521124D01*
X158347832Y-81520126D01*
X158289599Y-81481515D01*
X158261989Y-81421056D01*
X158254056Y-81370966D01*
X158188395Y-81168882D01*
X158091924Y-80979549D01*
X158052570Y-80925382D01*
X158052569Y-80925382D01*
X157420262Y-81557690D01*
X157403225Y-81494107D01*
X157337399Y-81380093D01*
X157244307Y-81287001D01*
X157130293Y-81221175D01*
X157066709Y-81204137D01*
X157699016Y-80571828D01*
X157644850Y-80532475D01*
X157455517Y-80436004D01*
X157253429Y-80370342D01*
X157043546Y-80337100D01*
X156831054Y-80337100D01*
X156621172Y-80370342D01*
X156621169Y-80370342D01*
X156419082Y-80436004D01*
X156229739Y-80532480D01*
X156175582Y-80571827D01*
X156175582Y-80571828D01*
X156807891Y-81204137D01*
X156744307Y-81221175D01*
X156630293Y-81287001D01*
X156537201Y-81380093D01*
X156471375Y-81494107D01*
X156454337Y-81557691D01*
X155822028Y-80925382D01*
X155822027Y-80925382D01*
X155782680Y-80979540D01*
X155782676Y-80979546D01*
X155778060Y-80988605D01*
X155730081Y-81039397D01*
X155662259Y-81056187D01*
X155596126Y-81033643D01*
X155557094Y-80988593D01*
X155552351Y-80979284D01*
X155552349Y-80979281D01*
X155552348Y-80979279D01*
X155427409Y-80807313D01*
X155277086Y-80656990D01*
X155105120Y-80532051D01*
X154915714Y-80435544D01*
X154915713Y-80435543D01*
X154915712Y-80435543D01*
X154713543Y-80369854D01*
X154713541Y-80369853D01*
X154713540Y-80369853D01*
X154552257Y-80344308D01*
X154503587Y-80336600D01*
X154291013Y-80336600D01*
X154242342Y-80344308D01*
X154081060Y-80369853D01*
X153878885Y-80435544D01*
X153689479Y-80532051D01*
X153517513Y-80656990D01*
X153367190Y-80807313D01*
X153242249Y-80979282D01*
X153237784Y-80988046D01*
X153189809Y-81038842D01*
X153121988Y-81055636D01*
X153055853Y-81033098D01*
X153016816Y-80988046D01*
X153012350Y-80979282D01*
X152887409Y-80807313D01*
X152737086Y-80656990D01*
X152565120Y-80532051D01*
X152375714Y-80435544D01*
X152375713Y-80435543D01*
X152375712Y-80435543D01*
X152173543Y-80369854D01*
X152173541Y-80369853D01*
X152173540Y-80369853D01*
X152012257Y-80344308D01*
X151963587Y-80336600D01*
X151751013Y-80336600D01*
X151702342Y-80344308D01*
X151541060Y-80369853D01*
X151338885Y-80435544D01*
X151149479Y-80532051D01*
X150977513Y-80656990D01*
X150827190Y-80807313D01*
X150702249Y-80979282D01*
X150697784Y-80988046D01*
X150649809Y-81038842D01*
X150581988Y-81055636D01*
X150515853Y-81033098D01*
X150476816Y-80988046D01*
X150472350Y-80979282D01*
X150347409Y-80807313D01*
X150197086Y-80656990D01*
X150025120Y-80532051D01*
X149835714Y-80435544D01*
X149835713Y-80435543D01*
X149835712Y-80435543D01*
X149633543Y-80369854D01*
X149633541Y-80369853D01*
X149633540Y-80369853D01*
X149472257Y-80344308D01*
X149423587Y-80336600D01*
X149211013Y-80336600D01*
X149162342Y-80344308D01*
X149001060Y-80369853D01*
X148798885Y-80435544D01*
X148609479Y-80532051D01*
X148437513Y-80656990D01*
X148287190Y-80807313D01*
X148162249Y-80979282D01*
X148157784Y-80988046D01*
X148109809Y-81038842D01*
X148041988Y-81055636D01*
X147975853Y-81033098D01*
X147936816Y-80988046D01*
X147932350Y-80979282D01*
X147807409Y-80807313D01*
X147657086Y-80656990D01*
X147485120Y-80532051D01*
X147295714Y-80435544D01*
X147295713Y-80435543D01*
X147295712Y-80435543D01*
X147093543Y-80369854D01*
X147093541Y-80369853D01*
X147093540Y-80369853D01*
X146932257Y-80344308D01*
X146883587Y-80336600D01*
X146671013Y-80336600D01*
X146622342Y-80344308D01*
X146461060Y-80369853D01*
X146258885Y-80435544D01*
X146069479Y-80532051D01*
X145897513Y-80656990D01*
X145747190Y-80807313D01*
X145622249Y-80979282D01*
X145617784Y-80988046D01*
X145569809Y-81038842D01*
X145501988Y-81055636D01*
X145435853Y-81033098D01*
X145396816Y-80988046D01*
X145392350Y-80979282D01*
X145267409Y-80807313D01*
X145117086Y-80656990D01*
X144945120Y-80532051D01*
X144755714Y-80435544D01*
X144755713Y-80435543D01*
X144755712Y-80435543D01*
X144553543Y-80369854D01*
X144553541Y-80369853D01*
X144553540Y-80369853D01*
X144392257Y-80344308D01*
X144343587Y-80336600D01*
X144131013Y-80336600D01*
X144082342Y-80344308D01*
X143921060Y-80369853D01*
X143718885Y-80435544D01*
X143529479Y-80532051D01*
X143357513Y-80656990D01*
X143207190Y-80807313D01*
X143082249Y-80979282D01*
X143077784Y-80988046D01*
X143029809Y-81038842D01*
X142961988Y-81055636D01*
X142895853Y-81033098D01*
X142856816Y-80988046D01*
X142852350Y-80979282D01*
X142727409Y-80807313D01*
X142577086Y-80656990D01*
X142405120Y-80532051D01*
X142215714Y-80435544D01*
X142215713Y-80435543D01*
X142215712Y-80435543D01*
X142013543Y-80369854D01*
X142013541Y-80369853D01*
X142013540Y-80369853D01*
X141852257Y-80344308D01*
X141803587Y-80336600D01*
X141591013Y-80336600D01*
X141542342Y-80344308D01*
X141381060Y-80369853D01*
X141178885Y-80435544D01*
X140989479Y-80532051D01*
X140817513Y-80656990D01*
X140667190Y-80807313D01*
X140542249Y-80979282D01*
X140537784Y-80988046D01*
X140489809Y-81038842D01*
X140421988Y-81055636D01*
X140355853Y-81033098D01*
X140316816Y-80988046D01*
X140312350Y-80979282D01*
X140187409Y-80807313D01*
X140037086Y-80656990D01*
X139865120Y-80532051D01*
X139675714Y-80435544D01*
X139675713Y-80435543D01*
X139675712Y-80435543D01*
X139473543Y-80369854D01*
X139473541Y-80369853D01*
X139473540Y-80369853D01*
X139312257Y-80344308D01*
X139263587Y-80336600D01*
X139051013Y-80336600D01*
X139002342Y-80344308D01*
X138841060Y-80369853D01*
X138638885Y-80435544D01*
X138449479Y-80532051D01*
X138277513Y-80656990D01*
X138127190Y-80807313D01*
X138002251Y-80979279D01*
X137905744Y-81168685D01*
X137840053Y-81370860D01*
X137806800Y-81580813D01*
X137806800Y-81793386D01*
X137840053Y-82003339D01*
X137905744Y-82205514D01*
X138002251Y-82394920D01*
X138127190Y-82566886D01*
X138277513Y-82717209D01*
X138449479Y-82842148D01*
X138449481Y-82842149D01*
X138449484Y-82842151D01*
X138638888Y-82938657D01*
X138841057Y-83004346D01*
X139051013Y-83037600D01*
X139051014Y-83037600D01*
X139263586Y-83037600D01*
X139263587Y-83037600D01*
X139473543Y-83004346D01*
X139675712Y-82938657D01*
X139865116Y-82842151D01*
X139955183Y-82776714D01*
X140037086Y-82717209D01*
X140037088Y-82717206D01*
X140037092Y-82717204D01*
X140187404Y-82566892D01*
X140187406Y-82566888D01*
X140187409Y-82566886D01*
X140312348Y-82394920D01*
X140312347Y-82394920D01*
X140312351Y-82394916D01*
X140316814Y-82386154D01*
X140364788Y-82335359D01*
X140432608Y-82318563D01*
X140498744Y-82341099D01*
X140537786Y-82386156D01*
X140542251Y-82394920D01*
X140667190Y-82566886D01*
X140817513Y-82717209D01*
X140989479Y-82842148D01*
X140989481Y-82842149D01*
X140989484Y-82842151D01*
X141178888Y-82938657D01*
X141381057Y-83004346D01*
X141591013Y-83037600D01*
X141591014Y-83037600D01*
X141803586Y-83037600D01*
X141803587Y-83037600D01*
X142013543Y-83004346D01*
X142215712Y-82938657D01*
X142405116Y-82842151D01*
X142495183Y-82776714D01*
X142577086Y-82717209D01*
X142577088Y-82717206D01*
X142577092Y-82717204D01*
X142727404Y-82566892D01*
X142727406Y-82566888D01*
X142727409Y-82566886D01*
X142852348Y-82394920D01*
X142852347Y-82394920D01*
X142852351Y-82394916D01*
X142856814Y-82386154D01*
X142904788Y-82335359D01*
X142972608Y-82318563D01*
X143038744Y-82341099D01*
X143077786Y-82386156D01*
X143082251Y-82394920D01*
X143207190Y-82566886D01*
X143357513Y-82717209D01*
X143529479Y-82842148D01*
X143529481Y-82842149D01*
X143529484Y-82842151D01*
X143718888Y-82938657D01*
X143921057Y-83004346D01*
X144131013Y-83037600D01*
X144131014Y-83037600D01*
X144343586Y-83037600D01*
X144343587Y-83037600D01*
X144553543Y-83004346D01*
X144755712Y-82938657D01*
X144945116Y-82842151D01*
X145035183Y-82776714D01*
X145117086Y-82717209D01*
X145117088Y-82717206D01*
X145117092Y-82717204D01*
X145267404Y-82566892D01*
X145267406Y-82566888D01*
X145267409Y-82566886D01*
X145392348Y-82394920D01*
X145392347Y-82394920D01*
X145392351Y-82394916D01*
X145396814Y-82386154D01*
X145444788Y-82335359D01*
X145512608Y-82318563D01*
X145578744Y-82341099D01*
X145617786Y-82386156D01*
X145622251Y-82394920D01*
X145747190Y-82566886D01*
X145897513Y-82717209D01*
X146069479Y-82842148D01*
X146069481Y-82842149D01*
X146069484Y-82842151D01*
X146258888Y-82938657D01*
X146461057Y-83004346D01*
X146671013Y-83037600D01*
X146671014Y-83037600D01*
X146883586Y-83037600D01*
X146883587Y-83037600D01*
X147093543Y-83004346D01*
X147295712Y-82938657D01*
X147485116Y-82842151D01*
X147575183Y-82776714D01*
X147657086Y-82717209D01*
X147657088Y-82717206D01*
X147657092Y-82717204D01*
X147807404Y-82566892D01*
X147807406Y-82566888D01*
X147807409Y-82566886D01*
X147932348Y-82394920D01*
X147932347Y-82394920D01*
X147932351Y-82394916D01*
X147936814Y-82386154D01*
X147984788Y-82335359D01*
X148052608Y-82318563D01*
X148118744Y-82341099D01*
X148157786Y-82386156D01*
X148162251Y-82394920D01*
X148287190Y-82566886D01*
X148437513Y-82717209D01*
X148609479Y-82842148D01*
X148609481Y-82842149D01*
X148609484Y-82842151D01*
X148798888Y-82938657D01*
X149001057Y-83004346D01*
X149211013Y-83037600D01*
X149211014Y-83037600D01*
X149423586Y-83037600D01*
X149423587Y-83037600D01*
X149633543Y-83004346D01*
X149835712Y-82938657D01*
X150025116Y-82842151D01*
X150115183Y-82776714D01*
X150197086Y-82717209D01*
X150197088Y-82717206D01*
X150197092Y-82717204D01*
X150347404Y-82566892D01*
X150347406Y-82566888D01*
X150347409Y-82566886D01*
X150472348Y-82394920D01*
X150472347Y-82394920D01*
X150472351Y-82394916D01*
X150476814Y-82386154D01*
X150524788Y-82335359D01*
X150592608Y-82318563D01*
X150658744Y-82341099D01*
X150697786Y-82386156D01*
X150702251Y-82394920D01*
X150827190Y-82566886D01*
X150977513Y-82717209D01*
X151149479Y-82842148D01*
X151149481Y-82842149D01*
X151149484Y-82842151D01*
X151338888Y-82938657D01*
X151541057Y-83004346D01*
X151751013Y-83037600D01*
X151751014Y-83037600D01*
X151963586Y-83037600D01*
X151963587Y-83037600D01*
X152173543Y-83004346D01*
X152375712Y-82938657D01*
X152565116Y-82842151D01*
X152655183Y-82776714D01*
X152737086Y-82717209D01*
X152737088Y-82717206D01*
X152737092Y-82717204D01*
X152887404Y-82566892D01*
X152887406Y-82566888D01*
X152887409Y-82566886D01*
X153012348Y-82394920D01*
X153012347Y-82394920D01*
X153012351Y-82394916D01*
X153016814Y-82386154D01*
X153064788Y-82335359D01*
X153132608Y-82318563D01*
X153198744Y-82341099D01*
X153237786Y-82386156D01*
X153242251Y-82394920D01*
X153367190Y-82566886D01*
X153517513Y-82717209D01*
X153689479Y-82842148D01*
X153689481Y-82842149D01*
X153689484Y-82842151D01*
X153878888Y-82938657D01*
X154081057Y-83004346D01*
X154291013Y-83037600D01*
X154291014Y-83037600D01*
X154503586Y-83037600D01*
X154503587Y-83037600D01*
X154713543Y-83004346D01*
X154915712Y-82938657D01*
X155105116Y-82842151D01*
X155195183Y-82776714D01*
X155277086Y-82717209D01*
X155277088Y-82717206D01*
X155277092Y-82717204D01*
X155427404Y-82566892D01*
X155427406Y-82566888D01*
X155427409Y-82566886D01*
X155513190Y-82448817D01*
X155552351Y-82394916D01*
X155557093Y-82385608D01*
X155605063Y-82334811D01*
X155672883Y-82318011D01*
X155739019Y-82340545D01*
X155778063Y-82385600D01*
X155782673Y-82394647D01*
X155822028Y-82448816D01*
X156454337Y-81816508D01*
X156471375Y-81880093D01*
X156537201Y-81994107D01*
X156630293Y-82087199D01*
X156744307Y-82153025D01*
X156807890Y-82170062D01*
X156175582Y-82802369D01*
X156175582Y-82802370D01*
X156229749Y-82841724D01*
X156419082Y-82938195D01*
X156621170Y-83003857D01*
X156831054Y-83037100D01*
X157043546Y-83037100D01*
X157253427Y-83003857D01*
X157253430Y-83003857D01*
X157455517Y-82938195D01*
X157644854Y-82841722D01*
X157699016Y-82802370D01*
X157699017Y-82802370D01*
X157066708Y-82170062D01*
X157130293Y-82153025D01*
X157244307Y-82087199D01*
X157337399Y-81994107D01*
X157403225Y-81880093D01*
X157420262Y-81816508D01*
X158052570Y-82448817D01*
X158052570Y-82448816D01*
X158091922Y-82394654D01*
X158188395Y-82205317D01*
X158254057Y-82003230D01*
X158254057Y-82003227D01*
X158270686Y-81898240D01*
X158300615Y-81835106D01*
X158359926Y-81798174D01*
X158429789Y-81799172D01*
X158488022Y-81837781D01*
X158515632Y-81898240D01*
X158529146Y-81983568D01*
X158602133Y-82208196D01*
X158697275Y-82394920D01*
X158709357Y-82418633D01*
X158848183Y-82609710D01*
X159015190Y-82776717D01*
X159206267Y-82915543D01*
X159251627Y-82938655D01*
X159416703Y-83022766D01*
X159416705Y-83022766D01*
X159416708Y-83022768D01*
X159641332Y-83095753D01*
X159804426Y-83121584D01*
X159847432Y-83128396D01*
X159910567Y-83158325D01*
X159947498Y-83217637D01*
X159946500Y-83287499D01*
X159907890Y-83345732D01*
X159900920Y-83351187D01*
X159709865Y-83489996D01*
X159537290Y-83662571D01*
X159537286Y-83662576D01*
X159393843Y-83860010D01*
X159283044Y-84077465D01*
X159207625Y-84309580D01*
X159203102Y-84338139D01*
X159169447Y-84550626D01*
X159169447Y-84600929D01*
X159169447Y-84794680D01*
X159207626Y-85035729D01*
X159283043Y-85267838D01*
X159378615Y-85455410D01*
X159393843Y-85485295D01*
X159537286Y-85682729D01*
X159537290Y-85682734D01*
X159709865Y-85855309D01*
X159709870Y-85855313D01*
X159882083Y-85980432D01*
X159907308Y-85998759D01*
X160124762Y-86109557D01*
X160356871Y-86184974D01*
X160597920Y-86223153D01*
X160597921Y-86223153D01*
X160841973Y-86223153D01*
X160841974Y-86223153D01*
X161083023Y-86184974D01*
X161315132Y-86109557D01*
X161532586Y-85998759D01*
X161730030Y-85855308D01*
X161892819Y-85692519D01*
X161954142Y-85659034D01*
X162023834Y-85664018D01*
X162079767Y-85705890D01*
X162104184Y-85771354D01*
X162104500Y-85780200D01*
X162104500Y-105876000D01*
X162084815Y-105943039D01*
X162032011Y-105988794D01*
X161980500Y-106000000D01*
X158149500Y-106000000D01*
X158082461Y-105980315D01*
X158036706Y-105927511D01*
X158025500Y-105876000D01*
X158025500Y-105729110D01*
X158025500Y-105729108D01*
X157991392Y-105601814D01*
X157925500Y-105487686D01*
X157832314Y-105394500D01*
X157775250Y-105361554D01*
X157718187Y-105328608D01*
X157654539Y-105311554D01*
X157590892Y-105294500D01*
X157590891Y-105294500D01*
X156959140Y-105294500D01*
X156892101Y-105274815D01*
X156846346Y-105222011D01*
X156836402Y-105152853D01*
X156865427Y-105089297D01*
X156871459Y-105082819D01*
X157016757Y-104937520D01*
X157147234Y-104751182D01*
X157243365Y-104545026D01*
X157243369Y-104545017D01*
X157302239Y-104325310D01*
X157302241Y-104325299D01*
X157308942Y-104248700D01*
X156182786Y-104248700D01*
X156187180Y-104244306D01*
X156239841Y-104153094D01*
X156267100Y-104051361D01*
X156267100Y-103946039D01*
X156239841Y-103844306D01*
X156187180Y-103753094D01*
X156182786Y-103748700D01*
X157308942Y-103748700D01*
X157308942Y-103748699D01*
X157302240Y-103672094D01*
X157302240Y-103672093D01*
X157243369Y-103452382D01*
X157243365Y-103452373D01*
X157147234Y-103246217D01*
X157016757Y-103059879D01*
X156855920Y-102899042D01*
X156669582Y-102768565D01*
X156463426Y-102672434D01*
X156463417Y-102672430D01*
X156243710Y-102613560D01*
X156243699Y-102613558D01*
X156073866Y-102598700D01*
X155767100Y-102598700D01*
X155767100Y-103598700D01*
X155267100Y-103598700D01*
X155267100Y-102598700D01*
X154960338Y-102598700D01*
X154960334Y-102598701D01*
X154790496Y-102613559D01*
X154790492Y-102613559D01*
X154570782Y-102672430D01*
X154570773Y-102672434D01*
X154364617Y-102768565D01*
X154178279Y-102899042D01*
X154017442Y-103059879D01*
X153886965Y-103246217D01*
X153790834Y-103452373D01*
X153790830Y-103452382D01*
X153731960Y-103672089D01*
X153731958Y-103672100D01*
X153725257Y-103748699D01*
X153725258Y-103748700D01*
X154851414Y-103748700D01*
X154847020Y-103753094D01*
X154794359Y-103844306D01*
X154767100Y-103946039D01*
X154767100Y-104051361D01*
X154794359Y-104153094D01*
X154847020Y-104244306D01*
X154851414Y-104248700D01*
X153725258Y-104248700D01*
X153731959Y-104325305D01*
X153731959Y-104325306D01*
X153790830Y-104545017D01*
X153790834Y-104545026D01*
X153886965Y-104751182D01*
X154017442Y-104937520D01*
X154162741Y-105082819D01*
X154196226Y-105144142D01*
X154191242Y-105213834D01*
X154149370Y-105269767D01*
X154083906Y-105294184D01*
X154075060Y-105294500D01*
X141895367Y-105294500D01*
X141828328Y-105274815D01*
X141782573Y-105222011D01*
X141772629Y-105152853D01*
X141801654Y-105089297D01*
X141824244Y-105068925D01*
X141829640Y-105065146D01*
X141990545Y-104904241D01*
X141990547Y-104904239D01*
X142121068Y-104717834D01*
X142217239Y-104511596D01*
X142276135Y-104291792D01*
X142291000Y-104121884D01*
X142291000Y-103808316D01*
X142290999Y-103808304D01*
X142290540Y-103803050D01*
X142276135Y-103638412D01*
X142276135Y-103638408D01*
X142217239Y-103418604D01*
X142121068Y-103212366D01*
X141990547Y-103025961D01*
X141990545Y-103025958D01*
X141829641Y-102865054D01*
X141643234Y-102734532D01*
X141643232Y-102734531D01*
X141436997Y-102638361D01*
X141436988Y-102638358D01*
X141217197Y-102579466D01*
X141217187Y-102579464D01*
X141047285Y-102564600D01*
X141047284Y-102564600D01*
X139933716Y-102564600D01*
X139933715Y-102564600D01*
X139763812Y-102579464D01*
X139763802Y-102579466D01*
X139544011Y-102638358D01*
X139544002Y-102638361D01*
X139337767Y-102734531D01*
X139337765Y-102734532D01*
X139151358Y-102865054D01*
X138990454Y-103025958D01*
X138859932Y-103212365D01*
X138859931Y-103212367D01*
X138763761Y-103418602D01*
X138763758Y-103418611D01*
X138704866Y-103638402D01*
X138704864Y-103638412D01*
X138690000Y-103808314D01*
X138690000Y-104121885D01*
X138704864Y-104291787D01*
X138704866Y-104291797D01*
X138763758Y-104511588D01*
X138763761Y-104511597D01*
X138859931Y-104717832D01*
X138859932Y-104717834D01*
X138990454Y-104904241D01*
X139151359Y-105065146D01*
X139156756Y-105068925D01*
X139200381Y-105123502D01*
X139207575Y-105193000D01*
X139176052Y-105255355D01*
X139115823Y-105290769D01*
X139085633Y-105294500D01*
X138409108Y-105294500D01*
X138281812Y-105328608D01*
X138167686Y-105394500D01*
X138167683Y-105394502D01*
X138074502Y-105487683D01*
X138074500Y-105487686D01*
X138008608Y-105601812D01*
X137974500Y-105729108D01*
X137974500Y-105876000D01*
X137954815Y-105943039D01*
X137902011Y-105988794D01*
X137850500Y-106000000D01*
X134019500Y-106000000D01*
X133952461Y-105980315D01*
X133906706Y-105927511D01*
X133895500Y-105876000D01*
X133895500Y-85455410D01*
X133915185Y-85388371D01*
X133967989Y-85342616D01*
X134037147Y-85332672D01*
X134100703Y-85361697D01*
X134129985Y-85399115D01*
X134173896Y-85485296D01*
X134317339Y-85682729D01*
X134317343Y-85682734D01*
X134489918Y-85855309D01*
X134489923Y-85855313D01*
X134662136Y-85980432D01*
X134687361Y-85998759D01*
X134904815Y-86109557D01*
X135136924Y-86184974D01*
X135377973Y-86223153D01*
X135377974Y-86223153D01*
X135622026Y-86223153D01*
X135622027Y-86223153D01*
X135863076Y-86184974D01*
X136095185Y-86109557D01*
X136312639Y-85998759D01*
X136510083Y-85855308D01*
X136682655Y-85682736D01*
X136826106Y-85485292D01*
X136936904Y-85267838D01*
X137012321Y-85035729D01*
X137050500Y-84794680D01*
X137050500Y-84550626D01*
X137012321Y-84309577D01*
X136936904Y-84077468D01*
X136826106Y-83860014D01*
X136693793Y-83677900D01*
X136682660Y-83662576D01*
X136682656Y-83662571D01*
X136510081Y-83489996D01*
X136510076Y-83489992D01*
X136312643Y-83346549D01*
X136284638Y-83332280D01*
X136233842Y-83284306D01*
X136217047Y-83216485D01*
X136239584Y-83150350D01*
X136294299Y-83106898D01*
X136321535Y-83099322D01*
X136324496Y-83098852D01*
X136344068Y-83095753D01*
X136568692Y-83022768D01*
X136779133Y-82915543D01*
X136970210Y-82776717D01*
X137137217Y-82609710D01*
X137276043Y-82418633D01*
X137383268Y-82208192D01*
X137456253Y-81983568D01*
X137472642Y-81880093D01*
X137493200Y-81750297D01*
X137493200Y-81514102D01*
X137456253Y-81280831D01*
X137383266Y-81056203D01*
X137295787Y-80884517D01*
X137276043Y-80845767D01*
X137137217Y-80654690D01*
X136970210Y-80487683D01*
X136779133Y-80348857D01*
X136756059Y-80337100D01*
X136568696Y-80241633D01*
X136344068Y-80168646D01*
X136110797Y-80131700D01*
X136110792Y-80131700D01*
X135874608Y-80131700D01*
X135874603Y-80131700D01*
X135641331Y-80168646D01*
X135416703Y-80241633D01*
X135206266Y-80348857D01*
X135112036Y-80417320D01*
X135015190Y-80487683D01*
X135015188Y-80487685D01*
X135015187Y-80487685D01*
X134848185Y-80654687D01*
X134848185Y-80654688D01*
X134848183Y-80654690D01*
X134846512Y-80656990D01*
X134709357Y-80845766D01*
X134602133Y-81056203D01*
X134529146Y-81280831D01*
X134492200Y-81514102D01*
X134492200Y-81750297D01*
X134529146Y-81983568D01*
X134602133Y-82208196D01*
X134697275Y-82394920D01*
X134709357Y-82418633D01*
X134848183Y-82609710D01*
X135015190Y-82776717D01*
X135206267Y-82915543D01*
X135216281Y-82920645D01*
X135267079Y-82968617D01*
X135283877Y-83036437D01*
X135261343Y-83102573D01*
X135206630Y-83146027D01*
X135179392Y-83153605D01*
X135136924Y-83160332D01*
X134904812Y-83235750D01*
X134687357Y-83346549D01*
X134489923Y-83489992D01*
X134489918Y-83489996D01*
X134317343Y-83662571D01*
X134317339Y-83662576D01*
X134173896Y-83860010D01*
X134129985Y-83946190D01*
X134082010Y-83996986D01*
X134014189Y-84013781D01*
X133948054Y-83991243D01*
X133904603Y-83936528D01*
X133895500Y-83889895D01*
X133895500Y-81669066D01*
X133895765Y-81660957D01*
X133904995Y-81520126D01*
X133912417Y-81406883D01*
X133914531Y-81390829D01*
X133963409Y-81145107D01*
X133967606Y-81129445D01*
X134000311Y-81033098D01*
X134048138Y-80892205D01*
X134054336Y-80877239D01*
X134165149Y-80652533D01*
X134173252Y-80638498D01*
X134312448Y-80430176D01*
X134322305Y-80417331D01*
X134487502Y-80228960D01*
X134498960Y-80217502D01*
X134687331Y-80052305D01*
X134700176Y-80042448D01*
X134908498Y-79903252D01*
X134922533Y-79895149D01*
X135147239Y-79784336D01*
X135162205Y-79778138D01*
X135329945Y-79721197D01*
X135399445Y-79697606D01*
X135415107Y-79693409D01*
X135660829Y-79644531D01*
X135676883Y-79642417D01*
X135909848Y-79627148D01*
X135930958Y-79625765D01*
X135939067Y-79625500D01*
X136000892Y-79625500D01*
X159999108Y-79625500D01*
X160060933Y-79625500D01*
X160069042Y-79625765D01*
G37*
%TD.AperFunction*%
%TD*%
M02*
