%TF.GenerationSoftware,KiCad,Pcbnew,9.0.6*%
%TF.CreationDate,2026-04-15T11:07:41-04:00*%
%TF.ProjectId,COGDisplayBreakout,434f4744-6973-4706-9c61-79427265616b,0.1*%
%TF.SameCoordinates,Original*%
%TF.FileFunction,Copper,L1,Top*%
%TF.FilePolarity,Positive*%
%FSLAX46Y46*%
G04 Gerber Fmt 4.6, Leading zero omitted, Abs format (unit mm)*
G04 Created by KiCad (PCBNEW 9.0.6) date 2026-04-15 11:07:41*
%MOMM*%
%LPD*%
G01*
G04 APERTURE LIST*
%TA.AperFunction,ComponentPad*%
%ADD10O,2.800000X1.600000*%
%TD*%
%TA.AperFunction,ComponentPad*%
%ADD11C,1.700000*%
%TD*%
%TA.AperFunction,ViaPad*%
%ADD12C,0.600000*%
%TD*%
%TA.AperFunction,Conductor*%
%ADD13C,0.200000*%
%TD*%
G04 APERTURE END LIST*
D10*
%TO.P,LCD1,A,A*%
%TO.N,/LED_A*%
X155532000Y-104292000D03*
%TO.P,LCD1,K,K*%
%TO.N,GND*%
X140632000Y-104292000D03*
%TD*%
D11*
%TO.P,J1,1,Pin_1*%
%TO.N,/SDA*%
X139157300Y-81687100D03*
%TO.P,J1,2,Pin_2*%
%TO.N,/SCL*%
X141697300Y-81687100D03*
%TO.P,J1,3,Pin_3*%
%TO.N,/A0*%
X144237300Y-81687100D03*
%TO.P,J1,4,Pin_4*%
%TO.N,/{slash}RST*%
X146777300Y-81687100D03*
%TO.P,J1,5,Pin_5*%
%TO.N,/{slash}CS*%
X149317300Y-81687100D03*
%TO.P,J1,6,Pin_6*%
%TO.N,/LED*%
X151857300Y-81687100D03*
%TO.P,J1,7,Pin_7*%
%TO.N,+3V3*%
X154397300Y-81687100D03*
%TO.P,J1,8,Pin_8*%
%TO.N,GND*%
X156937300Y-81687100D03*
%TD*%
D12*
%TO.N,GND*%
X158478000Y-86705300D03*
X158340000Y-85619400D03*
X156065200Y-92375000D03*
X134792500Y-94999700D03*
X147783200Y-90968700D03*
%TO.N,/{slash}CS*%
X152919700Y-92418800D03*
%TO.N,/LED*%
X152411500Y-100808900D03*
%TD*%
D13*
%TO.N,/LED*%
X153591100Y-83420900D02*
X153591100Y-99629300D01*
X151857300Y-81687100D02*
X153591100Y-83420900D01*
%TO.N,/{slash}CS*%
X149317300Y-81687100D02*
X149317300Y-88816400D01*
X149317300Y-88816400D02*
X152919700Y-92418800D01*
%TO.N,/LED*%
X152411500Y-100808900D02*
X153591100Y-99629300D01*
X153591100Y-99629300D02*
X152411500Y-100808900D01*
X153591100Y-99629300D02*
X152411500Y-100808900D01*
%TD*%
%TA.AperFunction,Conductor*%
%TO.N,GND*%
G36*
X160069042Y-79625765D02*
G01*
X160091774Y-79627254D01*
X160323114Y-79642417D01*
X160339172Y-79644532D01*
X160584888Y-79693408D01*
X160600554Y-79697606D01*
X160751736Y-79748925D01*
X160837788Y-79778136D01*
X160852765Y-79784339D01*
X161070336Y-79891633D01*
X161077460Y-79895146D01*
X161091508Y-79903256D01*
X161299815Y-80042443D01*
X161312679Y-80052314D01*
X161501033Y-80217497D01*
X161512502Y-80228966D01*
X161677685Y-80417320D01*
X161687559Y-80430188D01*
X161826743Y-80638492D01*
X161834853Y-80652539D01*
X161945657Y-80877227D01*
X161951864Y-80892213D01*
X162032393Y-81129445D01*
X162036591Y-81145111D01*
X162085465Y-81390813D01*
X162087583Y-81406895D01*
X162104235Y-81660956D01*
X162104500Y-81669066D01*
X162104500Y-84452719D01*
X162084815Y-84519758D01*
X162032011Y-84565513D01*
X161962853Y-84575457D01*
X161899297Y-84546432D01*
X161870015Y-84509014D01*
X161841331Y-84452719D01*
X161794287Y-84360390D01*
X161786556Y-84349749D01*
X161673971Y-84194786D01*
X161529213Y-84050028D01*
X161363613Y-83929715D01*
X161363612Y-83929714D01*
X161363610Y-83929713D01*
X161306653Y-83900691D01*
X161181223Y-83836781D01*
X160986534Y-83773522D01*
X160811995Y-83745878D01*
X160784352Y-83741500D01*
X160579648Y-83741500D01*
X160555329Y-83745351D01*
X160377465Y-83773522D01*
X160182776Y-83836781D01*
X160000386Y-83929715D01*
X159834786Y-84050028D01*
X159690028Y-84194786D01*
X159569715Y-84360386D01*
X159476781Y-84542776D01*
X159413522Y-84737465D01*
X159381500Y-84939648D01*
X159381500Y-85144351D01*
X159413522Y-85346534D01*
X159476781Y-85541223D01*
X159569715Y-85723613D01*
X159690028Y-85889213D01*
X159834786Y-86033971D01*
X159989749Y-86146556D01*
X160000390Y-86154287D01*
X160116607Y-86213503D01*
X160182776Y-86247218D01*
X160182778Y-86247218D01*
X160182781Y-86247220D01*
X160287137Y-86281127D01*
X160377465Y-86310477D01*
X160478557Y-86326488D01*
X160579648Y-86342500D01*
X160579649Y-86342500D01*
X160784351Y-86342500D01*
X160784352Y-86342500D01*
X160986534Y-86310477D01*
X161181219Y-86247220D01*
X161363610Y-86154287D01*
X161456590Y-86086732D01*
X161529213Y-86033971D01*
X161529215Y-86033968D01*
X161529219Y-86033966D01*
X161673966Y-85889219D01*
X161673968Y-85889215D01*
X161673971Y-85889213D01*
X161794284Y-85723614D01*
X161794285Y-85723613D01*
X161794287Y-85723610D01*
X161870015Y-85574984D01*
X161917990Y-85524189D01*
X161985810Y-85507394D01*
X162051945Y-85529931D01*
X162095397Y-85584646D01*
X162104500Y-85631280D01*
X162104500Y-105876000D01*
X162084815Y-105943039D01*
X162032011Y-105988794D01*
X161980500Y-106000000D01*
X158149500Y-106000000D01*
X158082461Y-105980315D01*
X158036706Y-105927511D01*
X158025500Y-105876000D01*
X158025500Y-105729110D01*
X158025500Y-105729108D01*
X157991392Y-105601814D01*
X157925500Y-105487686D01*
X157832314Y-105394500D01*
X157775250Y-105361554D01*
X157718187Y-105328608D01*
X157654539Y-105311554D01*
X157590892Y-105294500D01*
X157590891Y-105294500D01*
X157254512Y-105294500D01*
X157187473Y-105274815D01*
X157141718Y-105222011D01*
X157131774Y-105152853D01*
X157154193Y-105097615D01*
X157171377Y-105073962D01*
X157244287Y-104973610D01*
X157337220Y-104791219D01*
X157400477Y-104596534D01*
X157432500Y-104394352D01*
X157432500Y-104189648D01*
X157424257Y-104137606D01*
X157400477Y-103987465D01*
X157337218Y-103792776D01*
X157244419Y-103610650D01*
X157244287Y-103610390D01*
X157236556Y-103599749D01*
X157123971Y-103444786D01*
X156979213Y-103300028D01*
X156813613Y-103179715D01*
X156813612Y-103179714D01*
X156813610Y-103179713D01*
X156756653Y-103150691D01*
X156631223Y-103086781D01*
X156436534Y-103023522D01*
X156261995Y-102995878D01*
X156234352Y-102991500D01*
X154829648Y-102991500D01*
X154805329Y-102995351D01*
X154627465Y-103023522D01*
X154432776Y-103086781D01*
X154250386Y-103179715D01*
X154084786Y-103300028D01*
X153940028Y-103444786D01*
X153819715Y-103610386D01*
X153726781Y-103792776D01*
X153663522Y-103987465D01*
X153631500Y-104189648D01*
X153631500Y-104394351D01*
X153663522Y-104596534D01*
X153726781Y-104791223D01*
X153819712Y-104973609D01*
X153909807Y-105097615D01*
X153933286Y-105163422D01*
X153917460Y-105231476D01*
X153867354Y-105280170D01*
X153809488Y-105294500D01*
X142353893Y-105294500D01*
X142286854Y-105274815D01*
X142241099Y-105222011D01*
X142231155Y-105152853D01*
X142253575Y-105097614D01*
X142343859Y-104973349D01*
X142436755Y-104791029D01*
X142499990Y-104596413D01*
X142508609Y-104542000D01*
X141547686Y-104542000D01*
X141552080Y-104537606D01*
X141604741Y-104446394D01*
X141632000Y-104344661D01*
X141632000Y-104239339D01*
X141604741Y-104137606D01*
X141552080Y-104046394D01*
X141547686Y-104042000D01*
X142508609Y-104042000D01*
X142499990Y-103987586D01*
X142436755Y-103792970D01*
X142343859Y-103610650D01*
X142223582Y-103445105D01*
X142223582Y-103445104D01*
X142078895Y-103300417D01*
X141913349Y-103180140D01*
X141731031Y-103087244D01*
X141536417Y-103024009D01*
X141334317Y-102992000D01*
X140882000Y-102992000D01*
X140882000Y-103892000D01*
X140382000Y-103892000D01*
X140382000Y-102992000D01*
X139929683Y-102992000D01*
X139727582Y-103024009D01*
X139532968Y-103087244D01*
X139350650Y-103180140D01*
X139185105Y-103300417D01*
X139185104Y-103300417D01*
X139040417Y-103445104D01*
X139040417Y-103445105D01*
X138920140Y-103610650D01*
X138827244Y-103792970D01*
X138764009Y-103987586D01*
X138755391Y-104042000D01*
X139716314Y-104042000D01*
X139711920Y-104046394D01*
X139659259Y-104137606D01*
X139632000Y-104239339D01*
X139632000Y-104344661D01*
X139659259Y-104446394D01*
X139711920Y-104537606D01*
X139716314Y-104542000D01*
X138755391Y-104542000D01*
X138764009Y-104596413D01*
X138827244Y-104791029D01*
X138920140Y-104973349D01*
X139010425Y-105097614D01*
X139033905Y-105163420D01*
X139018080Y-105231474D01*
X138967974Y-105280169D01*
X138910107Y-105294500D01*
X138409108Y-105294500D01*
X138281812Y-105328608D01*
X138167686Y-105394500D01*
X138167683Y-105394502D01*
X138074502Y-105487683D01*
X138074500Y-105487686D01*
X138008608Y-105601812D01*
X137974500Y-105729108D01*
X137974500Y-105876000D01*
X137954815Y-105943039D01*
X137902011Y-105988794D01*
X137850500Y-106000000D01*
X134019500Y-106000000D01*
X133952461Y-105980315D01*
X133906706Y-105927511D01*
X133895500Y-105876000D01*
X133895500Y-84939648D01*
X134181500Y-84939648D01*
X134181500Y-85144351D01*
X134213522Y-85346534D01*
X134276781Y-85541223D01*
X134369715Y-85723613D01*
X134490028Y-85889213D01*
X134634786Y-86033971D01*
X134789749Y-86146556D01*
X134800390Y-86154287D01*
X134916607Y-86213503D01*
X134982776Y-86247218D01*
X134982778Y-86247218D01*
X134982781Y-86247220D01*
X135087137Y-86281127D01*
X135177465Y-86310477D01*
X135278557Y-86326488D01*
X135379648Y-86342500D01*
X135379649Y-86342500D01*
X135584351Y-86342500D01*
X135584352Y-86342500D01*
X135786534Y-86310477D01*
X135981219Y-86247220D01*
X136163610Y-86154287D01*
X136256590Y-86086732D01*
X136329213Y-86033971D01*
X136329215Y-86033968D01*
X136329219Y-86033966D01*
X136473966Y-85889219D01*
X136473968Y-85889215D01*
X136473971Y-85889213D01*
X136526732Y-85816590D01*
X136594287Y-85723610D01*
X136687220Y-85541219D01*
X136750477Y-85346534D01*
X136782500Y-85144352D01*
X136782500Y-84939648D01*
X136750477Y-84737466D01*
X136687220Y-84542781D01*
X136687218Y-84542778D01*
X136687218Y-84542776D01*
X136641331Y-84452719D01*
X136594287Y-84360390D01*
X136586556Y-84349749D01*
X136473971Y-84194786D01*
X136329213Y-84050028D01*
X136163613Y-83929715D01*
X136163612Y-83929714D01*
X136163610Y-83929713D01*
X136106653Y-83900691D01*
X135981223Y-83836781D01*
X135786534Y-83773522D01*
X135611995Y-83745878D01*
X135584352Y-83741500D01*
X135379648Y-83741500D01*
X135355329Y-83745351D01*
X135177465Y-83773522D01*
X134982776Y-83836781D01*
X134800386Y-83929715D01*
X134634786Y-84050028D01*
X134490028Y-84194786D01*
X134369715Y-84360386D01*
X134276781Y-84542776D01*
X134213522Y-84737465D01*
X134181500Y-84939648D01*
X133895500Y-84939648D01*
X133895500Y-81669066D01*
X133895765Y-81660957D01*
X133898366Y-81621274D01*
X133905390Y-81514102D01*
X134492200Y-81514102D01*
X134492200Y-81750297D01*
X134529146Y-81983568D01*
X134602133Y-82208196D01*
X134697275Y-82394920D01*
X134709357Y-82418633D01*
X134848183Y-82609710D01*
X135015190Y-82776717D01*
X135206267Y-82915543D01*
X135251627Y-82938655D01*
X135416703Y-83022766D01*
X135416705Y-83022766D01*
X135416708Y-83022768D01*
X135507241Y-83052184D01*
X135641331Y-83095753D01*
X135874603Y-83132700D01*
X135874608Y-83132700D01*
X136110797Y-83132700D01*
X136344068Y-83095753D01*
X136568692Y-83022768D01*
X136779133Y-82915543D01*
X136970210Y-82776717D01*
X137137217Y-82609710D01*
X137276043Y-82418633D01*
X137383268Y-82208192D01*
X137456253Y-81983568D01*
X137472642Y-81880093D01*
X137493200Y-81750297D01*
X137493200Y-81580813D01*
X137806800Y-81580813D01*
X137806800Y-81793386D01*
X137840053Y-82003339D01*
X137905744Y-82205514D01*
X138002251Y-82394920D01*
X138127190Y-82566886D01*
X138277513Y-82717209D01*
X138449479Y-82842148D01*
X138449481Y-82842149D01*
X138449484Y-82842151D01*
X138638888Y-82938657D01*
X138841057Y-83004346D01*
X139051013Y-83037600D01*
X139051014Y-83037600D01*
X139263586Y-83037600D01*
X139263587Y-83037600D01*
X139473543Y-83004346D01*
X139675712Y-82938657D01*
X139865116Y-82842151D01*
X139955183Y-82776714D01*
X140037086Y-82717209D01*
X140037088Y-82717206D01*
X140037092Y-82717204D01*
X140187404Y-82566892D01*
X140187406Y-82566888D01*
X140187409Y-82566886D01*
X140312348Y-82394920D01*
X140312347Y-82394920D01*
X140312351Y-82394916D01*
X140316814Y-82386154D01*
X140364788Y-82335359D01*
X140432608Y-82318563D01*
X140498744Y-82341099D01*
X140537786Y-82386156D01*
X140542251Y-82394920D01*
X140667190Y-82566886D01*
X140817513Y-82717209D01*
X140989479Y-82842148D01*
X140989481Y-82842149D01*
X140989484Y-82842151D01*
X141178888Y-82938657D01*
X141381057Y-83004346D01*
X141591013Y-83037600D01*
X141591014Y-83037600D01*
X141803586Y-83037600D01*
X141803587Y-83037600D01*
X142013543Y-83004346D01*
X142215712Y-82938657D01*
X142405116Y-82842151D01*
X142495183Y-82776714D01*
X142577086Y-82717209D01*
X142577088Y-82717206D01*
X142577092Y-82717204D01*
X142727404Y-82566892D01*
X142727406Y-82566888D01*
X142727409Y-82566886D01*
X142852348Y-82394920D01*
X142852347Y-82394920D01*
X142852351Y-82394916D01*
X142856814Y-82386154D01*
X142904788Y-82335359D01*
X142972608Y-82318563D01*
X143038744Y-82341099D01*
X143077786Y-82386156D01*
X143082251Y-82394920D01*
X143207190Y-82566886D01*
X143357513Y-82717209D01*
X143529479Y-82842148D01*
X143529481Y-82842149D01*
X143529484Y-82842151D01*
X143718888Y-82938657D01*
X143921057Y-83004346D01*
X144131013Y-83037600D01*
X144131014Y-83037600D01*
X144343586Y-83037600D01*
X144343587Y-83037600D01*
X144553543Y-83004346D01*
X144755712Y-82938657D01*
X144945116Y-82842151D01*
X145035183Y-82776714D01*
X145117086Y-82717209D01*
X145117088Y-82717206D01*
X145117092Y-82717204D01*
X145267404Y-82566892D01*
X145267406Y-82566888D01*
X145267409Y-82566886D01*
X145392348Y-82394920D01*
X145392347Y-82394920D01*
X145392351Y-82394916D01*
X145396814Y-82386154D01*
X145444788Y-82335359D01*
X145512608Y-82318563D01*
X145578744Y-82341099D01*
X145617786Y-82386156D01*
X145622251Y-82394920D01*
X145747190Y-82566886D01*
X145897513Y-82717209D01*
X146069479Y-82842148D01*
X146069481Y-82842149D01*
X146069484Y-82842151D01*
X146258888Y-82938657D01*
X146461057Y-83004346D01*
X146671013Y-83037600D01*
X146671014Y-83037600D01*
X146883586Y-83037600D01*
X146883587Y-83037600D01*
X147093543Y-83004346D01*
X147295712Y-82938657D01*
X147485116Y-82842151D01*
X147575183Y-82776714D01*
X147657086Y-82717209D01*
X147657088Y-82717206D01*
X147657092Y-82717204D01*
X147807404Y-82566892D01*
X147807406Y-82566888D01*
X147807409Y-82566886D01*
X147932348Y-82394920D01*
X147932347Y-82394920D01*
X147932351Y-82394916D01*
X147936814Y-82386154D01*
X147984788Y-82335359D01*
X148052608Y-82318563D01*
X148118744Y-82341099D01*
X148157786Y-82386156D01*
X148162251Y-82394920D01*
X148287190Y-82566886D01*
X148437513Y-82717209D01*
X148609484Y-82842151D01*
X148609484Y-82842152D01*
X148649093Y-82862333D01*
X148699890Y-82910306D01*
X148716800Y-82972818D01*
X148716800Y-88729730D01*
X148716799Y-88729748D01*
X148716799Y-88895454D01*
X148716798Y-88895454D01*
X148757723Y-89048185D01*
X148786658Y-89098300D01*
X148786659Y-89098304D01*
X148786660Y-89098304D01*
X148836779Y-89185114D01*
X148836781Y-89185117D01*
X148955649Y-89303985D01*
X148955655Y-89303990D01*
X152085125Y-92433460D01*
X152118610Y-92494783D01*
X152119061Y-92496949D01*
X152149961Y-92652291D01*
X152149964Y-92652301D01*
X152210302Y-92797972D01*
X152210309Y-92797985D01*
X152297910Y-92929088D01*
X152297913Y-92929092D01*
X152409407Y-93040586D01*
X152409411Y-93040589D01*
X152540514Y-93128190D01*
X152540527Y-93128197D01*
X152686198Y-93188535D01*
X152686203Y-93188537D01*
X152840853Y-93219299D01*
X152840856Y-93219300D01*
X152840858Y-93219300D01*
X152866600Y-93219300D01*
X152933639Y-93238985D01*
X152979394Y-93291789D01*
X152990600Y-93343300D01*
X152990600Y-99329203D01*
X152970915Y-99396242D01*
X152954281Y-99416884D01*
X152396839Y-99974325D01*
X152335516Y-100007810D01*
X152333350Y-100008261D01*
X152178008Y-100039161D01*
X152177998Y-100039164D01*
X152032327Y-100099502D01*
X152032314Y-100099509D01*
X151901211Y-100187110D01*
X151901207Y-100187113D01*
X151789713Y-100298607D01*
X151789710Y-100298611D01*
X151702109Y-100429714D01*
X151702102Y-100429727D01*
X151641764Y-100575398D01*
X151641761Y-100575410D01*
X151611000Y-100730053D01*
X151611000Y-100887746D01*
X151641761Y-101042389D01*
X151641764Y-101042401D01*
X151702102Y-101188072D01*
X151702109Y-101188085D01*
X151789710Y-101319188D01*
X151789713Y-101319192D01*
X151901207Y-101430686D01*
X151901211Y-101430689D01*
X152032314Y-101518290D01*
X152032327Y-101518297D01*
X152177998Y-101578635D01*
X152178003Y-101578637D01*
X152332653Y-101609399D01*
X152332656Y-101609400D01*
X152332658Y-101609400D01*
X152490344Y-101609400D01*
X152490345Y-101609399D01*
X152644997Y-101578637D01*
X152790679Y-101518294D01*
X152921789Y-101430689D01*
X153033289Y-101319189D01*
X153120894Y-101188079D01*
X153181237Y-101042397D01*
X153200613Y-100944985D01*
X153212138Y-100887050D01*
X153244523Y-100825139D01*
X153246021Y-100823613D01*
X153959813Y-100109821D01*
X153959816Y-100109820D01*
X154071620Y-99998016D01*
X154121739Y-99911204D01*
X154150677Y-99861085D01*
X154191600Y-99708358D01*
X154191600Y-99550243D01*
X154191600Y-83341843D01*
X154151478Y-83192105D01*
X154153141Y-83122259D01*
X154192303Y-83064396D01*
X154256532Y-83036892D01*
X154286143Y-83037457D01*
X154286162Y-83037218D01*
X154290185Y-83037534D01*
X154290658Y-83037543D01*
X154291013Y-83037600D01*
X154291016Y-83037600D01*
X154503586Y-83037600D01*
X154503587Y-83037600D01*
X154713543Y-83004346D01*
X154915712Y-82938657D01*
X155105116Y-82842151D01*
X155195183Y-82776714D01*
X155277086Y-82717209D01*
X155277088Y-82717206D01*
X155277092Y-82717204D01*
X155427404Y-82566892D01*
X155427406Y-82566888D01*
X155427409Y-82566886D01*
X155513190Y-82448817D01*
X155552351Y-82394916D01*
X155557093Y-82385608D01*
X155605063Y-82334811D01*
X155672883Y-82318011D01*
X155739019Y-82340545D01*
X155778063Y-82385600D01*
X155782673Y-82394647D01*
X155822028Y-82448816D01*
X156454337Y-81816508D01*
X156471375Y-81880093D01*
X156537201Y-81994107D01*
X156630293Y-82087199D01*
X156744307Y-82153025D01*
X156807890Y-82170062D01*
X156175582Y-82802369D01*
X156175582Y-82802370D01*
X156229749Y-82841724D01*
X156419082Y-82938195D01*
X156621170Y-83003857D01*
X156831054Y-83037100D01*
X157043546Y-83037100D01*
X157253427Y-83003857D01*
X157253430Y-83003857D01*
X157455517Y-82938195D01*
X157644854Y-82841722D01*
X157699016Y-82802370D01*
X157699017Y-82802370D01*
X157066708Y-82170062D01*
X157130293Y-82153025D01*
X157244307Y-82087199D01*
X157337399Y-81994107D01*
X157403225Y-81880093D01*
X157420262Y-81816508D01*
X158052570Y-82448817D01*
X158052570Y-82448816D01*
X158091922Y-82394654D01*
X158188395Y-82205317D01*
X158254057Y-82003230D01*
X158254057Y-82003227D01*
X158270686Y-81898240D01*
X158300615Y-81835106D01*
X158359926Y-81798174D01*
X158429789Y-81799172D01*
X158488022Y-81837781D01*
X158515632Y-81898240D01*
X158529146Y-81983568D01*
X158602133Y-82208196D01*
X158697275Y-82394920D01*
X158709357Y-82418633D01*
X158848183Y-82609710D01*
X159015190Y-82776717D01*
X159206267Y-82915543D01*
X159251627Y-82938655D01*
X159416703Y-83022766D01*
X159416705Y-83022766D01*
X159416708Y-83022768D01*
X159507241Y-83052184D01*
X159641331Y-83095753D01*
X159874603Y-83132700D01*
X159874608Y-83132700D01*
X160110797Y-83132700D01*
X160344068Y-83095753D01*
X160568692Y-83022768D01*
X160779133Y-82915543D01*
X160970210Y-82776717D01*
X161137217Y-82609710D01*
X161276043Y-82418633D01*
X161383268Y-82208192D01*
X161456253Y-81983568D01*
X161472642Y-81880093D01*
X161493200Y-81750297D01*
X161493200Y-81514102D01*
X161456253Y-81280831D01*
X161383266Y-81056203D01*
X161295787Y-80884517D01*
X161276043Y-80845767D01*
X161137217Y-80654690D01*
X160970210Y-80487683D01*
X160779133Y-80348857D01*
X160756059Y-80337100D01*
X160568696Y-80241633D01*
X160344068Y-80168646D01*
X160110797Y-80131700D01*
X160110792Y-80131700D01*
X159874608Y-80131700D01*
X159874603Y-80131700D01*
X159641331Y-80168646D01*
X159416703Y-80241633D01*
X159206266Y-80348857D01*
X159112036Y-80417320D01*
X159015190Y-80487683D01*
X159015188Y-80487685D01*
X159015187Y-80487685D01*
X158848185Y-80654687D01*
X158848185Y-80654688D01*
X158848183Y-80654690D01*
X158846512Y-80656990D01*
X158709357Y-80845766D01*
X158602133Y-81056203D01*
X158529147Y-81280830D01*
X158506936Y-81421059D01*
X158477006Y-81484193D01*
X158417694Y-81521124D01*
X158347832Y-81520126D01*
X158289599Y-81481515D01*
X158261989Y-81421056D01*
X158254056Y-81370966D01*
X158188395Y-81168882D01*
X158091924Y-80979549D01*
X158052570Y-80925382D01*
X158052569Y-80925382D01*
X157420262Y-81557690D01*
X157403225Y-81494107D01*
X157337399Y-81380093D01*
X157244307Y-81287001D01*
X157130293Y-81221175D01*
X157066709Y-81204137D01*
X157699016Y-80571828D01*
X157644850Y-80532475D01*
X157455517Y-80436004D01*
X157253429Y-80370342D01*
X157043546Y-80337100D01*
X156831054Y-80337100D01*
X156621172Y-80370342D01*
X156621169Y-80370342D01*
X156419082Y-80436004D01*
X156229739Y-80532480D01*
X156175582Y-80571827D01*
X156175582Y-80571828D01*
X156807891Y-81204137D01*
X156744307Y-81221175D01*
X156630293Y-81287001D01*
X156537201Y-81380093D01*
X156471375Y-81494107D01*
X156454337Y-81557691D01*
X155822028Y-80925382D01*
X155822027Y-80925382D01*
X155782680Y-80979540D01*
X155782676Y-80979546D01*
X155778060Y-80988605D01*
X155730081Y-81039397D01*
X155662259Y-81056187D01*
X155596126Y-81033643D01*
X155557094Y-80988593D01*
X155552351Y-80979284D01*
X155552349Y-80979281D01*
X155552348Y-80979279D01*
X155427409Y-80807313D01*
X155277086Y-80656990D01*
X155105120Y-80532051D01*
X154915714Y-80435544D01*
X154915713Y-80435543D01*
X154915712Y-80435543D01*
X154713543Y-80369854D01*
X154713541Y-80369853D01*
X154713540Y-80369853D01*
X154552257Y-80344308D01*
X154503587Y-80336600D01*
X154291013Y-80336600D01*
X154242342Y-80344308D01*
X154081060Y-80369853D01*
X153878885Y-80435544D01*
X153689479Y-80532051D01*
X153517513Y-80656990D01*
X153367190Y-80807313D01*
X153242249Y-80979282D01*
X153237784Y-80988046D01*
X153189809Y-81038842D01*
X153121988Y-81055636D01*
X153055853Y-81033098D01*
X153016816Y-80988046D01*
X153012350Y-80979282D01*
X152887409Y-80807313D01*
X152737086Y-80656990D01*
X152565120Y-80532051D01*
X152375714Y-80435544D01*
X152375713Y-80435543D01*
X152375712Y-80435543D01*
X152173543Y-80369854D01*
X152173541Y-80369853D01*
X152173540Y-80369853D01*
X152012257Y-80344308D01*
X151963587Y-80336600D01*
X151751013Y-80336600D01*
X151702342Y-80344308D01*
X151541060Y-80369853D01*
X151338885Y-80435544D01*
X151149479Y-80532051D01*
X150977513Y-80656990D01*
X150827190Y-80807313D01*
X150702249Y-80979282D01*
X150697784Y-80988046D01*
X150649809Y-81038842D01*
X150581988Y-81055636D01*
X150515853Y-81033098D01*
X150476816Y-80988046D01*
X150472350Y-80979282D01*
X150347409Y-80807313D01*
X150197086Y-80656990D01*
X150025120Y-80532051D01*
X149835714Y-80435544D01*
X149835713Y-80435543D01*
X149835712Y-80435543D01*
X149633543Y-80369854D01*
X149633541Y-80369853D01*
X149633540Y-80369853D01*
X149472257Y-80344308D01*
X149423587Y-80336600D01*
X149211013Y-80336600D01*
X149162342Y-80344308D01*
X149001060Y-80369853D01*
X148798885Y-80435544D01*
X148609479Y-80532051D01*
X148437513Y-80656990D01*
X148287190Y-80807313D01*
X148162249Y-80979282D01*
X148157784Y-80988046D01*
X148109809Y-81038842D01*
X148041988Y-81055636D01*
X147975853Y-81033098D01*
X147936816Y-80988046D01*
X147932350Y-80979282D01*
X147807409Y-80807313D01*
X147657086Y-80656990D01*
X147485120Y-80532051D01*
X147295714Y-80435544D01*
X147295713Y-80435543D01*
X147295712Y-80435543D01*
X147093543Y-80369854D01*
X147093541Y-80369853D01*
X147093540Y-80369853D01*
X146932257Y-80344308D01*
X146883587Y-80336600D01*
X146671013Y-80336600D01*
X146622342Y-80344308D01*
X146461060Y-80369853D01*
X146258885Y-80435544D01*
X146069479Y-80532051D01*
X145897513Y-80656990D01*
X145747190Y-80807313D01*
X145622249Y-80979282D01*
X145617784Y-80988046D01*
X145569809Y-81038842D01*
X145501988Y-81055636D01*
X145435853Y-81033098D01*
X145396816Y-80988046D01*
X145392350Y-80979282D01*
X145267409Y-80807313D01*
X145117086Y-80656990D01*
X144945120Y-80532051D01*
X144755714Y-80435544D01*
X144755713Y-80435543D01*
X144755712Y-80435543D01*
X144553543Y-80369854D01*
X144553541Y-80369853D01*
X144553540Y-80369853D01*
X144392257Y-80344308D01*
X144343587Y-80336600D01*
X144131013Y-80336600D01*
X144082342Y-80344308D01*
X143921060Y-80369853D01*
X143718885Y-80435544D01*
X143529479Y-80532051D01*
X143357513Y-80656990D01*
X143207190Y-80807313D01*
X143082249Y-80979282D01*
X143077784Y-80988046D01*
X143029809Y-81038842D01*
X142961988Y-81055636D01*
X142895853Y-81033098D01*
X142856816Y-80988046D01*
X142852350Y-80979282D01*
X142727409Y-80807313D01*
X142577086Y-80656990D01*
X142405120Y-80532051D01*
X142215714Y-80435544D01*
X142215713Y-80435543D01*
X142215712Y-80435543D01*
X142013543Y-80369854D01*
X142013541Y-80369853D01*
X142013540Y-80369853D01*
X141852257Y-80344308D01*
X141803587Y-80336600D01*
X141591013Y-80336600D01*
X141542342Y-80344308D01*
X141381060Y-80369853D01*
X141178885Y-80435544D01*
X140989479Y-80532051D01*
X140817513Y-80656990D01*
X140667190Y-80807313D01*
X140542249Y-80979282D01*
X140537784Y-80988046D01*
X140489809Y-81038842D01*
X140421988Y-81055636D01*
X140355853Y-81033098D01*
X140316816Y-80988046D01*
X140312350Y-80979282D01*
X140187409Y-80807313D01*
X140037086Y-80656990D01*
X139865120Y-80532051D01*
X139675714Y-80435544D01*
X139675713Y-80435543D01*
X139675712Y-80435543D01*
X139473543Y-80369854D01*
X139473541Y-80369853D01*
X139473540Y-80369853D01*
X139312257Y-80344308D01*
X139263587Y-80336600D01*
X139051013Y-80336600D01*
X139002342Y-80344308D01*
X138841060Y-80369853D01*
X138638885Y-80435544D01*
X138449479Y-80532051D01*
X138277513Y-80656990D01*
X138127190Y-80807313D01*
X138002251Y-80979279D01*
X137905744Y-81168685D01*
X137840053Y-81370860D01*
X137806800Y-81580813D01*
X137493200Y-81580813D01*
X137493200Y-81514102D01*
X137456253Y-81280831D01*
X137383266Y-81056203D01*
X137295787Y-80884517D01*
X137276043Y-80845767D01*
X137137217Y-80654690D01*
X136970210Y-80487683D01*
X136779133Y-80348857D01*
X136756059Y-80337100D01*
X136568696Y-80241633D01*
X136344068Y-80168646D01*
X136110797Y-80131700D01*
X136110792Y-80131700D01*
X135874608Y-80131700D01*
X135874603Y-80131700D01*
X135641331Y-80168646D01*
X135416703Y-80241633D01*
X135206266Y-80348857D01*
X135112036Y-80417320D01*
X135015190Y-80487683D01*
X135015188Y-80487685D01*
X135015187Y-80487685D01*
X134848185Y-80654687D01*
X134848185Y-80654688D01*
X134848183Y-80654690D01*
X134846512Y-80656990D01*
X134709357Y-80845766D01*
X134602133Y-81056203D01*
X134529146Y-81280831D01*
X134492200Y-81514102D01*
X133905390Y-81514102D01*
X133912417Y-81406881D01*
X133914531Y-81390829D01*
X133963409Y-81145107D01*
X133967606Y-81129445D01*
X134000311Y-81033098D01*
X134048138Y-80892205D01*
X134054336Y-80877239D01*
X134165149Y-80652533D01*
X134173252Y-80638498D01*
X134312448Y-80430176D01*
X134322305Y-80417331D01*
X134487502Y-80228960D01*
X134498960Y-80217502D01*
X134687331Y-80052305D01*
X134700176Y-80042448D01*
X134908498Y-79903252D01*
X134922533Y-79895149D01*
X135147239Y-79784336D01*
X135162205Y-79778138D01*
X135329945Y-79721197D01*
X135399445Y-79697606D01*
X135415107Y-79693409D01*
X135660829Y-79644531D01*
X135676883Y-79642417D01*
X135909848Y-79627148D01*
X135930958Y-79625765D01*
X135939067Y-79625500D01*
X136000892Y-79625500D01*
X159999108Y-79625500D01*
X160060933Y-79625500D01*
X160069042Y-79625765D01*
G37*
%TD.AperFunction*%
%TD*%
M02*
