%TF.GenerationSoftware,KiCad,Pcbnew,9.0.6*%
%TF.CreationDate,2026-04-15T11:07:42-04:00*%
%TF.ProjectId,COGDisplayBreakout,434f4744-6973-4706-9c61-79427265616b,0.1*%
%TF.SameCoordinates,Original*%
%TF.FileFunction,Other,User*%
%FSLAX46Y46*%
G04 Gerber Fmt 4.6, Leading zero omitted, Abs format (unit mm)*
G04 Created by KiCad (PCBNEW 9.0.6) date 2026-04-15 11:07:42*
%MOMM*%
%LPD*%
G01*
G04 APERTURE LIST*
%ADD10C,0.050000*%
G04 APERTURE END LIST*
%TO.C,LCD1*%
D10*
X143832000Y-91192000D02*
X152332000Y-91192000D01*
X152332000Y-106692000D01*
X143832000Y-106692000D01*
X143832000Y-91192000D01*
%TO.C,C1*%
X153792000Y-83896000D02*
X153792000Y-85856000D01*
X153792000Y-85856000D02*
X157552000Y-85856000D01*
X157552000Y-83896000D02*
X153792000Y-83896000D01*
X157552000Y-85856000D02*
X157552000Y-83896000D01*
%TO.C,FID1*%
X161000000Y-87500000D02*
G75*
G02*
X159000000Y-87500000I-1000000J0D01*
G01*
X159000000Y-87500000D02*
G75*
G02*
X161000000Y-87500000I1000000J0D01*
G01*
%TO.C,R2*%
X154517000Y-96205000D02*
X154517000Y-98105000D01*
X154517000Y-98105000D02*
X158217000Y-98105000D01*
X158217000Y-96205000D02*
X154517000Y-96205000D01*
X158217000Y-98105000D02*
X158217000Y-96205000D01*
%TO.C,U1*%
X153877000Y-95426000D02*
X153877000Y-92026000D01*
X153877000Y-95426000D02*
X158217000Y-95426000D01*
X158217000Y-92026000D02*
X153877000Y-92026000D01*
X158217000Y-92026000D02*
X158217000Y-95426000D01*
%TO.C,FID2*%
X137000000Y-103500000D02*
G75*
G02*
X135000000Y-103500000I-1000000J0D01*
G01*
X135000000Y-103500000D02*
G75*
G02*
X137000000Y-103500000I1000000J0D01*
G01*
%TO.C,J1*%
X137387300Y-79917100D02*
X158707300Y-79917100D01*
X137387300Y-83457100D02*
X137387300Y-79917100D01*
X158707300Y-79917100D02*
X158707300Y-83457100D01*
X158707300Y-83457100D02*
X137387300Y-83457100D01*
%TO.C,JP1*%
X147575000Y-86340000D02*
X147575000Y-83840000D01*
X147575000Y-86340000D02*
X150875000Y-86340000D01*
X150875000Y-83840000D02*
X147575000Y-83840000D01*
X150875000Y-83840000D02*
X150875000Y-86340000D01*
%TO.C,C4*%
X135926000Y-92608000D02*
X135926000Y-96368000D01*
X135926000Y-96368000D02*
X137886000Y-96368000D01*
X137886000Y-92608000D02*
X135926000Y-92608000D01*
X137886000Y-96368000D02*
X137886000Y-92608000D01*
%TO.C,R1*%
X154517000Y-99126000D02*
X154517000Y-101026000D01*
X154517000Y-101026000D02*
X158217000Y-101026000D01*
X158217000Y-99126000D02*
X154517000Y-99126000D01*
X158217000Y-101026000D02*
X158217000Y-99126000D01*
%TO.C,D1*%
X153852000Y-89220000D02*
X153852000Y-91120000D01*
X153852000Y-91120000D02*
X157552000Y-91120000D01*
X157552000Y-89220000D02*
X153852000Y-89220000D01*
X157552000Y-91120000D02*
X157552000Y-89220000D01*
%TO.C,C2*%
X153792000Y-86396000D02*
X153792000Y-88356000D01*
X153792000Y-88356000D02*
X157552000Y-88356000D01*
X157552000Y-86396000D02*
X153792000Y-86396000D01*
X157552000Y-88356000D02*
X157552000Y-86396000D01*
%TO.C,C3*%
X135926000Y-88036000D02*
X135926000Y-91796000D01*
X135926000Y-91796000D02*
X137886000Y-91796000D01*
X137886000Y-88036000D02*
X135926000Y-88036000D01*
X137886000Y-91796000D02*
X137886000Y-88036000D01*
%TD*%
M02*
